<?xml version="1.0" encoding="UTF-8" standalone="no"?>
<!-- Created with Inkscape (http://www.inkscape.org/) -->

<svg
   xmlns:dc="http://purl.org/dc/elements/1.1/"
   xmlns:cc="http://creativecommons.org/ns#"
   xmlns:rdf="http://www.w3.org/1999/02/22-rdf-syntax-ns#"
   xmlns:svg="http://www.w3.org/2000/svg"
   xmlns="http://www.w3.org/2000/svg"
   xmlns:sodipodi="http://sodipodi.sourceforge.net/DTD/sodipodi-0.dtd"
   xmlns:inkscape="http://www.inkscape.org/namespaces/inkscape"
   sodipodi:docname="fonts.svg"
   inkscape:version="0.91 r13725"
   version="1.1"
   id="svg2"
   viewBox="0 0 450.00001 720.00002"
   height="8in"
   width="5in">
  <sodipodi:namedview
     inkscape:window-maximized="1"
     inkscape:window-y="36"
     inkscape:window-x="0"
     inkscape:window-height="1669"
     inkscape:window-width="3200"
     units="in"
     showgrid="false"
     inkscape:current-layer="layer1"
     inkscape:document-units="px"
     inkscape:cy="321.93646"
     inkscape:cx="43.889352"
     inkscape:zoom="1.4"
     inkscape:pageshadow="2"
     inkscape:pageopacity="0.0"
     borderopacity="1.0"
     bordercolor="#666666"
     pagecolor="#ffffff"
     id="base" />
  <defs
     id="defs4" />
  <metadata
     id="metadata7">
    <rdf:RDF>
      <cc:Work
         rdf:about="">
        <dc:format>image/svg+xml</dc:format>
        <dc:type
           rdf:resource="http://purl.org/dc/dcmitype/StillImage" />
        <dc:title></dc:title>
      </cc:Work>
    </rdf:RDF>
  </metadata>
  <g
     transform="translate(0,-332.36215)"
     id="layer1"
     inkscape:groupmode="layer"
     inkscape:label="Layer 1">
    <g
       id="text4140"
       style="font-style:normal;font-weight:normal;font-size:105px;line-height:125%;font-family:sans-serif;letter-spacing:0px;word-spacing:0px;fill:none;fill-opacity:1;stroke:#000000;stroke-width:1px;stroke-linecap:butt;stroke-linejoin:miter;stroke-opacity:1">
      <g
         id="g4396">
        <path
           id="path4192"
           style="font-style:normal;font-variant:normal;font-weight:bold;font-stretch:normal;font-size:105px;font-family:'Courier 10 Pitch';-inkscape-font-specification:'Courier 10 Pitch Bold';fill:none;stroke:#000000;stroke-opacity:1"
           d="m 54.467857,498.26994 2.205,-5.985 22.155,0 2.1,5.985 -1.785,0 c -4.305,0 -6.51,1.26 -6.51,5.565 0,4.305 2.205,5.67 6.51,5.67 l 15.435,0 c 4.305,0 6.510003,-1.365 6.510003,-5.67 0,-3.675 -1.995003,-5.565 -5.670003,-5.565 -0.21,0 -0.525,0 -0.84,0 l -16.275,-44.52 c -1.365,-3.78 -1.785,-5.04 -6.405,-5.04 l -19.215,0 c -4.41,0 -6.51,1.47 -6.51,5.67 0,4.305 2.1,5.67 6.405,5.67 l 4.2,0 -13.755,38.22 c -0.315,0 -0.63,0 -0.84,0 -3.675,0 -5.67,1.89 -5.67,5.565 0,4.305 2.205,5.67 6.51,5.67 l 13.23,0 c 4.305,0 6.51,-1.365 6.51,-5.67 0,-4.305 -2.205,-5.565 -6.51,-5.565 l -1.785,0 z m 5.775,-16.59 7.455,-21.63 7.455,21.63 -14.91,0 z" />
        <path
           id="path4399"
           style="stroke:#000000;stroke-width:1.0;fill:none"
           d="M 53.948937,449.709940 l -4.014086,4.014086 c -3.535534,3.535534 0.947089,6.123978 4.482623,2.588445 l 3.950880,-3.950880 c 3.535534,-3.535534 10.606602,-3.535534 7.071068,-0.000000 l -4.896764,4.896764 c -3.535534,3.535534 -7.511113,14.582181 -3.975579,11.046647 l 15.522309,-15.522309 c 3.535534,-3.535534 6.299639,0.771429 2.764105,4.306963 l -2.642029,2.642029 c -3.535534,3.535534 -1.723094,8.794162 1.812440,5.258628 l 2.711200,-2.711200 c 3.535534,-3.535534 5.428480,1.642588 1.892946,5.178122 l -2.791706,2.791706 c -3.535534,3.535534 -1.723094,8.794162 1.812440,5.258628 l 2.872212,-2.872212 c 3.535534,-3.535534 5.428480,1.642588 1.892946,5.178122 l -10.819811,10.819811 c -3.535534,3.535534 3.535534,3.535534 7.071068,0.000000 l 5.641689,-5.641689 c 3.535534,-3.535534 5.428480,1.642588 1.892946,5.178122 l -3.089908,3.089908 c -3.535534,3.535534 -9.463851,16.534919 -5.928317,12.999385 l 10.911171,-10.911171 c 3.535534,-3.535534 5.428480,1.642588 1.892946,5.178122 l -7.519954,7.519954 c -3.535534,3.535534 3.728165,3.342903 7.263699,-0.192631 l 3.809405,-3.809405 c 3.535534,-3.535534 7.254881,-0.183813 3.719347,3.351721 l -3.109334,3.109334 M 49.939850,482.003298 l 11.285897,-11.285897 c 3.535534,-3.535534 -0.183324,7.254392 -3.718858,10.789926 l -11.542618,11.542618 M 39.319253,499.694962 l -0.686351,0.686351 c -0.915135,0.915135 -0.136001,7.207069 0.779133,6.291935 l 21.341657,-21.341657 c 3.535534,-3.535534 10.606602,-3.535534 7.071068,0.000000 l -5.953350,5.953350 M 44.651411,508.504940 l 6.583350,-6.583350 c 3.535534,-3.535534 9.783116,-2.712048 6.247582,0.823486 l -4.577232,4.577232 c -1.576842,1.576842 5.778868,1.292200 7.355710,-0.284642 l 1.182632,-1.182632 M 45.639235,508.504940 l -4.738681,-4.738681 c -3.535534,-3.535534 1.690865,-5.380202 5.226399,-1.844669 l 3.931699,3.931699 c 3.535534,3.535534 10.125687,3.054619 6.590153,-0.480915 l -8.466347,-8.466347 c -3.535534,-3.535534 -1.664201,-8.735269 1.871333,-5.199735 l 1.562362,1.562362 c 3.535534,3.535534 5.971236,-1.099831 2.435703,-4.635365 l -2.126732,-2.126732 c -3.535534,-3.535534 -1.664201,-8.735269 1.871333,-5.199735 l 7.326466,7.326466 c 3.535534,3.535534 10.606602,3.535534 7.071068,0.000000 l -3.301699,-3.301699 c -3.535534,-3.535534 3.535534,-3.535534 7.071068,0.000000 l 20.466900,20.466900 c 3.535534,3.535534 8.231834,1.160766 4.696300,-2.374768 l -18.473463,-18.473463 c -3.535534,-3.535534 -6.609886,-13.680954 -3.074353,-10.145420 l 12.095895,12.095895 c 3.535534,3.535534 -0.538873,-7.609941 -4.074407,-11.145475 l -23.393669,-23.393669 c -3.535534,-3.535534 -10.581974,-3.510906 -7.046440,0.024627 l 9.337538,9.337538 c 3.535534,3.535534 1.723094,8.794162 -1.812440,5.258628 l -1.274765,-1.274765 c -3.535534,-3.535534 -5.406867,1.664201 -1.871333,5.199735 l 1.333658,1.333658 c 3.535534,3.535534 1.723094,8.794162 -1.812440,5.258628 l -4.044202,-4.044202 M 61.808325,503.460827 l -4.045813,-4.045813 M 80.994574,508.504940 l -4.333346,-4.333346 c -3.535534,-3.535534 1.316120,-5.754947 4.851654,-2.219413 l 6.552759,6.552759 M 47.300771,453.597934 l 5.452006,5.452006 M 82.177476,467.261435 l -14.899845,-14.899845 c -3.535534,-3.535534 3.535534,-3.535534 7.071068,0.000000 l 3.754370,3.754370" />
      </g>
      <g
         id="g4401">
        <path
           id="path4196"
           style="font-style:normal;font-variant:normal;font-weight:bold;font-stretch:normal;font-size:105px;font-family:'Courier 10 Pitch';-inkscape-font-specification:'Courier 10 Pitch Bold';fill:none;stroke:#000000;stroke-opacity:1"
           d="m 188.46098,448.81494 c 0,5.25 1.155,6.195 6.3,6.195 5.775,0 6.3,-1.155 6.3,-7.77 0,-6.405 -0.525,-8.295 -6.195,-8.295 -5.46,0 -6.405,1.68 -6.405,9.87 z m 10.815,13.335 -15.435,0 c -4.305,0 -6.405,1.26 -6.405,5.565 0,4.305 2.1,5.67 6.405,5.67 l 5.775,0 0,24.885 -11.025,0 c -4.305,0 -6.51,1.26 -6.51,5.565 0,4.305 2.205,5.67 6.51,5.67 l 34.65,0 c 4.305,0 6.51,-1.365 6.51,-5.67 0,-4.305 -2.205,-5.565 -6.51,-5.565 l -11.025,0 0,-33.915 c 0,-1.365 -1.05,-2.205 -2.94,-2.205 z" />
        <path
           id="path4404"
           style="stroke:#000000;stroke-width:1.0;fill:none"
           d="M 189.443872,448.565293 l 5.680322,-5.680322 c 3.535534,-3.535534 5.728907,1.342161 2.193373,4.877695 l -5.346782,5.346782 c -0.747599,0.747599 6.293285,0.777783 7.040884,0.030184 l 0.000000,-0.000000 c 0.747599,-0.747599 -2.752340,9.823408 -3.499939,10.571007 l -6.022650,6.022650 c -3.535534,3.535534 0.243018,6.828050 3.778552,3.292516 l 5.404183,-5.404183 c 3.535534,-3.535534 3.428050,3.643017 -0.107483,7.178551 l -5.296699,5.296699 c -3.535534,3.535534 -3.535534,10.606602 0.000000,7.071068 l 5.296699,-5.296699 c 3.535534,-3.535534 3.535534,3.535534 -0.000000,7.071068 l -5.296699,5.296699 c -3.535534,3.535534 -1.007679,15.149814 2.527855,11.614280 l 3.931699,-3.931699 c 3.535534,-3.535534 2.372679,-9.443746 -1.162855,-5.908213 l -9.839912,9.839912 c -3.535534,3.535534 -10.639156,3.568088 -7.103622,0.032554 l 3.964253,-3.964253 c 3.535534,-3.535534 -3.535534,-3.535534 -7.071068,0.000000 l -4.723017,4.723017 M 181.727753,463.352480 l -1.547147,1.547147 c -2.062862,2.062862 -0.265572,7.336640 1.797291,5.273777 l 7.023464,-7.023464 M 200.214903,508.504940 l 6.583350,-6.583350 c 3.535534,-3.535534 10.221158,-3.150090 6.685624,0.385444 l -4.051691,4.051691 c -2.861620,2.861620 4.337527,2.733541 7.199147,-0.128079 l 2.146215,-2.146215 M 179.989523,508.504940 l -4.069584,-4.069584 c -3.535534,-3.535534 1.091004,-5.980064 4.626538,-2.444530 l 3.862464,3.862464 c 3.535534,3.535534 10.606602,3.535534 7.071068,0.000000 l -3.931699,-3.931699 c -3.535534,-3.535534 2.183787,-4.887281 5.719321,-1.351747 l 5.283446,5.283446 c 3.535534,3.535534 10.606602,3.535534 7.071068,0.000000 l -12.354514,-12.354514 c -3.535534,-3.535534 -3.535534,-10.606602 0.000000,-7.071068 l 5.296699,5.296699 c 3.535534,3.535534 3.535534,-3.535534 0.000000,-7.071068 l -5.296699,-5.296699 c -3.535534,-3.535534 -2.948448,-17.090584 0.587086,-13.555050 l 4.709613,4.709613 c 3.535534,3.535534 3.535534,10.606602 0.000000,7.071068 l -11.801619,-11.801619 c -3.535534,-3.535534 -8.641490,-1.570422 -5.105956,1.965112 l 4.639176,4.639176 M 206.109862,499.269940 l 6.389351,6.389351 c 3.535534,3.535534 6.992719,-0.078349 3.457185,-3.613883 l -2.775468,-2.775468 M 198.274134,463.149940 l 1.470923,1.470923 c 1.961231,1.961231 -3.163372,-10.234440 -5.124603,-12.195671 l -2.437780,-2.437780 c -3.535534,-3.535534 -2.523414,-9.594481 1.012120,-6.058948 l 5.074247,5.074247 c 2.282814,2.282814 2.204940,-4.866128 -0.077874,-7.148941 l -1.712110,-1.712110" />
      </g>
      <g
         id="g4406">
        <path
           id="path4198"
           style="font-style:normal;font-variant:normal;font-weight:bold;font-stretch:normal;font-size:105px;font-family:'Courier 10 Pitch';-inkscape-font-specification:'Courier 10 Pitch Bold';fill:none;stroke:#000000;stroke-opacity:1"
           d="m 259.08004,509.50494 c 1.26,0 2.415,0 3.57,0 6.405,0 11.97,-0.315 17.01,-4.095 4.305,-3.255 6.615,-8.085 6.615,-13.44 0,-7.35 -3.36,-11.97 -10.815,-14.7 4.515,-2.625 6.825,-6.72 6.825,-12.075 0,-10.5 -7.35,-16.485 -22.05,-16.485 l -23.625,0 c -4.305,0 -6.405,1.47 -6.405,5.67 0,3.675 1.995,5.67 5.565,5.67 0.315,0 0.525,0 0.84,0 l 0,38.22 c -0.315,0 -0.525,0 -0.84,0 -3.57,0 -5.565,1.89 -5.565,5.565 0,4.2 2.1,5.67 6.405,5.67 l 22.47,0 z m -9.765,-36.855 0,-12.915 8.505,0 c 6.72,0 9.87,1.785 9.87,6.405 0,5.04 -3.78,6.51 -11.55,6.51 l -6.825,0 z m 0,25.935 0,-15.645 8.19,0 c 9.45,0 14.28,1.47 14.28,7.875 0,6.09 -4.935,7.77 -14.805,7.77 l -7.665,0 z" />
        <path
           id="path4409"
           style="stroke:#000000;stroke-width:1.0;fill:none"
           d="M 237.796700,449.709940 l -3.799949,3.799949 c -3.535534,3.535534 0.690103,6.380965 4.225637,2.845431 l 3.993730,-3.993730 c 3.535534,-3.535534 10.606602,-3.535534 7.071068,0.000000 l -9.025494,9.025494 c -3.535534,3.535534 -3.535534,10.606602 0.000000,7.071068 l 16.096562,-16.096562 c 3.535534,-3.535534 10.252786,-3.181718 6.717252,0.353816 l -3.367884,3.367884 c -3.535534,3.535534 2.877646,4.193422 6.413179,0.657888 l 2.665457,-2.665457 c 3.535534,-3.535534 8.236730,-1.165662 4.701196,2.369872 l -5.816624,5.816624 M 237.610040,478.180871 l 8.053350,-8.053350 c 3.535534,-3.535534 4.432533,2.638535 0.896999,6.174069 l -6.298698,6.298698 c -3.535534,3.535534 -3.535534,10.606602 0.000000,7.071068 l 16.028700,-16.028700 M 255.064174,481.939940 l 21.670915,-21.670915 c 3.535534,-3.535534 5.226230,1.844838 1.690696,5.380372 l -13.870750,13.870750 c -3.535534,3.535534 2.417123,4.653944 5.952657,1.118410 l 6.720166,-6.720166 c 3.535534,-3.535534 2.106705,4.964363 -1.428829,8.499897 l -1.365301,1.365301 c -3.535534,3.535534 -2.553670,9.624738 0.981864,6.089204 l 4.295576,-4.295576 c 3.535534,-3.535534 5.967553,1.103515 2.432019,4.639049 l -15.608037,15.608037 c -3.535534,3.535534 -10.635588,3.564520 -7.100054,0.028986 l 5.388352,-5.388352 c 3.535534,-3.535534 -5.212228,-1.858840 -8.747762,1.676694 l -3.711658,3.711658 c -3.535534,3.535534 -10.606602,3.535534 -7.071068,0.000000 l 3.616699,-3.616699 c 3.535534,-3.535534 0.289264,-7.360332 -3.246270,-3.824798 l -7.337874,7.337874 c -3.535534,3.535534 -7.740423,0.669355 -4.204889,-2.866178 l 14.194414,-14.194414 M 271.548552,507.881970 l 13.450293,-13.450293 M 236.558066,508.504940 l -2.626510,-2.626510 c -3.502013,-3.502013 -0.225496,-7.296564 3.276517,-3.794551 l 3.769410,3.769410 c 3.535534,3.535534 10.606602,3.535534 7.071068,0.000000 l -7.786861,-7.786861 c -3.535534,-3.535534 -3.535534,-10.606602 0.000000,-7.071068 l 14.857928,14.857928 c 3.535534,3.535534 10.556460,3.485393 7.020927,-0.050141 l -3.566558,-3.566558 c -3.535534,-3.535534 3.222308,-3.848760 6.757842,-0.313226 l 3.354538,3.354538 c 3.535534,3.535534 8.731834,1.660766 5.196300,-1.874768 l -2.822041,-2.822041 c -3.535534,-3.535534 0.055831,-7.015237 3.591365,-3.479703 l 3.337751,3.337751 c 3.535534,3.535534 6.563361,-0.507707 3.027827,-4.043241 l -20.214528,-20.214528 c -3.535534,-3.535534 2.583320,-4.487748 6.118854,-0.952214 l 15.536619,15.536619 c 3.535534,3.535534 2.282690,-4.788378 -1.252844,-8.323912 l -2.843218,-2.843218 M 248.315040,491.977643 l -8.053350,-8.053350 c -3.535534,-3.535534 -3.535534,-10.606602 0.000000,-7.071068 l 5.401699,5.401699 c 3.535534,3.535534 7.639967,0.568899 4.104433,-2.966635 l -9.506132,-9.506132 c -3.535534,-3.535534 -9.837002,-16.908069 -6.301468,-13.372535 l 11.703167,11.703167 c 3.535534,3.535534 3.535534,-3.535534 0.000000,-7.071068 l -8.581769,-8.581769 c -3.535534,-3.535534 3.437172,-3.633896 6.972706,-0.098362 l 3.721699,3.721699 c 3.535534,3.535534 10.575092,3.504024 7.039558,-0.031510 l -3.690189,-3.690189 c -3.535534,-3.535534 3.535534,-3.535534 7.071068,0.000000 l 17.928108,17.928108 c 3.535534,3.535534 -0.167626,6.903442 -3.703159,3.367908 l -4.374507,-4.374507 M 259.600253,482.049653 l -8.399713,-8.399713 M 262.752590,449.846651 l 15.548476,15.548476 c 3.535534,3.535534 3.481687,-3.589381 -0.053847,-7.124915 l -7.691158,-7.691158" />
      </g>
      <g
         id="g4411">
        <path
           id="path4200"
           style="font-style:normal;font-variant:normal;font-weight:bold;font-stretch:normal;font-size:105px;font-family:'Courier 10 Pitch';-inkscape-font-specification:'Courier 10 Pitch Bold';fill:none;stroke:#000000;stroke-opacity:1"
           d="m 349.33411,485.87994 c 0,-14.175 -10.92,-24.885 -27.93,-24.885 -17.01,0 -28.035,10.71 -28.035,24.885 0,14.175 11.025,24.885 28.035,24.885 17.01,0 27.93,-10.71 27.93,-24.885 z m -27.93,14.07 c -7.98,0 -13.755,-5.985 -13.755,-14.175 0,-8.085 5.67,-13.965 13.755,-13.965 8.19,0 13.65,5.88 13.65,13.965 0,8.085 -5.565,14.175 -13.65,14.175 z" />
        <path
           id="path4414"
           style="stroke:#000000;stroke-width:1.0;fill:none"
           d="M 307.061671,465.297783 l -7.978286,7.978286 c -3.535534,3.535534 -5.757393,12.828460 -2.221859,9.292927 l 17.573205,-17.573205 c 3.535534,-3.535534 10.722499,-3.651431 7.186965,-0.115897 l -23.912817,23.912817 c -3.535534,3.535534 -1.609848,8.680916 1.925686,5.145382 l 4.453210,-4.453210 c 3.535534,-3.535534 4.903581,2.167487 1.368047,5.703021 l -2.972740,2.972740 c -3.535534,3.535534 0.121406,6.949661 3.656940,3.414127 l 2.166871,-2.166871 c 3.535534,-3.535534 7.760370,-0.689302 4.224836,2.846232 l -1.958679,1.958679 c -3.535534,3.535534 1.708750,5.362318 5.244284,1.826784 l 5.040710,-5.040710 M 322.652788,470.919869 l 5.020976,-5.020976 c 3.535534,-3.535534 8.675238,-1.604170 5.139704,1.931364 l -1.910855,1.910855 c -3.535534,3.535534 0.512943,6.558124 4.048477,3.022590 l 2.193154,-2.193154 c 3.535534,-3.535534 7.086941,-0.015874 3.551407,3.519660 l -3.042907,3.042907 c -3.535534,3.535534 -2.481039,9.552106 1.054495,6.016573 l 4.723066,-4.723066 c 3.535534,-3.535534 5.333525,1.737543 1.797991,5.273077 l -23.244364,23.244364 c -3.535534,3.535534 3.790898,3.280170 7.326432,-0.255364 l 16.173378,-16.173378 c 3.535534,-3.535534 2.030020,5.041048 -1.505514,8.576582 l -6.582765,6.582765 M 299.025209,500.261405 l 2.812255,2.812255 c 3.535534,3.535534 14.137111,7.066043 10.601577,3.530509 l -15.122399,-15.122399 c -3.535534,-3.535534 -3.430416,-10.501484 0.105118,-6.965950 l 22.500454,22.500454 c 3.535534,3.535534 9.827663,2.756595 6.292129,-0.778939 l -2.680753,-2.680753 c -3.535534,-3.535534 2.543681,-4.527387 6.079215,-0.991853 l 1.951553,1.951553 c 3.535534,3.535534 8.061494,0.990426 4.525960,-2.545108 l -2.140070,-2.140070 c -3.535534,-3.535534 -0.514380,-7.585448 3.021154,-4.049914 l 2.862463,2.862463 c 3.535534,3.535534 6.471431,-0.599637 2.935897,-4.135171 l -4.222014,-4.222014 c -3.535534,-3.535534 -5.701953,-12.773021 -2.166420,-9.237487 l 8.411760,8.411760 c 3.535534,3.535534 4.416043,-2.655025 0.880509,-6.190559 l -18.359050,-18.359050 c -3.535534,-3.535534 -10.565722,-3.494655 -7.030188,0.040879 l 5.730226,5.730226 c 3.535534,3.535534 -5.866474,1.204594 -9.402008,-2.330940 l -2.255315,-2.255315 c -3.535534,-3.535534 -8.570259,-1.499191 -5.034725,2.036343 l 1.953980,1.953980 c 3.535534,3.535534 -0.325163,6.745904 -3.860697,3.210371 l -2.331865,-2.331865 c -3.535534,-3.535534 -7.000913,0.070155 -3.465379,3.605689 l 3.265957,3.265957 c 3.535534,3.535534 2.731852,9.802920 -0.803681,6.267386 l -7.761462,-7.761462 M 333.440573,463.966091 l 13.248011,13.248011" />
      </g>
      <g
         id="g4416">
        <path
           id="path4194"
           style="font-style:normal;font-variant:normal;font-weight:bold;font-stretch:normal;font-size:105px;font-family:'Courier 10 Pitch';-inkscape-font-specification:'Courier 10 Pitch Bold';fill:none;stroke:#000000;stroke-opacity:1"
           d="m 151.33692,498.16494 -12.81,-13.125 10.71,-11.655 c 0.735,0.105 1.365,0.105 1.995,0.105 3.99,0 5.985,-1.785 5.985,-5.67 0,-4.2 -1.995,-5.67 -6.405,-5.67 l -10.92,0 c -3.465,0 -5.145,1.785 -5.145,5.565 0,3.15 1.05,4.725 3.255,4.725 l -5.88,6.405 -5.46,-6.405 c 2.205,0 3.255,-1.575 3.255,-4.725 0,-3.78 -1.68,-5.565 -5.145,-5.565 l -12.39,0 c -4.41,0 -6.51,1.47 -6.51,5.67 0,3.78 1.89,5.67 5.88,5.67 0.525,0 1.05,0 1.68,-0.105 l 11.76,12.495 -12.075,12.285 c -0.42,0 -0.735,-0.105 -1.155,-0.105 -3.675,0 -5.46,1.995 -5.46,5.775 0,4.2 1.995,5.67 6.405,5.67 l 10.92,0 c 3.465,0 5.145,-1.785 5.145,-5.565 0,-3.15 -1.05,-4.725 -3.255,-4.725 -0.105,0 -0.315,0 -0.42,0 l 6.3,-7.245 6.51,7.245 c -0.105,0 -0.315,0 -0.42,0 -2.31,0 -3.36,1.575 -3.36,4.725 0,3.78 1.68,5.565 5.145,5.565 l 12.39,0 c 4.41,0 6.51,-1.47 6.51,-5.67 0,-3.78 -1.995,-5.775 -5.88,-5.775 -0.315,0 -0.735,0.105 -1.155,0.105 z" />
        <path
           id="path4419"
           style="stroke:#000000;stroke-width:1.0;fill:none"
           d="M 111.080843,463.288712 l -2.120250,2.120250 c -2.827000,2.827000 -0.320570,7.391638 2.506429,4.564638 l 4.172010,-4.172010 c 3.535534,-3.535534 10.520411,-3.449343 6.984877,0.086191 l -5.011171,5.011171 c -3.535534,3.535534 -0.107137,7.178205 3.428397,3.642671 l 5.097395,-5.097395 c 3.535534,-3.535534 2.332462,4.738606 -1.203072,8.274140 l -0.465926,0.465926 c -3.535534,3.535534 -0.107137,7.178205 3.428397,3.642671 l 0.291472,-0.291472 c 3.535534,-3.535534 10.662507,3.479629 7.126973,7.015162 l -0.217622,0.217622 c -3.535534,3.535534 -0.188922,7.259989 3.346612,3.724456 l 0.363601,-0.363601 c 3.535534,-3.535534 7.028126,0.042942 3.492592,3.578476 l -4.182976,4.182976 c -3.535534,3.535534 -1.860902,8.931970 1.674631,5.396436 l 6.000937,-6.000937 c 3.535534,-3.535534 8.096070,-1.025002 4.560536,2.510532 l -4.056674,4.056674 c -3.535534,3.535534 3.535534,3.535534 7.071068,0.000000 l 3.859636,-3.859636 M 139.503886,463.149940 l -1.954311,1.954311 c -2.605748,2.605748 0.053039,7.018029 2.658787,4.412280 l 3.714941,-3.714941 c 3.535534,-3.535534 10.341724,-3.270656 6.806190,0.264878 l -40.267268,40.267268 c -1.767416,1.767416 -3.140810,-3.930258 -1.373394,-5.697674 l 0.000000,-0.000000 c 1.767416,-1.767416 15.609187,-1.467052 13.841771,0.300365 l -4.916863,4.916863 c -3.535534,3.535534 3.535534,3.535534 7.071068,0.000000 l 2.797596,-2.797596 M 156.186721,467.680308 l -4.815575,4.815575 M 116.349913,508.504940 l -5.282283,-5.282283 c -3.535534,-3.535534 1.861049,-5.210019 5.396583,-1.674485 l 4.348182,4.348182 c 3.535534,3.535534 7.896838,0.825770 4.361304,-2.709764 l -5.284394,-5.284394 c -3.437349,-3.437349 0.067706,-7.003361 3.505055,-3.566013 l 0.108093,0.108093 c 3.293224,3.293224 6.582093,-0.488975 3.288869,-3.782199 l -2.469918,-2.469918 M 137.215463,508.157286 l -0.767874,-0.767874 c -1.023832,-1.023832 -0.103344,-7.174412 0.920488,-6.150580 l 4.614458,4.614458 c 3.535534,3.535534 10.616420,3.545352 7.080886,0.009818 l -38.570937,-38.570937 c -3.535534,-3.535534 2.044954,-5.026114 5.580488,-1.490580 l 40.689596,40.689596 M 107.070100,470.940855 l 1.410780,1.410780 M 128.132412,470.789964 l -7.640024,-7.640024 M 134.775537,477.433089 l 2.444963,2.444963 c 3.259950,3.259950 6.646096,-0.424972 3.386145,-3.684923 l -0.000851,-0.000851 c -3.261085,-3.261085 -5.027448,-12.098516 -1.766363,-8.837431 l 4.946672,4.946672 c 3.535534,3.535534 8.157350,1.086282 4.621816,-2.449252 l -4.050677,-4.050677 c -3.535534,-3.535534 3.535534,-3.535534 7.071068,0.000000 l 4.351629,4.351629" />
      </g>
      <g
         id="g4421">
        <path
           id="path4202"
           style="font-style:normal;font-variant:normal;font-weight:bold;font-stretch:normal;font-size:105px;font-family:'Courier 10 Pitch';-inkscape-font-specification:'Courier 10 Pitch Bold';fill:none;stroke:#000000;stroke-opacity:1"
           d="m 363.56817,476.21994 4.83,0 0,13.125 c 0,0.42 0,0.84 0,1.155 0,6.195 0.105,10.92 3.15,14.49 2.94,3.465 8.295,5.565 15.54,5.565 12.705,0 23.415,-5.67 23.415,-10.29 0,-3.57 -2.415,-5.88 -5.145,-5.88 -4.41,0 -9.45,4.62 -16.695,4.62 -6.09,0 -7.665,-2.94 -7.665,-9.66 l 0,-13.125 15.645,0 c 4.305,0 6.51,-1.365 6.51,-5.67 0,-4.305 -2.205,-5.565 -6.51,-5.565 l -15.645,0 0,-11.97 c 0,-4.41 -1.575,-6.405 -6.405,-6.405 -3.99,0 -6.195,2.205 -6.195,4.305 0,0.21 0,0.84 0,2.1 l 0,11.97 -4.83,0 c -4.305,0 -6.405,1.26 -6.405,5.565 0,4.305 2.1,5.67 6.405,5.67 z" />
        <path
           id="path4424"
           style="stroke:#000000;stroke-width:1.0;fill:none"
           d="M 369.398170,452.458758 l 2.440205,-2.440205 c 3.253607,-3.253607 8.249027,-1.177960 4.995420,2.075648 l -7.435626,7.435626 M 362.970865,465.957131 l -2.385488,2.385488 c -3.180650,3.180650 -0.348095,7.419162 2.832555,4.238512 l 13.928587,-13.928587 c 3.535534,-3.535534 3.535534,3.535534 0.000000,7.071068 l -6.844678,6.844678 c -3.535534,3.535534 -1.987555,9.058623 1.547979,5.523089 l 9.454788,-9.454788 c 3.535534,-3.535534 10.606602,-3.535534 7.071068,0.000000 l -16.525856,16.525856 c -3.535534,3.535534 -3.472120,10.543188 0.063414,7.007654 l 5.233285,-5.233285 c 3.535534,-3.535534 3.679159,3.391909 0.143625,6.927443 l -4.366675,4.366675 c -3.535534,3.535534 -0.746653,7.817721 2.788881,4.282187 l 2.957968,-2.957968 c 3.535534,-3.535534 7.904261,-0.833193 4.368727,2.702341 l -2.991218,2.991218 c -3.535534,3.535534 2.169271,4.901797 5.704805,1.366263 l 4.621003,-4.621003 c 3.535534,-3.535534 14.408796,-7.337729 10.873263,-3.802195 l -8.537991,8.537991 c -3.535534,3.535534 5.118324,1.952744 8.653858,-1.582790 l 7.333457,-7.333457 M 389.063395,475.219940 l 6.438233,-6.438233 c 3.535534,-3.535534 7.345989,-0.274921 3.810455,3.260613 l -3.177620,3.177620 M 377.449280,507.974798 l -4.281261,-4.281261 c -3.535534,-3.535534 -4.618709,-11.689777 -1.083175,-8.154243 l 11.647980,11.647980 c 3.535534,3.535534 9.895034,2.823967 6.359501,-0.711567 l -18.042503,-18.042503 c -3.535534,-3.535534 -3.535534,-10.606602 0.000000,-7.071068 l 5.290419,5.290419 c 3.535534,3.535534 3.541814,-3.529254 0.006280,-7.064788 l -10.962213,-10.962213 c -3.535534,-3.535534 -8.583334,-1.512267 -5.047800,2.023267 l 1.919469,1.919469 c 3.535534,3.535534 17.934082,3.791947 14.398548,0.256413 l -5.604703,-5.604703 c -3.535534,-3.535534 -3.535534,-10.606602 0.000000,-7.071068 l 12.419358,12.419358 c 3.535534,3.535534 10.606602,3.535534 7.071068,0.000000 l -3.931699,-3.931699 c -3.535534,-3.535534 3.535534,-3.535534 7.071068,0.000000 l 4.502997,4.502997 c 1.672969,1.672969 3.101385,-3.969683 1.428415,-5.642652 l -1.254727,-1.254727 M 390.552184,499.864498 l 5.373236,5.373236 c 3.535534,3.535534 8.646782,1.575714 5.111248,-1.959819 l -2.185429,-2.185429 c -3.535534,-3.535534 1.544255,-5.526813 5.079789,-1.991279 l 3.323866,3.323866 c 0.896678,0.896678 2.120016,-4.951052 1.223337,-5.847730 l -0.672509,-0.672509 M 379.998170,461.026213 l -7.820602,-7.820602 c -3.535534,-3.535534 0.717479,-6.353589 4.253013,-2.818055 l 3.567589,3.567589" />
      </g>
    </g>
    <g
       id="text4148"
       style="font-style:normal;font-weight:normal;font-size:150px;line-height:125%;font-family:sans-serif;letter-spacing:0px;word-spacing:0px;fill:none;fill-opacity:1;stroke:#000000;stroke-width:1px;stroke-linecap:butt;stroke-linejoin:miter;stroke-opacity:1"
       transform="translate(-5,36.428571)">
      <g
         id="g4453">
        <path
           id="path4172"
           style="font-style:normal;font-variant:normal;font-weight:bold;font-stretch:normal;font-size:150px;font-family:'Liberation Serif';-inkscape-font-specification:'Liberation Serif Bold';fill:none;stroke:#000000;stroke-opacity:1"
           d="m 47.269104,855.83105 6.445313,0 3.295898,15.74707 q 1.538086,1.75782 3.881836,3.2959 2.34375,1.46485 5.273437,2.63672 2.929688,1.17188 6.225586,1.83106 3.369141,0.65918 6.811524,0.65918 5.71289,0 9.741211,-1.24512 4.02832,-1.31836 6.518554,-3.58887 2.490235,-2.27051 3.588868,-5.41992 1.171879,-3.22266 1.171879,-7.03125 0,-4.39453 -2.270512,-7.25098 -2.197266,-2.85644 -5.932617,-4.90722 -3.66211,-2.05078 -8.34961,-3.58887 -4.6875,-1.61133 -9.667969,-3.36914 -4.907226,-1.75781 -9.594726,-4.02832 -4.6875,-2.27051 -8.422852,-5.71289 -3.662109,-3.51563 -5.932617,-8.4961 -2.197265,-4.98046 -2.197265,-12.23144 0,-12.96387 8.789062,-19.70215 8.862305,-6.81152 25.854492,-6.81152 3.588867,0 7.250977,0.29297 3.735351,0.21972 7.250976,0.65918 3.515621,0.43945 6.738281,1.02539 3.22266,0.58593 6.00586,1.17187 l 0,23.36426 -6.51855,0 -3.295903,-13.47656 q -3.222656,-2.34375 -7.397461,-3.88184 -4.174805,-1.53809 -10.03418,-1.53809 -4.980469,0 -8.569336,1.0254 -3.515625,0.95214 -5.786133,2.70996 -2.270507,1.75781 -3.295898,4.24804 -1.025391,2.49024 -1.025391,5.56641 0,3.95508 2.270508,6.5918 2.270508,2.63672 5.932617,4.54101 3.66211,1.9043 8.34961,3.44238 4.760742,1.53809 9.667969,3.36915 4.980468,1.75781 9.667968,4.10156 4.76074,2.27051 8.42285,5.78613 3.66211,3.44238 5.93262,8.42285 2.27051,4.98047 2.27051,12.08496 0,7.17774 -2.05078,12.96387 -2.05079,5.78613 -6.51856,9.8877 -4.46777,4.02832 -11.42578,6.22558 -6.958008,2.19727 -16.845703,2.19727 -4.760743,0 -9.448243,-0.43946 -4.6875,-0.43945 -8.935547,-1.17187 -4.174804,-0.73242 -7.763671,-1.68457 -3.588868,-0.95215 -6.079102,-1.9043 l 0,-26.36719 z"
           inkscape:connector-curvature="0" />
        <path
           id="path4456"
           style="fill:none;stroke:#000000;stroke-width:1"
           d="m 55.96798,794.17322 -1.188696,1.1887 c -1.584928,1.58492 -5.842989,12.91405 -4.25806,11.32912 l 14.778191,-14.77819 c 3.535534,-3.53553 11.920775,-4.8497 8.385241,-1.31417 l -22.000359,22.00036 c -3.535534,3.53553 -2.7346,9.80567 0.800934,6.27013 l 7.806253,-7.80625 c 3.535534,-3.53553 5.119865,1.9512 1.584331,5.48674 l -7.348313,7.34831 c -3.535534,3.53553 -0.719111,7.79018 2.816423,4.25464 l 7.985084,-7.98508 c 3.535534,-3.53553 7.937984,-0.86692 4.40245,2.66862 l -8.863346,8.86334 c -3.535534,3.53554 0.634185,6.43689 4.169719,2.90135 l 9.64309,-9.64309 c 3.535534,-3.53553 8.740567,-1.6695 5.205033,1.86604 l -10.139452,10.13945 c -3.535534,3.53553 1.444627,5.62644 4.980161,2.09091 l 10.403001,-10.403 c 3.535534,-3.53554 8.684362,-1.6133 5.148828,1.92224 l -10.429088,10.42908 c -3.535534,3.53554 1.70818,5.36289 5.243713,1.82736 l 10.105364,-10.10537 c 3.535534,-3.53553 8.124958,-1.05389 4.589426,2.48165 l -9.524634,9.52463 c -3.535534,3.53553 1.276282,5.79478 4.811816,2.25925 l 8.76718,-8.76717 c 3.53553,-3.53554 6.96597,0.10508 3.43044,3.64062 l -8.071941,8.07194 c -3.535534,3.53553 -0.293459,7.36453 3.242071,3.82899 l 7.5495,-7.54949 c 3.53553,-3.53553 5.43123,1.63983 1.8957,5.17537 l -8.07399,8.07398 c -3.53553,3.53554 -6.350857,13.42193 -2.81532,9.8864 l 11.64101,-11.64102 c 3.53553,-3.53553 3.09389,3.97718 -0.44164,7.51271 l -17.357689,17.35769 c -3.535534,3.53553 -11.48709,4.41602 -7.951556,0.88049 l 2.597239,-2.59724 c 3.535534,-3.53554 -6.134579,-0.93649 -9.670112,2.59904 l -0.240783,0.24079 c -3.437413,3.43741 -10.202026,3.13095 -6.764614,-0.30646 l 0,0 c 3.437413,-3.43741 -2.372149,-4.69892 -5.809562,-1.2615 l -0.368084,0.36808 c -3.535534,3.53553 -9.536165,2.4651 -6.000631,-1.07044 l 1.06211,-1.06211 c 3.535534,-3.53553 -1.07595,-5.99511 -4.611484,-2.45958 l -2.155845,2.15584 c -3.535534,3.53554 -7.541867,0.47081 -4.006333,-3.06473 l 2.477888,-2.47789 c 3.535534,-3.53553 2.311695,-9.38276 -1.223839,-5.84723 l -1.254049,1.25405 c -3.535534,3.53554 -3.535534,-3.53553 0,-7.07107 l 1.877067,-1.87706 c 1.073059,-1.07306 -2.650865,-4.42021 -3.723924,-3.34715 l -0.804794,0.8048 m 29.6175,-64.97284 3.150071,-3.15007 c 3.535534,-3.53554 10.294926,-3.22386 6.759392,0.31167 l -0.128793,0.1288 c -3.535534,3.53553 2.560607,4.51046 6.096141,0.97492 l 0.511828,-0.51183 c 3.535534,-3.53553 9.695106,-2.62404 6.159576,0.9115 l -1.535999,1.536 c -3.535534,3.53553 0.896943,6.17412 4.432479,2.63859 l 2.76174,-2.76175 c 3.53553,-3.53553 3.53553,3.53554 0,7.07107 l -1.33667,1.33667 c -3.46508,3.46508 -2.07557,9.14663 1.38951,5.68156 l 2.59881,-2.59881 m 3.36251,67.34816 -9.02643,9.02644 m -50.371497,1.85978 -2.220084,-2.22008 c -2.960112,-2.96011 -2.960112,-10.03118 0,-7.07107 l 8.174187,8.17419 c 3.535534,3.53553 11.7345,4.66343 8.198966,1.1279 L 50.920755,867.33985 c -3.535534,-3.53553 -3.535534,-10.6066 0,-7.07107 l 3.415744,3.41575 m 16.135024,16.13502 3.880017,3.88002 c 3.437941,3.43794 10.36589,3.29482 6.927949,-0.14312 l -0.0074,-0.007 c -3.428097,-3.4281 3.069492,-4.00158 6.497589,-0.57348 l 0,0 c 3.428097,3.42809 9.17994,2.10887 5.751843,-1.31923 l -0.03472,-0.0347 c -3.47439,-3.47439 1.028229,-6.04283 4.502619,-2.56845 l 0.47823,0.47823 c 3.535533,3.53554 7.920563,0.8495 4.385033,-2.68603 l -1.49289,-1.49289 c -3.535538,-3.53554 -1.591864,-8.66293 1.94367,-5.1274 l 3.20129,3.20129 c 3.53553,3.53554 6.36054,-0.71052 2.82501,-4.24606 l -8.12582,-8.12581 M 64.556469,838.54916 53.623174,827.61586 c -3.535534,-3.53553 -5.411404,-12.48247 -1.87587,-8.94694 l 22.084695,22.0847 c 3.535534,3.53553 14.731099,7.66003 11.195565,4.1245 L 51.876389,811.72694 c -3.535534,-3.53553 -2.23398,-9.30505 1.301554,-5.76951 l 58.037347,58.03734 c 3.53553,3.53554 4.65886,-2.4122 1.12333,-5.94773 L 78.923144,824.63156 c -3.535534,-3.53553 7.330912,0.25985 10.866446,3.79538 l 22.80126,22.80126 c 3.53553,3.53553 1.60905,-5.46202 -1.92649,-8.99756 l -11.595197,-11.5952 m -36.189964,-22.04782 -7.252038,-7.25204 c -3.535534,-3.53553 -0.151412,-7.22248 3.384122,-3.68695 l 2.09179,2.09179 c 3.535534,3.53554 6.342899,-0.72817 2.807365,-4.2637 l -0.732103,-0.7321 c -3.49044,-3.49044 1.534172,-5.5369 5.024613,-2.04646 l 0.06311,0.0631 c 3.406294,3.4063 8.930352,1.85929 5.524058,-1.54701 l 0,0 c -3.406294,-3.40629 2.888626,-4.18244 6.29492,-0.77615 l 0.171037,0.17104 c 3.535534,3.53553 11.727555,4.65649 8.192022,1.12095 l -1.383084,-1.38308 c -3.535534,-3.53553 3.949824,-3.12124 7.485358,0.41429 l 11.542671,11.54267 c 3.53553,3.53554 3.53553,10.6066 0,7.07107 l -3.64819,-3.64819 m 6.29984,-7.8423 -8.865688,-8.86568"
           inkscape:connector-curvature="0" />
      </g>
      <g
         id="g4458">
        <path
           id="path4176"
           style="font-style:normal;font-variant:normal;font-weight:bold;font-stretch:normal;font-size:150px;font-family:'Liberation Serif';-inkscape-font-specification:'Liberation Serif Bold';fill:none;stroke:#000000;stroke-opacity:1"
           d="m 334.15875,880.80664 q -4.24804,1.3916 -9.52148,2.63672 -5.2002,1.17187 -10.83985,2.05078 -5.63964,0.87891 -11.35253,1.3916 -5.7129,0.5127 -10.98633,0.5127 -11.64551,0 -21.38672,-3.14942 -9.74121,-3.22265 -16.77246,-9.44824 -6.95801,-6.29883 -10.91309,-15.52734 -3.88183,-9.22852 -3.88183,-21.31348 0,-12.89062 3.80859,-22.48535 3.80859,-9.66797 10.83984,-16.04004 7.1045,-6.44531 17.13867,-9.59473 10.10743,-3.22265 22.5586,-3.22265 6.37207,0 11.57226,0.51269 5.27344,0.5127 9.81446,1.3916 4.54101,0.87891 8.56933,2.05079 4.02832,1.09863 8.12989,2.2705 l 0,22.5586 -6.5918,0 -1.75781,-12.74414 q -2.56348,-1.75782 -5.63965,-3.2959 -3.07617,-1.53809 -6.5918,-2.63672 -3.44238,-1.17188 -7.25098,-1.75781 -3.73535,-0.65918 -7.61718,-0.65918 -7.47071,0 -13.47657,2.12402 -6.00585,2.05078 -10.32714,7.10449 -4.24805,4.98047 -6.5918,13.40332 -2.27051,8.34961 -2.27051,20.87403 0,8.49609 1.31836,14.86816 1.31836,6.37207 3.58887,11.05957 2.27051,4.6875 5.34668,7.83691 3.14941,3.07618 6.66504,4.90723 3.58886,1.83106 7.4707,2.63672 3.88184,0.73242 7.69043,0.73242 4.1748,0 8.42285,-0.65918 4.24805,-0.73242 7.76367,-1.90429 l 0,-28.41797 -12.59765,-1.9043 0,-5.41992 45.26367,0 0,5.41992 -9.59473,1.9043 0,31.93359 z"
           inkscape:connector-curvature="0" />
        <path
           id="path4461"
           style="fill:none;stroke:#000000;stroke-width:1"
           d="m 247.38483,807.81734 10.41264,-10.41264 c 3.53553,-3.53554 14.89501,-7.82395 11.35948,-4.28842 l -24.86974,24.86975 c -3.53554,3.53553 -5.12416,12.19522 -1.58862,8.65968 l 35.55773,-35.55773 c 3.53554,-3.53554 11.28632,-4.21525 7.75079,-0.67972 l -3.68507,3.68507 c -3.53553,3.53553 6.54712,0.52394 10.08266,-3.01159 l 0.68387,-0.68388 c 3.53554,-3.53553 10.30662,-3.23555 6.77109,0.29998 l -0.0539,0.0539 c -3.50322,3.50323 2.92317,4.1479 6.4264,0.64468 l 0,0 c 3.50322,-3.50323 9.61729,-2.54623 6.11406,0.957 l -0.37718,0.37718 c -3.53553,3.53553 1.62221,5.44886 5.15774,1.91332 l 0.90082,-0.90082 c 3.53554,-3.53553 9.12153,-2.05045 5.58599,1.48508 l -1.68496,1.68497 c -3.53554,3.53553 0.74222,6.32884 4.27775,2.79331 l 1.0781,-1.07809 c 3.53553,-3.53554 3.53553,3.53553 0,7.07106 l -0.7314,0.73141 c -2.855,2.85499 -1.61319,8.68425 1.24181,5.82926 l 2.14124,-2.14125 m -63.22831,-0.4113 -24.50931,24.50931 c -3.53554,3.53554 -3.33748,10.40855 0.19806,6.87301 l 18.30266,-18.30266 c 3.53553,-3.53554 2.41522,4.65585 -1.12031,8.19138 l -16.28685,16.28684 c -3.53553,3.53554 -2.06098,9.13205 1.47455,5.59652 l 14.45091,-14.45091 c 3.53553,-3.53553 3.68769,3.38338 0.15216,6.91891 l -12.58622,12.58622 c -3.53554,3.53554 -1.03835,8.10942 2.49719,4.57388 l 10.69057,-10.69057 c 3.53553,-3.53553 4.65153,2.41954 1.11599,5.95507 l -8.87683,8.87683 c -3.53553,3.53554 -0.1746,7.24567 3.36093,3.71014 l 7.15377,-7.15377 c 3.53554,-3.53553 5.70706,1.36401 2.17153,4.89954 l -5.51121,5.51121 c -3.53553,3.53553 0.71137,6.3597 4.2469,2.82417 l 4.01751,-4.01751 c 3.53553,-3.53553 6.93414,0.13693 3.3986,3.67246 l -2.744,2.744 c -3.53553,3.53554 1.56845,5.50262 5.10399,1.96709 l 1.70665,-1.70666 c 3.53554,-3.53553 8.27404,-1.20297 4.7385,2.33257 l -0.79611,0.79611 c -3.53553,3.53554 2.55429,4.51678 6.08983,0.98124 l 0.28416,-0.28416 c 3.53554,-3.53554 9.99338,-2.92231 6.45784,0.61322 l -0.14353,0.14354 c -3.53553,3.53553 3.68085,3.39021 7.21639,-0.14532 l 3.17891,-3.17892 m 2.4362,-37.79153 -1.88017,1.88016 c -2.50688,2.50689 3.63566,3.43542 6.14255,0.92853 l 0.46426,-0.46426 c 3.1259,-3.1259 10.19697,-3.1259 7.07107,0 l -1.63582,1.63581 c -3.53553,3.53554 -3.53553,10.6066 0,7.07107 l 8.39966,-8.39966 c 3.53553,-3.53553 10.6066,-3.53553 7.07107,0 l -15.47073,15.47073 c -3.53553,3.53553 -3.53553,10.6066 0,7.07107 l 25.19345,-25.19345 m -36.08662,43.15768 26.66116,-26.66116 c 3.53553,-3.53553 3.53553,3.53554 0,7.07107 l -15.95057,15.95057 c -3.53554,3.53554 5.04262,2.02845 8.57815,-1.50708 l 8.33751,-8.33751 c 2.24875,-2.24875 2.24875,4.82232 0,7.07106 l -1.68655,1.68656 m -69.13376,-1.89894 -12.31924,-12.31924 c -3.53553,-3.53553 -7.93477,-15.00584 -4.39923,-11.47031 l 25.94808,25.94809 c 3.53554,3.53554 12.44525,5.37418 8.90971,1.83864 l -36.38251,-36.38251 c -3.53553,-3.53553 -3.74186,-10.81293 -0.20633,-7.27739 l 21.78779,21.78778 c 3.53554,3.53554 0.20079,-6.87027 -3.33474,-10.40581 l -18.05447,-18.05447 c -3.53554,-3.53553 -2.58291,-9.65397 0.95262,-6.11844 l 15.94102,15.94102 c 3.53553,3.53553 3.20971,-3.86136 -0.32582,-7.39689 l -14.1232,-14.1232 c -3.53554,-3.53553 -1.53859,-8.60965 1.99695,-5.07412 l 12.50274,12.50274 c 3.53553,3.53553 3.97908,-3.09198 0.44355,-6.62752 l -10.48508,-10.48508 c -3.53554,-3.53553 -0.61669,-7.68775 2.91885,-4.15222 l 8.64168,8.64169 c 3.53553,3.53553 5.12496,-1.94611 1.58943,-5.48164 l -6.85207,-6.85207 c -3.53553,-3.53553 0.29547,-6.7756 3.831,-3.24006 l 5.1878,5.1878 c 3.53554,3.53553 6.29818,-0.7729 2.76264,-4.30843 l -3.6776,-3.6776 c -3.53553,-3.53554 1.18582,-5.88525 4.72135,-2.34972 l 2.37298,2.37298 c 3.53554,3.53553 7.69968,0.62861 4.16414,-2.90693 l -1.31589,-1.3159 c -3.53554,-3.53553 2.10491,-4.96615 5.64044,-1.43062 l 0.65004,0.65004 c 3.53553,3.53553 9.27788,2.20681 5.74234,-1.32872 l -0.29643,-0.29644 c -3.53554,-3.53554 3.03914,-4.03192 6.57468,-0.49639 l 0.25694,0.25695 c 3.53554,3.53553 11.19023,4.11916 7.6547,0.58363 l -0.78317,-0.78318 c -3.53554,-3.53553 3.86333,-3.20773 7.39886,0.3278 l 5.69132,5.69132 m -32.13933,80.99776 6.2104,6.2104 c 3.53554,3.53553 10.47375,3.40268 6.93821,-0.13286 l -0.39327,-0.39328 c -3.39511,-3.39511 3.82994,-3.24112 7.22505,0.15399 l 0.0128,0.0128 c 3.37803,3.37803 9.67697,2.6059 6.29894,-0.77213 l 0,0 c -3.37803,-3.37803 2.40113,-4.66993 5.77916,-1.2919 l 0.30534,0.30533 c 3.53553,3.53553 9.48166,2.41059 5.94612,-1.12494 l -3.82207,-3.82207 c -3.53553,-3.53554 -3.53553,-10.60661 0,-7.07107 l 9.57936,9.57936 c 3.53553,3.53553 9.07311,2.00204 5.53758,-1.53349 l -15.11694,-15.11694 c -3.53553,-3.53553 -3.53553,-10.6066 0,-7.07107 l 15.76799,15.76799 c 3.53553,3.53554 3.53553,-3.53553 0,-7.07107 l -19.2231,-19.2231 c -3.08207,-3.08207 -10.15314,-3.08207 -7.07107,0 l 2.31155,2.31156 m 26.63427,12.49213 -14.46359,-14.46359 c -3.53553,-3.53553 3.53554,-3.53553 7.07107,0 l 4.85042,4.85042 c 3.38946,3.38946 5.50056,-1.57051 2.1111,-4.95997 l -0.58551,-0.58551 c -2.60879,-2.60879 4.46228,-2.60879 7.07107,0 l 1.95659,1.9566 m -16.77112,-37.98433 2.88567,2.88567 c 3.53553,3.53553 3.53553,-3.53554 0,-7.07107 l -12.39222,-12.39221 c -3.53553,-3.53554 5.52819,-1.54289 9.06372,1.99265 l 5.98015,5.98014"
           inkscape:connector-curvature="0" />
      </g>
      <g
         id="g4463">
        <path
           id="path4178"
           style="font-style:normal;font-variant:normal;font-weight:bold;font-stretch:normal;font-size:150px;font-family:'Liberation Serif';-inkscape-font-specification:'Liberation Serif Bold';fill:none;stroke:#000000;stroke-opacity:1"
           d="m 402.49371,864.10742 q 0,5.41992 -1.68457,9.74121 -1.61133,4.32129 -5.05371,7.32422 -3.36914,3.00293 -8.56933,4.61426 -5.2002,1.61133 -12.30469,1.61133 -3.51563,0 -7.10449,-0.43946 -3.58887,-0.43945 -6.66504,-1.02539 -3.07617,-0.65918 -5.41992,-1.24511 -2.27051,-0.65918 -3.22266,-1.02539 l 0,-18.75 4.83398,0 2.78321,9.66796 q 1.09863,1.09864 2.70996,2.19727 1.61133,1.02539 3.58886,1.9043 1.97754,0.8789 4.24805,1.3916 2.27051,0.51269 4.6875,0.51269 6.37207,0 9.44824,-2.70996 3.14942,-2.7832 3.14942,-7.03125 0,-2.34375 -0.95215,-4.02832 -0.87891,-1.68457 -2.85645,-3.00293 -1.97753,-1.31836 -5.05371,-2.49023 -3.00293,-1.17188 -7.25097,-2.49024 -3.51563,-1.09863 -7.03125,-2.70996 -3.51563,-1.68457 -6.29883,-4.32129 -2.70996,-2.63671 -4.46777,-6.51855 -1.68458,-3.88184 -1.68458,-9.52148 0,-4.98047 1.9043,-8.78907 1.97754,-3.80859 5.34668,-6.37207 3.36914,-2.63672 7.91016,-3.95508 4.54101,-1.3916 9.74121,-1.3916 5.12695,0 10.2539,0.65918 5.2002,0.65918 10.03418,1.46485 l 0,17.65136 -4.83398,0 -2.34375,-8.05664 q -0.95215,-0.95215 -2.41699,-1.83105 -1.46485,-0.87891 -3.2959,-1.53809 -1.75781,-0.65918 -3.73535,-1.02539 -1.97754,-0.43945 -3.8086,-0.43945 -5.27343,0 -7.83691,2.19726 -2.49023,2.12403 -2.49023,5.85938 0,2.41699 1.02539,4.10156 1.09863,1.68457 3.14941,3.00293 2.12402,1.31836 5.05371,2.41699 3.00293,1.09864 6.88477,2.27051 4.02832,1.24512 7.61718,3.00293 3.58887,1.68457 6.22559,4.32129 2.70996,2.56348 4.24805,6.15234 1.53808,3.58887 1.53808,8.64258 z"
           inkscape:connector-curvature="0" />
        <path
           id="path4466"
           style="fill:none;stroke:#000000;stroke-width:1"
           d="m 363.03731,819.44408 -5.21813,5.21812 c -3.53553,3.53554 -5.34224,12.41332 -1.80671,8.87778 l 14.46921,-14.4692 c 3.36245,-3.36245 10.62918,-3.55812 7.26673,-0.19567 l -0.0317,0.0317 c -3.32019,3.32019 3.33321,3.73786 6.6534,0.41767 l 0,0 c 3.32019,-3.32019 9.49049,-2.41942 6.17029,0.90078 l -0.80852,0.80852 c -3.50138,3.50138 0.65393,6.41714 4.15531,2.91575 l 0.79674,-0.79674 c 2.43907,-2.43906 2.43907,4.63201 0,7.07107 l -1.8293,1.8293 m -27.03133,-1.25294 -8.9617,8.9617 c -3.53553,3.53554 -1.42453,8.4956 2.111,4.96007 l 6.18189,-6.18189 c 3.53554,-3.53554 7.62311,-0.55204 4.08758,2.98349 l -7.13453,7.13453 c -3.53553,3.53553 0.57337,6.4977 4.1089,2.96216 l 7.92856,-7.92856 c 3.53554,-3.53553 8.90673,-1.83566 5.3712,1.69987 l -8.42273,8.42273 c -3.53553,3.53554 1.61209,5.45898 5.14762,1.92345 l 8.40507,-8.40507 c 3.53553,-3.53553 8.25983,-1.18877 4.7243,2.34677 l -7.86595,7.86595 c -3.53553,3.53553 1.3055,5.76557 4.84103,2.23003 l 7.04776,-7.04775 c 3.53553,-3.53554 6.56498,0.50608 3.02945,4.04162 l -6.33715,6.33714 c -3.53553,3.53554 -2.09929,9.17037 1.43624,5.63483 l 6.84337,-6.84337 c 3.53554,-3.53553 3.85423,3.21684 0.3187,6.75237 l -14.83941,14.83941 c -3.35338,3.35338 -10.75714,3.68607 -7.40376,0.33269 l 0.18987,-0.18987 c 3.10022,-3.10021 -3.88946,-3.18161 -6.98967,-0.0814 l 0,0 c -3.10021,3.10022 -9.22152,2.15046 -6.12131,-0.94975 l 0.27055,-0.27055 c 3.46094,-3.46094 -1.1293,-5.94177 -4.59024,-2.48083 l -1.11716,1.11716 c -3.47212,3.47212 -5.48152,-1.58955 -2.0094,-5.06167 l 0.7903,-0.7903 c 2.41839,-2.41839 0.8378,-7.90886 -1.5806,-5.49047 l -1.81379,1.8138 m 46.47309,3.02438 -8.4725,8.4725 m -33.8758,1.16403 -2.06239,-2.0624 c -2.74987,-2.74986 -2.74987,-9.82093 0,-7.07107 l 8.09981,8.09982 c 3.53553,3.53553 11.46897,4.3979 7.93343,0.86236 l -2.0868,-2.0868 c -3.21829,-3.2183 5.73681,-1.33426 8.9551,1.88403 l 0.18339,0.1834 c 2.97377,2.97376 8.81613,1.74506 5.84237,-1.22871 l 0,0 c -2.97377,-2.97376 1.21716,-5.85391 4.19092,-2.88014 l 0.38607,0.38607 c 3.48853,3.48852 7.51579,0.44472 4.02727,-3.04381 l -4.33046,-4.33045 m -30.96922,-2.68495 -4.21367,-4.21367 m 10.59581,-10.61739 -6.69994,-6.69995 c -3.53554,-3.53553 -4.85886,-11.92992 -1.32332,-8.39438 l 18.56521,18.56521 m 24.02488,16.95382 -42.14899,-42.149 c -3.53554,-3.53553 -1.37692,-8.44798 2.15862,-4.91245 l 39.29086,39.29086 c 3.53553,3.53554 4.3424,-2.72867 0.80686,-6.2642 l -17.31599,-17.31599 c -3.53553,-3.53553 7.7498,0.67873 11.28533,4.21426 l 7.2251,7.22509 m -34.13854,-27.06747 -4.19323,-4.19322 c -3.12434,-3.12434 1.04574,-6.02533 4.17008,-2.90099 l 0.24827,0.24826 c 2.79332,2.79333 7.46899,0.39793 4.67566,-2.3954 l 0,0 c -2.79332,-2.79332 3.2992,-3.77187 6.09252,-0.97855 l 3.32552,3.32553 m 1.62709,-5.44399 12.03988,12.03988 c 3.53553,3.53554 3.53553,-3.53553 0,-7.07106 l -4.11649,-4.11649"
           inkscape:connector-curvature="0" />
      </g>
      <g
         id="g4468">
        <path
           id="path4174"
           style="font-style:normal;font-variant:normal;font-weight:bold;font-stretch:normal;font-size:150px;font-family:'Liberation Serif';-inkscape-font-specification:'Liberation Serif Bold';fill:none;stroke:#000000;stroke-opacity:1"
           d="m 229.42242,787.71582 0,5.34668 -9.30175,1.97754 -37.93946,93.16406 -9.74121,0 -39.91699,-93.16406 -8.05664,-1.97754 0,-5.34668 42.70019,0 0,5.34668 -10.18066,1.97754 27.61231,64.37988 25.78125,-64.37988 -9.8877,-1.97754 0,-5.34668 28.93066,0 z"
           inkscape:connector-curvature="0" />
        <path
           id="path4471"
           style="fill:none;stroke:#000000;stroke-width:1"
           d="m 132.13606,788.71582 -2.08742,2.08741 c -2.78321,2.78322 2.64812,4.42295 5.43134,1.63974 l 1.07549,-1.0755 c 3.53554,-3.53553 10.60661,-3.53553 7.07107,0 l -5.46139,5.4614 c -3.53554,3.53553 -1.41461,8.48567 2.12093,4.95013 l 10.41153,-10.41153 c 3.53553,-3.53553 10.6066,-3.53553 7.07107,0 l -15.36167,15.36167 c -3.53553,3.53553 -1.4146,8.48567 2.12093,4.95014 l 10.29987,-10.29987 c 3.53553,-3.53553 5.65798,1.41309 2.12244,4.94862 l -10.30138,10.30138 c -3.53553,3.53554 -1.4146,8.48567 2.12093,4.95014 l 10.3029,-10.3029 c 3.53553,-3.53553 5.65798,1.41309 2.12245,4.94862 l -10.30441,10.30442 c -3.53554,3.53553 -1.41461,8.48567 2.12093,4.95013 l 10.30592,-10.30592 c 3.53554,-3.53554 5.65799,1.41308 2.12245,4.94862 l -10.30744,10.30744 c -3.53553,3.53553 -1.4146,8.48567 2.12093,4.95014 l 10.30896,-10.30896 c 3.53553,-3.53554 5.65798,1.41308 2.12245,4.94862 l -10.31048,10.31047 c -3.53553,3.53554 -1.4146,8.48567 2.12093,4.95014 l 10.31199,-10.31199 c 3.53554,-3.53553 5.65798,1.41309 2.12245,4.94862 l -10.31351,10.31351 c -3.53553,3.53553 -1.4146,8.48567 2.12093,4.95013 l 10.31502,-10.31502 c 3.53554,-3.53553 5.65799,1.41309 2.12245,4.94862 l -10.31653,10.31654 c -3.53554,3.53553 -1.41461,8.48567 2.12093,4.95014 l 10.31805,-10.31805 c 3.53553,-3.53554 11.37727,2.76486 7.84173,6.3004 l -13.91792,13.91792 c -3.53554,3.53553 -0.0357,7.10679 3.49981,3.57126 l 8.21192,-8.21192 m -22.49328,-83.57275 2.72713,-2.72712 m 36.68018,-1.32484 -0.67749,0.67749 c -0.90332,0.90332 3.17932,3.89174 4.08264,2.98843 l 1.49421,-1.49422 c 2.8956,-2.8956 9.96667,-2.8956 7.07107,0 l -0.90712,0.90712 c -3.53553,3.53553 -7.53125,14.60232 -3.99572,11.06679 l 13.61961,-13.61961 c 0.70133,-0.70133 5.06381,2.00725 4.36248,2.70858 l -0.526,0.526 m -12.29065,12.29066 -9.88843,9.88843 c -3.53553,3.53553 -8.25852,15.32959 -4.72299,11.79405 l 7.10192,-7.10192 c 3.53554,-3.53554 -1.32231,8.39338 -4.85784,11.92891 l -6.96707,6.96707 c -3.53554,3.53554 -8.25853,15.32959 -4.72299,11.79406 l 6.83222,-6.83222 c 3.53553,-3.53553 -1.32231,8.39338 -4.85785,11.92891 l -23.54835,23.54835 m 0.8387,1.95747 3.91228,3.91228 c 3.53554,3.53553 8.89162,1.82055 5.35608,-1.71499 l -11.91758,-11.91758 c -3.53554,-3.53553 -8.8364,-15.90747 -5.30087,-12.37194 l 19.26472,19.26472 c 3.53553,3.53553 5.5818,-1.48927 2.04626,-5.0248 l -26.61185,-26.61185 c -3.53553,-3.53554 -8.8364,-15.90747 -5.30087,-12.37194 l 33.95899,33.95898 c 3.53553,3.53554 5.58179,-1.48927 2.04626,-5.0248 l -41.30612,-41.30612 c -3.53553,-3.53553 -8.8364,-15.90747 -5.30087,-12.37193 l 33.72964,33.72963 c 3.53553,3.53554 -1.77481,-8.84588 -5.31035,-12.38141 l -39.04094,-39.04095 c -3.53554,-3.53553 3.53553,-3.53553 7.07107,0 l 26.65953,26.65953 c 3.53553,3.53554 -1.77481,-8.84588 -5.31035,-12.38141 L 144.654,791.36747 c -3.53553,-3.53553 3.53554,-3.53553 7.07107,0 l 2.25864,2.25864 c 3.05296,3.05296 7.50346,0.43239 4.4505,-2.62057 l -0.81422,-0.81422 c -1.96734,-1.96733 5.10373,-1.96733 7.07107,0 l 1.4755,1.47551 m 21.17244,63.59884 2.54971,2.54971 c 3.39962,3.39962 5.44588,-1.62518 2.04627,-5.0248 l -0.0122,-0.0122 c -3.41583,-3.41583 -1.39388,-8.46495 2.02195,-5.04912 l 0.0121,0.0122 c 3.43204,3.43204 5.47831,-1.59276 2.04627,-5.0248 l -0.0122,-0.0122 c -3.44825,-3.44825 -1.42631,-8.49738 2.02195,-5.04912 l 0.0122,0.0122 c 3.46446,3.46446 5.51072,-1.56034 2.04626,-5.02481 l -0.0122,-0.0122 c -3.48068,-3.48067 -1.45873,-8.52979 2.02195,-5.04912 l 0.0122,0.0122 c 3.49689,3.49689 5.54315,-1.52791 2.04626,-5.0248 l -0.0122,-0.0122 c -3.5131,-3.5131 -1.49115,-8.56222 2.02195,-5.04912 l 0.0122,0.0122 c 3.52931,3.52931 5.57558,-1.49549 2.04626,-5.0248 l -0.0196,-0.0197 c -3.53553,-3.53553 -1.51359,-8.58465 2.02195,-5.04912 l 0.0393,0.0393 c 3.53554,3.53553 5.5818,-1.48927 2.04627,-5.02481 l -0.0636,-0.0636 c -3.53553,-3.53553 -0.40291,-14.54505 3.13262,-11.00952 l 1.02354,1.02354 c 3.53553,3.53553 1.48926,8.56033 -2.04627,5.0248 l -6.48432,-6.48432 c -2.95422,-2.95422 11.18791,-2.95422 14.14213,0 l 1.43204,1.43204 c 1.04484,1.04483 5.25183,-1.81924 4.20699,-2.86408 l -0.78362,-0.78363"
           inkscape:connector-curvature="0" />
      </g>
    </g>
    <g
       transform="translate(-1.6947176,14.501914)"
       style="font-style:normal;font-weight:normal;font-size:40px;line-height:125%;font-family:sans-serif;letter-spacing:0px;word-spacing:0px;fill:none;fill-opacity:1;stroke:#000000;stroke-width:1px;stroke-linecap:butt;stroke-linejoin:miter;stroke-opacity:1"
       id="text4144-6">
      <path
         inkscape:connector-curvature="0"
         d="m 104.46,670.21071 c -2.34,1.44 -4.14,2.7 -5.039998,3.24 -9.9,6.84 -14.94,9.72 -16.56,9.72 -1.44,0 -2.52,-1.98 -2.52,-4.68 0,-5.94 15.12,-71.1 18.9,-82.26 3.959998,-10.8 7.919998,-14.94 14.399998,-14.94 2.34,0 4.14,0.36 8.28,1.44 l 6.3,-10.08 c -2.7,-0.54 -4.14,-0.72 -5.76,-0.72 -4.32,0 -6.66,0.72 -10.8,3.06 -4.5,2.52 -10.62,7.2 -15.659998,11.88 -8.82,8.46 -9.36,9.72 -14.04,28.26 -0.18,0.72 -0.72,3.06 -1.44,5.76 -3.24,-0.72 -5.94,-1.08 -7.38,-1.08 -5.58,0 -21.06,9.72 -28.26,17.64 -6.12,7.02 -14.22,32.4 -14.22,44.82 0,6.84 3.6,13.86 6.84,13.86 3.42,0 11.34,-4.86 30.24,-18.54 -0.9,4.5 -1.44,9.72 -1.44,12.96 0,3.6 1.44,5.58 3.96,5.58 2.88,0 18.54,-9.54 33.479998,-20.34 l 0.72,-5.58 z m -35.279998,0.72 c -15.3,10.8 -19.26,13.14 -21.78,13.14 -2.52,0 -3.78,-2.7 -3.78,-7.92 0,-5.94 1.08,-12.78 3.24,-20.7 5.22,-18.18 12.24,-27.18 21.42,-27.18 3.24,0 5.58,1.26 9.36,4.86 l -8.46,37.8 z"
         style="font-style:italic;font-variant:normal;font-weight:500;font-stretch:normal;font-size:180px;font-family:'URW Chancery L';-inkscape-font-specification:'URW Chancery L Medium Italic';fill:none;stroke:#000000;stroke-opacity:1"
         id="path4181-6" />
      <path
         inkscape:connector-curvature="0"
         d="m 110.30156,695.59071 13.86,-5.22 13.5,-51.3 c 6.12,-4.5 10.26,-6.3 15.12,-6.3 3.96,0 6.3,1.44 9.54,5.58 l 5.4,-17.1 c -3.42,-1.08 -4.86,-1.44 -6.66,-1.44 -3.24,0 -7.02,1.62 -11.88,5.04 l -10.62,7.74 c 0.18,-1.44 0.54,-2.34 0.54,-2.88 1.44,-5.94 1.62,-7.02 1.62,-7.92 0,-1.08 -1.08,-1.98 -2.34,-1.98 -2.34,0 -18.18,7.74 -29.16,14.4 l -0.54,4.86 c 9.72,-5.04 10.8,-5.4 12.96,-5.4 2.34,0 3.42,1.26 3.42,3.78 0,2.52 -1.8,10.98 -3.96,18.72 l -10.8,39.42 z"
         style="font-style:italic;font-variant:normal;font-weight:500;font-stretch:normal;font-size:180px;font-family:'URW Chancery L';-inkscape-font-specification:'URW Chancery L Medium Italic';fill:none;stroke:#000000;stroke-opacity:1"
         id="path4183-7" />
      <path
         inkscape:connector-curvature="0"
         d="m 236.80219,670.39071 c -13.5,9 -16.2,10.62 -18,10.62 -1.26,0 -2.16,-1.44 -2.16,-3.6 0,-4.68 4.32,-24.48 10.8,-48.42 1.98,-2.7 2.34,-3.24 5.22,-6.48 -8.64,-1.98 -14.94,-2.7 -22.68,-2.7 -7.38,0 -10.8,0.72 -15.48,3.6 -6.48,3.78 -14.04,9.36 -16.38,11.88 -6.66,7.56 -14.22,31.86 -14.22,46.44 0,8.64 2.88,14.4 7.38,14.4 3.96,0 9.9,-3.6 32.4,-19.8 -1.8,8.28 -2.7,13.86 -2.7,16.02 0,2.34 1.08,3.78 2.88,3.78 2.16,0 2.16,0 16.56,-9.18 5.22,-3.42 9.36,-6.3 16.2,-11.34 l 0.18,-5.22 z m -35.1,1.08 c -10.62,7.74 -16.02,10.8 -19.26,10.8 -2.88,0 -4.68,-3.24 -4.68,-9 0,-9 2.88,-21.24 7.38,-31.5 4.32,-9.9 8.28,-13.68 14.4,-13.68 3.24,0 8.82,0.9 15.3,2.34 -3.6,13.68 -4.86,17.82 -5.04,18.72 -1.08,4.5 -1.98,9 -3.06,13.68 -0.18,0.9 -0.72,3.06 -1.62,6.3 l -3.42,2.34 z"
         style="font-style:italic;font-variant:normal;font-weight:500;font-stretch:normal;font-size:180px;font-family:'URW Chancery L';-inkscape-font-specification:'URW Chancery L Medium Italic';fill:none;stroke:#000000;stroke-opacity:1"
         id="path4185-3" />
      <path
         inkscape:connector-curvature="0"
         d="m 242.54813,656.35071 c 3.42,-8.64 4.32,-10.98 5.58,-13.32 2.88,-4.68 6.12,-6.84 10.62,-6.84 0.9,0 3.24,0 5.94,0.18 1.44,0.18 3.06,0.18 4.68,0.18 3.78,0 5.04,-0.18 8.28,-1.44 l -6.12,6.84 c -7.74,8.46 -10.26,11.7 -13.5,17.64 -4.68,8.46 -7.56,18 -7.56,25.56 0,6.48 3.96,10.98 9.72,10.98 9.36,0 19.98,-7.56 34.92,-24.48 -1.98,5.94 -2.7,9.54 -2.7,14.22 0,6.48 3.6,10.26 9.72,10.26 22.68,0 57.96,-43.92 57.96,-72.36 0,-4.86 -1.44,-7.92 -4.5,-9.9 -4.5,1.26 -6.12,1.8 -12.6,4.68 1.8,4.68 2.34,7.74 2.34,12.6 0,11.88 -4.5,25.92 -11.88,37.44 -6.3,9.72 -15.48,17.28 -21.06,17.28 -3.6,0 -6.12,-3.42 -6.12,-8.28 0,-7.74 2.7,-17.1 14.58,-52.74 -4.86,1.62 -6.84,2.16 -13.32,3.78 -1.08,3.42 -1.8,5.94 -2.34,7.56 -6.48,21.6 -8.28,25.56 -13.86,32.76 -6.84,9 -16.56,16.02 -22.14,16.02 -3.06,0 -4.86,-3.06 -4.86,-7.92 0,-7.74 3.06,-17.82 8.1,-27 4.5,-7.74 8.46,-12.78 18.54,-22.86 l 0,-1.8 c 0,-0.36 0,-0.72 -0.18,-1.44 l -1.98,0 c -2.88,2.16 -4.32,2.52 -7.38,2.52 -5.22,0 -16.02,-0.18 -20.52,-0.36 -1.98,-0.18 -3.6,-0.18 -4.86,-0.18 -3.06,0 -5.04,0.54 -6.12,1.8 -2.7,2.7 -6.3,10.98 -10.44,24.3 l 3.06,4.32 z"
         style="font-style:italic;font-variant:normal;font-weight:500;font-stretch:normal;font-size:180px;font-family:'URW Chancery L';-inkscape-font-specification:'URW Chancery L Medium Italic';fill:none;stroke:#000000;stroke-opacity:1"
         id="path4187-4" />
      <path
         inkscape:connector-curvature="0"
         d="m 353.91188,678.85071 c -0.18,1.62 -0.36,3.06 -0.36,4.14 0,7.74 5.4,13.14 13.32,13.14 5.58,0 13.32,-2.34 19.08,-5.58 10.62,-6.12 17.1,-15.3 17.1,-24.3 0,-6.66 -1.26,-8.1 -11.34,-14.4 -6.12,-3.96 -8.64,-7.38 -8.64,-12.06 0,-6.12 5.22,-11.52 11.34,-11.52 4.14,0 7.2,1.98 11.16,7.02 6.12,-5.94 6.12,-5.94 8.46,-9.36 -3.6,-4.32 -7.02,-6.12 -12.06,-6.12 -13.14,0 -30.06,15.66 -30.06,27.54 0,5.58 2.88,9.9 9.72,14.76 9,6.3 10.26,7.92 10.26,12.42 0,6.48 -8.28,14.04 -15.3,14.04 -3.96,0 -7.02,-2.16 -8.82,-6.12 -1.26,-2.7 -1.62,-5.4 -1.8,-11.52 -1.98,1.44 -3.42,2.34 -4.14,2.88 -1.44,0.9 -3.06,1.8 -4.68,2.88 l -3.24,2.16 z"
         style="font-style:italic;font-variant:normal;font-weight:500;font-stretch:normal;font-size:180px;font-family:'URW Chancery L';-inkscape-font-specification:'URW Chancery L Medium Italic';fill:none;stroke:#000000;stroke-opacity:1"
         id="path4189-0" />
    </g>
  </g>
</svg>
