<?xml version="1.0" encoding="UTF-8" standalone="no"?>
<svg
   xmlns:dc="http://purl.org/dc/elements/1.1/"
   xmlns:cc="http://creativecommons.org/ns#"
   xmlns:rdf="http://www.w3.org/1999/02/22-rdf-syntax-ns#"
   xmlns:svg="http://www.w3.org/2000/svg"
   xmlns="http://www.w3.org/2000/svg"
   xmlns:sodipodi="http://sodipodi.sourceforge.net/DTD/sodipodi-0.dtd"
   xmlns:inkscape="http://www.inkscape.org/namespaces/inkscape"
   version="1.1"
   id="Layer_1"
   x="0px"
   y="0px"
   viewBox="555.5346 -2.4019 450.00001 450.00001"
   enable-background="new 555.5346 -2.4019 1422.4655 1587.9749"
   xml:space="preserve"
   inkscape:version="0.91 r13725"
   sodipodi:docname="kitten.svg"
   width="5in"
   height="5in"><sodipodi:namedview
     pagecolor="#ffffff"
     bordercolor="#666666"
     borderopacity="1"
     objecttolerance="10"
     gridtolerance="10"
     guidetolerance="10"
     inkscape:pageopacity="0"
     inkscape:pageshadow="2"
     inkscape:window-width="1975"
     inkscape:window-height="1201"
     id="namedview4140"
     showgrid="false"
     units="in"
     inkscape:zoom="2"
     inkscape:cx="235.15958"
     inkscape:cy="258.83813"
     inkscape:window-x="0"
     inkscape:window-y="36"
     inkscape:window-maximized="0"
     inkscape:current-layer="Layer_1" /><metadata
     id="metadata4144"><rdf:RDF><cc:Work
         rdf:about=""><dc:format>image/svg+xml</dc:format><dc:type
           rdf:resource="http://purl.org/dc/dcmitype/StillImage" /><dc:title></dc:title></cc:Work></rdf:RDF></metadata><defs
     id="defs4142" /><g
     style="fill:none;stroke:#000000;stroke-width:8;stroke-miterlimit:4;stroke-dasharray:none;stroke-opacity:1"
     transform="matrix(0.2275,0,0,0.2275,451.53966,19.163253)"
     id="g4064"><g
       id="g5639"><path
         style="fill:none;stroke:#000000;stroke-width:8;stroke-miterlimit:4;stroke-dasharray:none;stroke-opacity:1"
         inkscape:connector-curvature="0"
         id="path4086"
         d="m 1099.6058,554.0958 c 12.0668,15.8907 26.2588,28.0433 41.5375,38.9763 42.1234,30.143 89.3621,48.9858 139.1875,61.6036 20.6406,5.2272 41.7382,8.6476 62.6204,12.9272 1.4032,0.2879 2.741,0.8948 4.1772,2.8853 -14.1462,2.6851 -28.2345,5.7306 -42.4487,7.9866 -40.4329,6.4169 -80.9656,7.7439 -121.2573,-0.6819 -69.1295,-14.457 -122.0149,-51.179 -154.0505,-115.2058 -7.7184,-15.4274 -9.2495,-13.2616 6.7188,-24.5568 20.4493,-14.4653 43.9791,-21.9861 68.0885,-27.5336 41.3607,-9.5176 83.3977,-11.5392 125.9043,-9.8665 -44.6102,14.4499 -89.8839,27.2189 -130.4777,53.4656 z" /><path
         inkscape:connector-curvature="0"
         id="path5642"
         style="fill:none;stroke:#000000;stroke-width:8"
         d="m 1078.4628,521.90857 -32.4951,32.49511 c -14.1421,14.14213 -3.8754,32.15966 10.2668,18.01753 l 49.5137,-49.51371 c 14.1421,-14.14213 47.5343,-19.25002 33.3921,-5.10789 l -14.5725,14.57259 c -9.7656,9.76552 38.7336,-10.44939 48.4991,-20.2149 l 7.3242,-7.32414 m -122.7781,94.49378 30.0232,-30.02319 c 14.1422,-14.14214 27.537,0.74731 13.3948,14.88945 l -19.4946,19.49461 c -14.1421,14.14214 0.5639,27.72044 14.706,13.57831 l 19.9597,-19.95974 c 14.1422,-14.14214 30.2188,-1.93453 16.0767,12.20761 l -19.8972,19.89716 c -14.1421,14.14214 3.4731,24.81119 17.6152,10.66906 l 19.6065,-19.60644 c 14.1421,-14.14214 32.0188,-3.73453 17.8766,10.4076 l -18.3502,18.35026 c -14.1421,14.14214 6.5687,21.7156 20.7108,7.57346 l 16.6031,-16.60311 c 14.1421,-14.14213 33.8992,-5.61487 19.757,8.52726 l -13.8855,13.88547 c -14.1421,14.14214 10.2027,18.08164 24.3448,3.93951 l 10.0458,-10.04582 c 14.1422,-14.14214 35.7194,-7.43513 21.5773,6.70701 l -5.9622,5.96216 c -13.3345,13.33452 15.2342,13.05008 28.5687,-0.28444 l 3.9722,-3.97217 c 8.0383,-8.0383 31.2522,-2.96794 23.2139,5.07036 l -6.0287,6.02873 m -170.608,-24.32253 -76.9188,-76.91886 c -14.1422,-14.14214 -9.1391,-37.42328 5.0031,-23.28114 l 107.4906,107.49065 c 14.1422,14.14214 49.5338,21.24951 35.3917,7.10738 l -124.9017,-124.9017 c -14.1422,-14.14214 5.9526,-22.33163 20.0948,-8.18949 l 4.2949,4.29493 c 14.1421,14.14213 32.3101,4.02579 18.1679,-10.11634 l -2.492,-2.49198 c -11.5999,-11.59996 11.8795,-16.40483 23.4795,-4.80486 l 2.3603,2.36034 c 8.4528,8.45285 28.322,0.0377 19.8692,-8.41511 l -2.5292,-2.52921 c -5.0806,-5.08057 20.8405,-7.44368 25.9211,-2.36311 l 3.8104,3.81042 m -8.6984,104.43861 51.4511,51.45116 c 14.1422,14.14214 42.0346,13.75031 27.8925,-0.39183 l -16.9545,-16.95448 c -14.1422,-14.14213 28.0652,-0.21903 42.2074,13.92311 l 6.7517,6.75175 c 6.1225,6.12251 30.7994,2.51508 24.6768,-3.60743 l -4.5918,-4.59189" /></g><g
       id="g5644"><path
         style="fill:none;stroke:#000000;stroke-width:8;stroke-miterlimit:4;stroke-dasharray:none;stroke-opacity:1"
         inkscape:connector-curvature="0"
         id="path4080"
         d="m 686.5946,1218.2211 c 24.2613,-7.1395 48.5378,-13.5889 72.3211,-21.5183 16.938,-5.6467 32.4964,-14.4799 45.0569,-27.6582 15.756,-16.5308 18.4608,-36.6985 7.7089,-56.7666 -1.1592,-2.1639 -2.6609,-4.1436 -3.9479,-6.1239 -1.0518,0.4283 -1.7432,0.4875 -1.8888,0.8014 -12.6425,27.174 -35.6238,40.1464 -63.6519,45.54 -33.4116,6.4296 -66.1266,1.25 -98.7151,-8.1335 9.9911,-2.0216 20.0299,-3.8341 29.9645,-6.1055 27.4065,-6.265 53.8031,-15.1643 77.1638,-31.3486 24.9641,-17.2946 42.0922,-39.5387 43.9575,-71.1656 0.0401,-0.6782 0.5123,-1.3308 0.7709,-1.9657 0.6381,0.038 1.2971,-0.1309 1.5933,0.1233 25.953,22.2854 48.3611,47.2628 59.2146,80.5658 10.8694,33.3512 -0.1017,60.3076 -25.5145,82.4539 -6.8281,5.9504 -14.5097,10.9222 -23.4153,17.5444 33.6371,3.2266 64.1724,-3.093 94.004,-14.1602 29.9473,-11.1096 57.2178,-27.1117 84.1304,-45.5248 -1.5297,4.3108 -2.7435,8.7659 -4.6381,12.9102 -20.3127,44.4354 -55.2095,70.3999 -102.515,80.4215 -36.8174,7.7998 -73.5076,4.823 -109.5344,-3.9517 -26.0801,-6.3522 -51.472,-15.5387 -77.1492,-23.5292 -1.8429,-0.5734 -3.5105,-1.7078 -4.9157,-2.4087 z" /><path
         inkscape:connector-curvature="0"
         id="path5647"
         style="fill:none;stroke:#000000;stroke-width:8"
         d="m 688.03617,1138.6094 -4.7504,4.7504 c -6.33387,6.3339 19.28245,9.0018 25.61631,2.668 l 23.55352,-23.5535 m 57.30945,-57.3095 8.42078,-8.4208 c 11.22772,-11.2277 25.07133,3.213 13.84362,14.4407 l -67.60737,67.6074 c -14.14214,14.1421 28.36521,-0.081 42.50735,-14.2231 l 35.44514,-35.4452 c 14.14214,-14.1421 25.07336,3.2109 10.93123,17.3531 l -3.63451,3.6345 c -14.14214,14.1421 -12.53497,40.8192 1.60716,26.6771 l 10.45689,-10.4569 c 14.14214,-14.1421 18.24903,10.0352 4.1069,24.1774 l -76.13006,76.13 c -14.14214,14.1422 -36.10319,7.819 -21.96106,-6.3232 l 13.74203,-13.742 c 14.14214,-14.1421 48.2412,8.3273 34.09906,22.4695 l -3.07502,3.075 c -14.14214,14.1421 10.24613,18.0381 24.38826,3.896 l 6.42645,-6.4264 c 14.14213,-14.1422 47.05006,-18.7658 32.90792,-4.6237 l -12.66007,12.6601 c -14.14214,14.1421 16.1937,12.0906 30.33583,-2.0516 l 33.54868,-33.5487 m -177.44854,7.743 -14.42001,14.42 m 127.54035,-42.6876 -11.03192,11.032 m 65.64312,47.4939 66.81822,-66.8182 m -224.81718,58.465 -9.54738,-9.5474 c -12.72985,-12.7298 8.95717,-19.327 21.68702,-6.5972 l 15.8863,15.8863 c 14.14213,14.1421 47.58815,19.3039 33.44601,5.1617 l -26.86101,-26.861 c -14.14213,-14.1421 5.22816,-23.0561 19.3703,-8.9139 l 0.23172,0.2317 c 13.99617,13.9961 30.16534,1.8811 16.16918,-12.1151 l 0,0 c -13.99617,-13.9962 -0.69661,-28.9809 13.29955,-14.9847 l 1.79565,1.7956 c 14.14213,14.1421 26.20459,-2.0797 12.06246,-16.2218 l -15.60869,-15.6087 m -136.10176,5.3196 -3.96013,-3.9601 c -5.28017,-5.2802 16.87743,-11.4069 22.1576,-6.1267 l 4.13958,4.1396 c 10.79962,10.7996 36.25798,7.9737 25.45836,-2.8259 l -2.39117,-2.3912 c -13.98784,-13.9878 4.99424,-23.29 18.98208,-9.3022 l 2.57814,2.5782 c 14.14213,14.1421 32.2132,3.9289 18.07106,-10.2133 l -3.36227,-3.3622 c -14.14214,-14.1422 1.14961,-27.1347 15.29174,-12.9926 l 1.91953,1.9196 c 14.14213,14.1421 72.16553,15.597 58.02339,1.4548 l -37.82748,-37.8275 c -14.14214,-14.1421 -23.4627,4.8216 -9.32056,18.9638 l 60.0943,60.0942 m -43.91425,69.2229 18.93782,18.9378 c 14.14214,14.1421 39.96603,11.6818 25.82389,-2.4604 l -6.05784,-6.0578 c -14.14214,-14.1422 10.64089,-17.6434 24.78302,-3.5013 l 4.68031,4.6803 c 14.14213,14.1422 34.85732,6.5731 20.71518,-7.569 l -2.85527,-2.8553 c -14.14214,-14.1422 6.82517,-21.4591 20.9673,-7.317 l 1.9354,1.9354 c 11.57402,11.574 27.47058,-0.8137 15.89657,-12.3877 l -2.50569,-2.5057 c -8.2331,-8.2331 10.50023,-17.784 18.73333,-9.5509 l 3.19615,3.1961 c 3.97157,3.9716 15.3629,-12.9213 11.39133,-16.8929 l -2.97868,-2.9787 m -152.31471,-124.0304 -12.2334,-12.2334" /></g><g
       id="g5649"><path
         style="fill:none;stroke:#000000;stroke-width:8;stroke-miterlimit:4;stroke-dasharray:none;stroke-opacity:1"
         inkscape:connector-curvature="0"
         id="path4076"
         d="m 1436.7073,620.047 c 3.7382,3.5004 5.8933,5.4821 8.0089,7.5049 47.041,44.973 97.2465,85.7459 155.6412,115.3138 33.1814,16.8014 67.7052,29.463 105.812,26.9514 10.2727,-0.6768 20.4253,-3.1878 31.7458,-5.0391 -2.2987,2.124 -4.0789,3.9886 -6.0756,5.5812 -31.7084,25.2985 -68.1266,31.1631 -107.2076,25.8151 -30.0599,-4.1132 -58.0986,-14.3699 -84.944,-28.1964 -1.7668,-0.9101 -3.5514,-1.7839 -6.4158,-3.2202 15.4263,94.2703 -0.7988,177.6501 -77.7821,243.4686 0.2638,-2.7023 0.1132,-3.6142 0.4512,-4.2784 19.1167,-37.5515 25.627,-78.0021 26.839,-119.4988 1.7941,-61.4428 -7.5292,-121.645 -22.3082,-181.0394 -6.4969,-26.11 -14.6597,-51.8056 -22.0687,-77.6888 -0.3336,-1.1642 -0.6926,-2.3203 -1.6961,-5.6739 z" /><path
         inkscape:connector-curvature="0"
         id="path5652"
         style="fill:none;stroke:#000000;stroke-width:8"
         d="m 1451.9198,657.56847 4.7096,-4.7096 c 6.2795,-6.27948 21.0631,7.22122 14.7836,13.5007 l -4.3015,4.30145 c -12.0147,12.01475 -5.8956,34.17988 6.1192,22.16514 l 7.7745,-7.77454 c 14.1422,-14.14213 29.7375,-1.45323 15.5954,12.68891 l -16.6154,16.61542 c -14.1422,14.14214 -9.0204,37.30462 5.1218,23.16248 l 27.5639,-27.56391 c 14.1421,-14.14214 30.8058,-2.52153 16.6636,11.6206 l -40.2386,40.23863 c -14.1421,14.14214 -10.4125,38.6968 3.7296,24.55467 l 53.2174,-53.21742 c 14.1422,-14.14214 31.7781,-3.49379 17.636,10.64834 l -10.582,10.58193 c -14.1421,14.14214 5.117,23.16728 19.2592,9.02515 l 9.5941,-9.5941 c 14.1421,-14.14214 33.1642,-4.87998 19.0221,9.26215 l -8.2124,8.2124 c -14.1422,14.14213 7.758,20.52622 21.9002,6.38408 l 6.2214,-6.22146 c 14.1422,-14.14214 35.345,-7.06075 21.2029,7.08138 l -4.0876,4.0876 c -14.1085,14.10856 13.339,14.94528 27.4476,0.83672 l 3.079,-3.07908 c 10.0032,-10.00311 37.7147,-9.43035 27.7116,0.57276 l -7.5024,7.50234 m -204.074,34.36837 35.4415,-35.44147 c 14.1421,-14.14213 17.2146,11.06966 3.0725,25.2118 l -26.2814,26.28133 c -14.1421,14.14213 -13.7465,42.0308 0.3956,27.88867 l 26.4572,-26.45712 c 14.1421,-14.14214 11.9949,16.28931 -2.1472,30.43145 l -25.6742,25.6742 c -14.1422,14.14214 -18.3875,46.67172 -4.2453,32.52959 l 23.0663,-23.06638 c 14.1422,-14.14214 -5.2791,33.56345 -19.4213,47.70558 l -23.8701,23.87011 m 0.9619,-3.05889 2.965,2.965 c 3.9533,3.95332 16.6133,-11.671 12.66,-15.62432 l -3.3069,-3.30682 c -8.3624,-8.36241 -4.0025,-32.28684 4.3599,-23.92444 l 3.5017,3.50173 c 13.0314,13.03139 23.012,-5.27232 9.9806,-18.3037 l -6.3714,-6.37134 c -14.1421,-14.14214 -13.0849,-41.36921 1.0572,-27.22708 l 12.4778,12.47777 c 14.1421,14.14213 20.7994,-7.48483 6.6573,-21.62697 l -19.5421,-19.54206 c -14.1421,-14.14213 -16.3443,-44.62863 -2.2022,-30.48649 l 26.7344,26.73435 c 14.1421,14.14213 16.1956,-12.08861 2.0535,-26.23074 l -32.3681,-32.36813 c -14.1422,-14.14213 -20.0625,-48.34671 -5.9203,-34.20457 l 38.0328,38.03278 c 14.1421,14.14214 11.2464,-17.0378 -2.8957,-31.17994 l -42.6478,-42.64783 c -14.1422,-14.14214 -23.9988,-52.28299 -9.8566,-38.14086 l 70.2969,70.29693 c 14.1421,14.14214 60.1653,31.88107 46.0232,17.73894 L 1445.7706,636.61791 m 114.2179,85.93365 59.3363,59.33629 c 14.1421,14.14214 43.4877,15.20349 29.3456,1.06135 l -15.014,-15.01396 c -13.0272,-13.0272 27.3708,-0.9135 40.398,12.11371 l 5.4912,5.49123 c 5.7056,5.70556 26.723,-1.56127 21.0175,-7.26682 l -4.2792,-4.27917" /></g><g
       id="g5654"><path
         style="fill:none;stroke:#000000;stroke-width:8;stroke-miterlimit:4;stroke-dasharray:none;stroke-opacity:1"
         inkscape:connector-curvature="0"
         id="path4114"
         d="m 747.2036,517.6032 c 5.5444,-2.7855 11.2488,-5.4026 16.7004,-8.4691 4.267,-2.3997 4.8796,-6.0896 2.5682,-10.4201 -7.8761,-14.7532 -18.8186,-26.6248 -33.9963,-33.7668 -14.6495,-6.8936 -28.7023,-1.2838 -42.8186,3.3155 -6.2778,2.0457 -13.1592,3.2056 -19.744,3.1166 -9.8519,-0.1335 -20.3063,5.6371 -20.6317,15.3239 -0.4468,13.3162 1.6441,26.7195 2.7378,40.0776 0.0433,0.5269 1.0156,0.9775 2.0217,1.8843 0.5332,-4.8027 1.0175,-9.1707 1.5024,-13.5386 0.9183,-0.01 1.8373,-0.019 2.7556,-0.0286 6.5212,7.8831 3.191,17.308 3.9448,27.3918 -7.9187,-3.4299 -13.4783,-7.7534 -14.5822,-14.8084 -2.1538,-13.7636 -3.4197,-27.6873 -4.4525,-41.5889 -0.2358,-3.1776 1.0493,-7.3982 3.1898,-9.6765 18.7436,-19.9511 42.6934,-31.8749 67.3563,-42.6324 -12.5605,8.7709 -25.1212,17.5418 -37.6817,26.3127 0.2714,0.8147 0.5421,1.6295 0.8135,2.4436 4.2663,-0.6126 8.6502,-0.795 12.7761,-1.9218 10.2777,-2.8065 20.5224,-5.7909 30.6209,-9.1795 9.4726,-3.1789 17.3359,-1.0181 24.4984,5.5602 10.4429,9.5914 21.0239,19.0327 31.939,28.893 9.2457,-10.2828 22.661,-12.6158 36.3827,-14.3133 26.689,-3.3009 53.3627,-6.7283 80.0472,-10.0706 0.3712,-0.0464 0.7963,0.3375 0.9946,0.4283 -20.4869,15.5583 -40.8116,31.4694 -61.6652,46.6553 -13.0131,9.4763 -28.2009,12.0286 -44.1736,11.3613 -5.1191,-0.2142 -10.5002,0.9063 -15.4465,2.4354 -13.0919,4.0477 -26.0636,8.5046 -38.9686,13.1205 -4.1957,1.5011 -6.8338,0.6666 -8.633,-3.2438 -2.8528,-6.2014 -6.0972,-12.2669 -8.3762,-18.6736 -1.8843,-5.2972 -1.5342,-10.7493 4.3419,-13.8926 5.9028,-3.1579 11.7115,-2.2339 15.9816,2.5898 3.6203,4.0901 6.0893,9.201 9.9972,15.3148 z" /><path
         inkscape:connector-curvature="0"
         id="path5657"
         style="fill:none;stroke:#000000;stroke-width:8"
         d="m 720.59115,512.08475 4.83816,-4.83816 c 6.45088,-6.45088 18.97758,9.30669 12.5267,15.75757 l -1.68369,1.68368 c -8.6958,8.6958 31.72529,-3.44101 40.42109,-12.13681 l 26.41081,-26.41082 c 14.14214,-14.14213 46.4969,-18.21263 32.35477,-4.07049 l -31.06904,31.06904 c -3.50679,3.50679 -37.5052,-19.06334 -33.99842,-22.57013 l 2.6301,-2.63009 m 99.54239,-14.68958 5.85634,-5.85634 m -157.68379,38.161 20.0249,20.0249 c 3.38802,3.38802 24.54789,-3.73638 21.15986,-7.12441 l 0,0 c -3.38802,-3.38802 8.76047,-19.5238 12.14849,-16.13578 l 5.55055,5.55055 c 10.78876,10.78876 36.37271,8.08844 25.58395,-2.70032 l -9.99802,-9.99802 c -14.14214,-14.14214 6.26621,-22.01807 20.40834,-7.87593 l 7.44763,7.44763 c 12.11383,12.11382 28.21563,-0.0686 16.1018,-12.18247 l -4.51086,-4.51086 c -6.09934,-6.09935 19.02418,-9.26009 25.12353,-3.16075 l 4.5745,4.57451 m -138.26703,-25.12995 5.40351,5.40351" /></g><g
       id="g5659"><path
         style="fill:none;stroke:#000000;stroke-width:8;stroke-miterlimit:4;stroke-dasharray:none;stroke-opacity:1"
         inkscape:connector-curvature="0"
         id="path4126"
         d="m 1326.2209,290.5941 c -32.4507,4.2765 -59.2572,21.9803 -87.6722,35.9168 -6.5548,3.2151 -13.62,6.4595 -20.7118,7.2056 -6.9241,0.7283 -14.7391,-0.3921 -21.1644,-3.0842 -9.8983,-4.1475 -10.8541,-12.4907 -2.2262,-18.8364 7.6626,-5.6358 16.2904,-10.436 25.1663,-13.8551 28.2803,-10.8929 57.6206,-16.3102 88.0471,-13.5831 6.1741,0.5536 12.2238,2.4894 18.3312,3.7878 0.076,0.8166 0.1531,1.6326 0.23,2.4486 z" /><path
         inkscape:connector-curvature="0"
         id="path5662"
         style="fill:none;stroke:#000000;stroke-width:8"
         d="m 1207.4974,308.0212 -7.151,7.15105 c -9.5348,9.53473 11.4457,16.83857 20.9804,7.30383 l 19.1471,-19.14706 c 14.1421,-14.14213 47.368,-19.08382 33.2259,-4.94168 l -11.6501,11.65006 m -39.6191,18.38773 -9.0817,-9.08173 c -12.109,-12.10898 6.8651,-21.41913 18.9741,-9.31016 l 1.8432,1.84323 c 10.9314,10.93141 29.6638,1.37953 18.7324,-9.55188 l -2.4414,-2.44136 c -7.6762,-7.67627 15.9854,-12.2989 23.6617,-4.62263 l 3.3162,3.31622 c 3.2546,3.25464 23.4533,-4.83094 20.1987,-8.08558 l -2.441,-2.44098" /></g><g
       id="g5664"><path
         style="fill:none;stroke:#000000;stroke-width:8;stroke-miterlimit:4;stroke-dasharray:none;stroke-opacity:1"
         inkscape:connector-curvature="0"
         id="path4136"
         d="m 1403.9172,221.4532 c 2.6222,14.6819 -2.8351,25.8685 -14.0039,34.1316 -11.3899,8.4265 -24.075,11.8875 -38.0636,6.8974 -1.4097,-0.5027 -2.9272,-1.2062 -3.9225,-2.2618 -1.822,-1.9326 -3.2914,-4.1983 -4.9081,-6.3248 2.181,-1.5113 4.1709,-3.5539 6.5828,-4.4201 4.7639,-1.7115 9.74,-2.8593 14.6666,-4.0858 15.5877,-3.8811 29.814,-9.9758 39.6487,-23.9365 z" /><path
         inkscape:connector-curvature="0"
         id="path5667"
         style="fill:none;stroke:#000000;stroke-width:8"
         d="m 1400.241,228.41468 -31.8664,31.86644 m 0.1843,-12.00181 7.0392,7.03913 c 3.612,3.61203 19.6633,-8.62099 16.0512,-12.23302 l -2.709,-2.70902" /></g><g
       id="g5669"><path
         style="fill:none;stroke:#000000;stroke-width:8;stroke-miterlimit:4;stroke-dasharray:none;stroke-opacity:1"
         inkscape:connector-curvature="0"
         id="path4090"
         d="m 1307.6267,1434.9294 c 11.4821,26.7334 25.9454,48.9591 43.2177,71.0538 -18.2721,-2.4512 -32.9698,-9.4656 -46.4424,-19.2418 -28.4175,-20.6216 -48.2969,-48.4342 -65.1167,-78.6306 -6.9901,-12.5491 -12.9705,-25.6613 -20.401,-40.4971 131.3303,44.2709 262.0582,64.262 396.701,29.6638 -10.0438,7.9282 -62.7137,27.7839 -97.4294,36.5765 -34.3478,8.6991 -69.1365,14.3152 -104.6599,14.9292 -35.2007,0.6077 -69.9373,-2.3768 -105.8693,-13.8538 z" /><path
         inkscape:connector-curvature="0"
         id="path5672"
         style="fill:none;stroke:#000000;stroke-width:8"
         d="m 1240.147,1378.4582 -3.7641,3.7641 c -5.0189,5.0189 4.4564,23.8278 9.4752,18.809 l 6.034,-6.034 c 13.0641,-13.0641 35.2955,-7.0112 22.2314,6.0529 l -10.9,10.9 c -14.1421,14.1421 -2.6932,30.9775 11.449,16.8353 l 21.0997,-21.0997 c 14.1421,-14.1421 37.2285,-8.9442 23.0864,5.1979 l -32.3216,32.3215 c -13.2513,13.2514 0.5297,27.7546 13.781,14.5033 l 2.7145,-2.7145 c 9.6321,-9.632 19.5291,8.7553 9.897,18.3873 l -3.3095,3.3095 c -5.2194,5.2194 12.3365,15.9478 17.5558,10.7284 l 3.9146,-3.9145 m 21.9724,-78.541 -17.7491,17.7491 c -14.1421,14.1422 9.2325,19.0518 23.3747,4.9096 l 8.0097,-8.0097 c 14.1421,-14.1421 39.1611,-10.8768 25.0189,3.2654 l -7.88,7.8799 c -14.1421,14.1422 12.8719,15.4124 27.0141,1.2703 l 6.7182,-6.7183 c 14.1422,-14.1421 40.94,-12.6557 26.7979,1.4864 l -4.5644,4.5644 c -14.1421,14.1422 17.1069,11.1774 31.249,-2.9647 l 2.8724,-2.8724 c 12.2872,-12.2872 41.9117,-13.6274 29.6245,-1.3403 l -3.5861,3.5862 c -7.5056,7.5056 30.6865,-2.4023 38.1921,-9.9079 l 5.6292,-5.6292 m -271.9875,38.3607 19.8621,19.8622 c 14.1422,14.1421 46.6033,18.3189 32.4611,4.1768 l -81.7624,-81.7624 c -14.1421,-14.1422 14.7507,-13.5336 28.8928,0.6085 l 24.3225,24.3226 c 14.1422,14.1421 51.4976,23.2132 37.3554,9.0711 l -23.0234,-23.0235 c -14.1422,-14.1421 22.4541,-5.8301 36.5963,8.312 l 18.8121,18.8122 c 14.1421,14.1421 43.5387,15.2544 29.3966,1.1122 l -14.8035,-14.8034 c -14.1421,-14.1421 19.8673,-8.417 34.0094,5.7251 l 8.1736,8.1736 c 14.1421,14.1421 39.8773,11.593 25.7352,-2.5491 l -4.2557,-4.2557 c -12.4481,-12.448 17.4972,-10.7871 29.9452,1.661 l 2.1371,2.137 c 9.5986,9.5987 32.9885,4.7043 23.3898,-4.8944 l -2.416,-2.416 c -6.3773,-6.3773 20.8795,-7.4048 27.2567,-1.0275 l 1.8557,1.8557 c 3.903,3.903 25.5761,-2.7082 21.6731,-6.6112 l -2.9273,-2.9273" /></g><g
       id="g5674"><path
         style="fill:none;stroke:#000000;stroke-width:8;stroke-miterlimit:4;stroke-dasharray:none;stroke-opacity:1"
         inkscape:connector-curvature="0"
         id="path4104"
         d="m 1296.7858,450.5735 c -22.6418,4.2542 -44.7131,8.401 -66.7843,12.5479 -0.1469,-0.5199 -0.2937,-1.0391 -0.441,-1.5589 13.2775,-4.4157 26.5548,-8.8313 39.8317,-13.2476 0.8402,-1.1777 1.6803,-2.3559 2.5205,-3.5342 -2.7163,-1.3848 -5.8246,-2.3102 -8.082,-4.2332 -10.4379,-8.8929 -20.8688,-17.8176 -30.8796,-27.1827 -23.9467,-22.403 -52.0007,-27.7007 -83.432,-21.7102 -40.5441,7.728 -65.8177,33.9283 -73.9155,77.8082 -1.0544,5.7141 -1.8959,11.4674 -2.9724,18.035 -44.3813,-5.9689 -88.4228,-11.892 -132.4636,-17.8151 0.0381,-0.5828 0.0756,-1.1656 0.1138,-1.7483 25.8297,-3.6409 51.6614,-7.2679 77.4886,-10.9298 9.5552,-1.355 19.0702,-3.0613 28.6603,-4.0706 4.5988,-0.4843 6.2727,-2.5294 7.4618,-6.7932 14.9966,-53.7815 67.5508,-89.8254 122.6415,-83.8889 18.4678,1.9898 35.5209,8.4665 50.6814,19.4236 25.728,18.5949 47.1738,41.6353 67.7764,65.5368 0.6168,0.7167 0.9225,1.7005 1.7944,3.3612 z" /><path
         inkscape:connector-curvature="0"
         id="path5677"
         style="fill:none;stroke:#000000;stroke-width:8"
         d="m 994.64393,464.30614 -3.81982,3.81982 c -5.0931,5.09309 19.83819,8.44611 24.93129,3.35301 l 6.7435,-6.74352 c 6.7793,-6.77932 51.163,5.40557 44.3836,12.18489 l 0,0 c -6.7793,6.77932 -31.7105,3.4263 -24.9312,-3.35302 l 96.0116,-96.01159 c 13.6316,-13.63168 42.7967,-14.5125 29.1651,-0.88083 l -2.9879,2.98786 c -9.6479,9.64787 19.3296,8.95471 28.9774,-0.69316 l 1.6924,-1.6924 c 7.3914,-7.39134 26.1247,2.15962 18.7334,9.55096 l -0.9208,0.92073 c -6.1637,6.16371 11.9772,16.30712 18.1409,10.14341 l 0.046,-0.046 c 6.1024,-6.10237 21.3053,6.979 15.2029,13.08137 l -0.3844,0.38435 c -5.5899,5.58991 9.4527,18.8316 15.0426,13.24168 l 1.3788,-1.37874 c 3.7516,-3.75159 17.3019,10.98235 13.5503,14.73394 l -2.8137,2.81369 m -198.6302,-27.64396 27.5385,-27.53848 m -101.6901,88.15397 -4.44508,-4.44504 c -5.92673,-5.92672 18.86118,-9.42307 24.78788,-3.49635 l 3.9457,3.94571 c 11.1877,11.18766 43.867,15.58272 32.6794,4.39506 l -8.6236,-8.6236 c -10.237,-10.23696 7.0242,-21.26005 17.2612,-11.02309 l 0.5815,0.58156 c 9.4616,9.46154 16.4007,-11.88354 6.9392,-21.34508 l -0.3528,-0.3528 c -8.9911,-8.99113 2.0506,-26.23368 11.0417,-17.24255 l 0,0 c 8.9912,8.99114 22.6847,-5.5996 13.6936,-14.59074 l -0.027,-0.0274 c -9.0276,-9.02764 7.1521,-21.13212 16.1798,-12.10448 l 0.3821,0.38209 c 9.5371,9.53709 30.3838,2.0996 20.8468,-7.43749 l -0.949,-0.94894 c -10.8023,-10.80234 11.5527,-16.7316 22.355,-5.92926 l 1.1903,1.19027 c 12.3894,12.38937 43.6947,15.41048 31.3054,3.02111 l -2.8013,-2.80129 c -14.1421,-14.14214 27.1536,-1.13068 41.2957,13.01145 l 58.682,58.68196" /></g><g
       id="g5679"><path
         style="fill:none;stroke:#000000;stroke-width:8;stroke-miterlimit:4;stroke-dasharray:none;stroke-opacity:1"
         inkscape:connector-curvature="0"
         id="path4122"
         d="m 1513.6766,207.9457 c 5.1497,27.205 -10.1049,58.5981 -35.4103,73.3417 -19.3798,11.2914 -40.572,16.3585 -62.7755,15.0054 -7.9314,-0.483 -15.8202,-4.6031 -23.2832,-8.0324 -2.2281,-1.0238 -4.155,-5.4325 -3.9409,-8.1074 0.15,-1.8672 3.9536,-4.3216 6.5155,-4.9679 13.5201,-3.4122 27.3054,-5.8221 40.7367,-9.5272 31.96,-8.8173 58.4495,-25.4758 75.6003,-54.8638 0.5587,-0.957 1.5012,-1.6898 2.5574,-2.8484 z" /><path
         inkscape:connector-curvature="0"
         id="path5682"
         style="fill:none;stroke:#000000;stroke-width:8"
         d="m 1409.3346,275.88963 -5.4054,5.40545 c -7.2073,7.20728 15.5504,12.73385 22.7577,5.52657 l 21.3974,-21.39747 m 62.3514,-34.06711 -55.8488,55.8488 m -41.6113,5.49009 -7.1555,-7.15546 c -9.5406,-9.54062 13.3826,-14.90172 22.9232,-5.36111 l 1.7586,1.75862 c 11.8855,11.88545 34.2463,5.96202 22.3609,-5.92342 l -0.9839,-0.98384 c -10.7719,-10.77191 9.4689,-18.81535 20.2409,-8.04344 l 1.6636,1.66368 c 8.5537,8.55367 23.1797,-5.10462 14.626,-13.6583 l -2.341,-2.34096 c -5.4323,-5.43239 9.7643,-18.52001 15.1967,-13.08763 l 4.0743,4.07429" /></g><g
       id="g5684"><path
         style="fill:none;stroke:#000000;stroke-width:8;stroke-miterlimit:4;stroke-dasharray:none;stroke-opacity:1"
         inkscape:connector-curvature="0"
         id="path4128"
         d="m 1128.0394,452.2538 c 0.2573,-21.2584 20.9788,-44.3363 42.0935,-46.8822 18.1157,-2.1837 28.1215,9.292 22.1417,26.5707 -6.9647,20.1227 -21.465,33.0316 -42.0483,38.3979 -13.2386,3.4516 -22.3528,-4.3838 -22.1869,-18.0864 z" /><path
         inkscape:connector-curvature="0"
         id="path5687"
         style="fill:none;stroke:#000000;stroke-width:8"
         d="m 1136.0916,435.9955 13.6672,-13.66713 c 14.1421,-14.14214 40.5245,-12.24021 26.3823,1.90193 l -32.6591,32.65915 c -9.4867,9.48665 21.1801,7.10418 30.6667,-2.38247 l 7.115,-7.11499 m -22.455,15.4011 -13.2952,-13.29516 c -14.1421,-14.14214 -2.489,-30.77328 11.6531,-16.63114 l 7.8619,7.86185 c 14.1421,14.14214 25.2666,-3.01762 11.1245,-17.15976 l -12.5369,-12.53689" /></g><g
       id="g5689"><path
         style="fill:none;stroke:#000000;stroke-width:8;stroke-miterlimit:4;stroke-dasharray:none;stroke-opacity:1"
         inkscape:connector-curvature="0"
         id="path4072"
         d="m 1545.8407,1217.079 c -17.7097,12.7201 -35.1173,25.8882 -53.1886,38.0719 -43.1879,29.1173 -88.7761,53.5024 -139.4187,67.1479 -53.5438,14.427 -106.6243,15.3721 -157.8802,-8.7938 -45.104,-21.2654 -78.3331,-54.7811 -98.7914,-100.5061 -1.9498,-4.3585 -3.3696,-9.0773 -4.2238,-13.7758 -1.4597,-8.0292 1.3201,-11.1661 9.4891,-9.9027 6.1824,0.9564 12.4785,2.7734 18.0934,5.5056 17.3518,8.4423 34.2917,17.728 51.5908,26.2834 36.6884,18.1455 76.1616,26.5345 116.339,31.7783 86.0262,11.2272 168.4866,-3.8132 248.6379,-34.8975 2.7677,-1.0735 5.585,-2.0184 8.3794,-3.0232 0.3236,0.7037 0.6483,1.4078 0.9731,2.112 z" /><path
         inkscape:connector-curvature="0"
         id="path5692"
         style="fill:none;stroke:#000000;stroke-width:8"
         d="m 1099.2751,1208.2031 6.1564,-6.1564 c 8.2085,-8.2085 27.4899,0.7943 19.2815,9.0028 l -5.8509,5.8508 c -14.1421,14.1422 -3.2227,31.507 10.9195,17.3649 l 9.2191,-9.2192 c 14.1422,-14.1421 32.8802,-4.5959 18.7381,9.5463 l -15.5369,15.5369 c -14.1422,14.1421 -0.2325,28.5167 13.9096,14.3746 l 21.3974,-21.3974 c 14.1421,-14.1421 34.8865,-6.6022 20.7444,7.5399 l -26.7519,26.7519 c -14.1421,14.1421 2.7213,25.5629 16.8634,11.4208 l 31.7669,-31.7669 c 14.1421,-14.1421 37.3691,-9.0848 23.227,5.0573 l -36.6612,36.6612 c -14.1421,14.1421 5.8464,22.4379 19.9885,8.2957 l 41,-40.9999 c 14.1421,-14.1422 39.5043,-11.2201 25.3622,2.9221 l -44.2001,44.2001 c -14.1422,14.1421 10.4696,17.8146 24.6117,3.6725 l 46.1549,-46.1549 c 14.1421,-14.1421 42.3104,-14.0261 28.1683,0.116 l -46.8208,46.8207 c -14.1421,14.1422 17.5206,10.7637 31.6628,-3.3784 l 45.2807,-45.2807 c 14.1421,-14.1422 46.6469,-18.3627 32.5048,-4.2206 l -43.8705,43.8705 c -14.1421,14.1422 33.4234,-5.1391 47.5656,-19.2813 l 31.7081,-31.7081 c 14.1421,-14.1421 53.063,-24.7787 38.9208,-10.6366 l -23.8624,23.8625 m -283.9702,30.26 -58.3372,-58.3372 c -14.1421,-14.1421 -24.72,-53.0043 -10.5779,-38.8622 l 105.4536,105.4537 c 14.1422,14.1421 49.6226,21.3383 35.4805,7.1961 l -94.4714,-94.4713 c -14.1421,-14.1422 38.831,10.5467 52.9731,24.6888 l 70.8557,70.8557 c 14.1421,14.1421 40.2209,11.9366 26.0788,-2.2055 l -57.1114,-57.1114 c -14.1421,-14.1421 20.8421,-7.4421 34.9843,6.7 l 45.9662,45.9662 c 14.1421,14.1422 36.3549,8.0707 22.2128,-6.0714 l -35.9222,-35.9222 c -14.1421,-14.1421 15.9156,-12.3687 30.0577,1.7734 l 27.1659,27.1659 c 14.1421,14.1421 34.2871,6.0029 20.145,-8.1393 l -19.171,-19.1709 c -14.1421,-14.1422 12.4668,-15.8175 26.609,-1.6754 l 12.1926,12.1927 c 14.1421,14.1421 32.5847,4.3004 18.4426,-9.8417 l -5.5191,-5.5191 c -13.8893,-13.8893 10.0748,-18.2095 23.9641,-4.3202 l 2.9074,2.9074 c 10.0128,10.0128 27.3197,-0.9646 17.3068,-10.9775 l -2.6192,-2.6192 c -6.5206,-6.5206 15.8826,-12.4017 22.4032,-5.881 l 2.5975,2.5975 c 3.0573,3.0572 19.542,-8.7423 16.4847,-11.7996 l -2.2929,-2.2929" /></g><g
       id="g5694"><path
         style="fill:none;stroke:#000000;stroke-width:8;stroke-miterlimit:4;stroke-dasharray:none;stroke-opacity:1"
         inkscape:connector-curvature="0"
         id="path4116"
         d="m 1302.9402,262.6316 c -22.0795,2.9774 -43.646,4.7004 -64.6864,8.9984 -32.037,6.544 -60.6407,20.5879 -86.1852,41.6639 -10.6896,8.8199 -24.5344,13.9269 -37.2208,20.1608 -5.0951,2.5034 -12.0846,3.5945 -15.2196,-1.9136 -2.1913,-3.85 -2.068,-10.6241 -0.2192,-14.8993 9.7592,-22.5644 25.2742,-40.5943 47.1687,-52.0357 35.9537,-18.7887 74.3809,-25.6162 114.4478,-18.9476 12.2434,2.0375 23.8442,8.0845 35.6377,12.5631 2.4092,0.9152 4.3629,3.029 6.277,4.41 z" /><path
         inkscape:connector-curvature="0"
         id="path5697"
         style="fill:none;stroke:#000000;stroke-width:8"
         d="m 1102.8877,327.77807 60.1818,-60.18174 c 14.1421,-14.14214 50.8178,-22.53356 36.6757,-8.39142 l -55.0417,55.04162 m 68.053,-39.76874 19.5136,-19.51352 c 9.9226,-9.92263 34.8256,-6.54137 24.903,3.38126 l -7.442,7.44197 m -138.6118,64.4634 -4.2864,-4.28642 c -5.7153,-5.71522 3.2429,-25.0413 8.9581,-19.32608 l 5.3203,5.32022 c 12.8088,12.80884 30.5019,2.21766 17.6931,-10.59119 l -4.1101,-4.1101 c -14.1422,-14.14213 1.3474,-26.93682 15.4895,-12.79468 l 3.9596,3.95953 c 14.1421,14.14213 31.6964,3.41216 17.5543,-10.72998 l -3.0623,-3.06227 c -14.1421,-14.14214 5.9715,-22.31274 20.1137,-8.1706 l 2.0608,2.06085 c 14.1421,14.14214 35.0752,6.79095 20.9331,-7.35118 l -1.5064,-1.50644 c -12.7321,-12.7321 12.8154,-15.46884 25.5475,-2.73673 l 2.766,2.76602 c 9.0441,9.04408 33.5093,5.22496 24.4652,-3.81912 l -6.7831,-6.78306" /></g><g
       id="g5699"><path
         style="fill:none;stroke:#000000;stroke-width:8;stroke-miterlimit:4;stroke-dasharray:none;stroke-opacity:1"
         inkscape:connector-curvature="0"
         id="path4096"
         d="m 1621.8547,703.9677 c 3.0544,-6.0298 5.3766,-10.1595 7.2914,-14.4697 10.6013,-23.8691 10.2117,-48.5162 3.979,-73.1791 -11.7788,-46.6064 -37.4694,-85.7688 -67.0112,-122.7565 -2.7881,-3.4909 -5.6434,-6.9291 -7.6854,-11.2336 9.2018,5.639 18.2333,11.5812 27.6365,16.8612 30.2963,17.0118 61.5872,31.362 96.8512,34.4907 28.3312,2.5135 53.4689,-4.04 73.3169,-25.7141 0.6115,-0.6673 1.395,-1.177 3.4248,-2.8605 -1.9796,23.6276 -12.2186,40.3998 -30.6082,52.1978 -17.8882,11.4764 -38.1354,14.7315 -59.7422,15.7096 11.8761,31.7713 14.3877,62.8931 -3.8678,92.698 -10.1232,16.5262 -24.5713,28.4983 -43.585,38.2562 z" /><path
         inkscape:connector-curvature="0"
         id="path5702"
         style="fill:none;stroke:#000000;stroke-width:8"
         d="m 1598.9618,510.5265 -4.2781,4.27811 c -5.7042,5.70415 5.3278,22.95642 11.032,17.25227 l 4.0598,-4.05983 c 11.1173,-11.11724 31.4079,-3.12363 20.2907,7.99362 l -7.394,7.39399 c -14.1421,14.14213 -4.7594,33.04367 9.3827,18.90154 l 17.7208,-17.72079 c 14.1421,-14.14214 38.6956,-10.41134 24.5535,3.73079 l -33.8135,33.81346 c -14.1421,14.14214 -7.2698,35.55408 6.8724,21.41194 l 10.044,-10.044 c 14.1421,-14.14214 19.7219,8.56234 5.5798,22.70448 l -11.6162,11.61614 c -14.1421,14.14214 -16.4298,44.7141 -2.2877,30.57196 l 24.5376,-24.53762 m 9.3387,-65.90722 21.8736,-21.87354 c 14.1421,-14.14213 46.8185,-18.53431 32.6764,-4.39217 l -19.6787,19.67874 m -82.8266,123.11665 1.9719,1.97189 c 2.6292,2.62918 17.4186,-10.86564 14.7895,-13.49483 l -4.7021,-4.70203 c -8.8985,-8.89857 -8.91,-37.19425 -0.011,-28.29568 l 7.3445,7.34449 c 14.1421,14.14213 21.6937,-6.59061 7.5515,-20.73274 l -30.9911,-30.99115 m 43.2278,14.94356 -59.6975,-59.69752 c -14.1421,-14.14213 -11.5394,-39.82366 2.6027,-25.68152 l 37.4703,37.47026 c 14.1422,14.14214 36.5248,8.24056 22.3827,-5.90157 l -14.0533,-14.05333 c -14.1422,-14.14214 19.0662,-9.21802 33.2084,4.92411 l 6.1347,6.13476 c 10.8086,10.80854 29.483,1.19868 18.6744,-9.60986 l -3.6794,-3.67942 c -5.9026,-5.90265 15.8217,-12.46254 21.7244,-6.55988 l 4.427,4.42699" /></g><g
       id="g5704"><path
         style="fill:none;stroke:#000000;stroke-width:8;stroke-miterlimit:4;stroke-dasharray:none;stroke-opacity:1"
         inkscape:connector-curvature="0"
         id="path4108"
         d="m 771.3975,402.3103 c 15.3721,-9.3619 31.1351,-18.1481 46.0242,-28.2238 21.4338,-14.5052 42.3839,-29.7433 63.2419,-45.0747 11.0817,-8.1456 18.9057,-19.0677 23.4974,-32.1418 2.7518,-7.8348 7.7083,-13.4153 15.4407,-16.8516 15.0823,-6.7023 29.8164,-14.2231 45.0735,-20.4818 6.544,-2.6845 8.8376,-6.7283 10.5745,-13.1071 8.6013,-31.5813 17.2908,-63.1574 27.0417,-94.3949 3.1954,-10.2377 8.8655,-19.9911 14.8694,-28.9877 6.8306,-10.2358 15.47,-10.729 21.9594,-0.4245 8.722,13.8481 16.2745,28.6902 22.3127,43.9054 7.573,19.0842 13.3207,38.912 19.3861,58.5638 1.8805,6.0921 4.6991,8.0121 11.2164,8.0528 28.1647,0.1773 56.3242,1.1077 84.5093,3.5602 -17.6772,1.6683 -35.3766,3.1312 -53.0278,5.0429 -49.5635,5.3677 -98.8053,12.6317 -146.5029,27.7408 -12.5562,3.9771 -24.8555,8.9279 -36.9305,14.2136 -11.2324,4.9171 -20.3458,11.9346 -27.2069,23.1548 -10.9413,17.892 -26.8161,31.7052 -43.8927,43.9607 -30.0553,21.571 -63.1262,37.5177 -97.5864,51.4929 z m 253.7869,-271.393 c -1.0715,-0.0445 -2.1424,-0.089 -3.2139,-0.1341 -25.1376,35.4834 -25.6581,77.3742 -30.7214,119.6196 21.1192,-4.9406 40.2524,-9.416 60.1635,-14.0737 -6.1945,-33.3779 -10.5128,-66.3141 -21.7205,-97.7612 -0.9754,-2.7386 -2.9812,-5.1091 -4.5077,-7.6506 z" /><path
         inkscape:connector-curvature="0"
         id="path5707"
         style="fill:none;stroke:#000000;stroke-width:8"
         d="m 1012.7394,135.08364 12.3757,-12.37564 c 4.4384,-4.4384 17.3799,10.90437 12.9415,15.34277 l 0,0 c -4.4384,4.4384 2.0492,26.23501 6.4876,21.79661 l 1.6009,-1.60089 c 6.573,-6.57292 15.0256,13.25865 8.4527,19.83157 l -1.6272,1.62725 c -8.7426,8.74258 -4.407,32.69125 4.3356,23.94867 l 1.5211,-1.52112 c 10.7707,-10.77073 17.548,10.73623 6.7773,21.50697 l -21.7114,21.71138 c -6.2317,6.23173 27.8611,0.42323 34.0928,-5.80851 l 4.6738,-4.6738 m -162.36543,49.22836 -5.6515,5.65149 c -7.53532,7.53532 44.97766,-16.69339 52.51298,-24.22871 L 983.63989,249.036 c 5.58005,-5.58004 28.84601,-0.56169 23.26591,5.01835 l -4.185,4.18503 m -157.54979,100.98124 -5.88889,5.88889 m 69.22767,-67.76247 1.83374,1.83374 c 2.44498,2.44498 16.64637,-11.6379 14.20139,-14.08288 l -0.14873,-0.14873 c -2.64329,-2.64329 36.3664,-20.20214 39.00969,-17.55885 l 0.10972,0.10972 c 2.78959,2.78958 24.08829,-4.19598 21.29871,-6.98557 l -5.41512,-5.41512 c -3.32336,-3.32336 3.5458,-24.73847 6.86916,-21.41511 l 0,0 c 3.32336,3.32336 46.88575,18.60147 43.56235,15.27811 l -0.328,-0.32804 c -3.3195,-3.31946 -26.2417,2.0426 -22.9222,5.36206 l 0,0 c 3.3194,3.31946 50.3071,-6.26146 46.9876,-9.58091 l -0.5716,-0.57161 c -4.0816,-4.08159 -2.5821,-30.86633 1.4995,-26.78473 l 15.4263,15.42629 c 14.1422,14.14214 3.8897,-24.39457 -10.2524,-38.5367 l -4.2549,-4.25489 c -14.1421,-14.14214 -24.8062,-53.09047 -10.6641,-38.94833 l 13.3017,13.30166" /></g><g
       id="g5709"><path
         style="fill:none;stroke:#000000;stroke-width:8;stroke-miterlimit:4;stroke-dasharray:none;stroke-opacity:1"
         inkscape:connector-curvature="0"
         id="path4066"
         d="m 1459.1752,1360.748 c 65.076,-67.5869 132.0491,-133.4861 176.1497,-218.3746 -102.9917,46.952 -209.4164,68.7246 -322.0883,50.588 22.5891,-4.2777 45.2507,-8.2079 67.7554,-12.891 128.3314,-26.7074 242.5533,-81.6666 339.9314,-170.2425 10.3356,-9.4013 20.8719,-18.584 31.423,-27.7439 2.4741,-2.1481 5.308,-3.9186 8.1144,-5.6378 5.3937,-3.3035 9.6302,-1.6677 11.2711,4.1137 1.8539,6.5313 3.6168,13.3372 3.7731,20.0611 0.8663,37.2819 -10.5764,71.6309 -26.6844,104.5665 -29.587,60.4938 -73.6431,109.2362 -125.0077,151.8508 -49.7484,41.2729 -104.6459,74.4705 -162.4852,103.0024 -0.6705,0.3311 -1.4332,0.4761 -2.1525,0.7073 z" /><path
         inkscape:connector-curvature="0"
         id="path5712"
         style="fill:none;stroke:#000000;stroke-width:8"
         d="m 1378.5131,1183.5236 -5.4072,5.4072 c -7.2097,7.2096 20.1558,8.1284 27.3655,0.9188 l 4.0817,-4.0818 c 12.6519,-12.6519 51.8846,-23.6003 39.2327,-10.9484 l -8.5037,8.5037 c -14.1421,14.1421 17.1954,11.0888 31.3376,-3.0533 l 18.8246,-18.8247 c 14.1422,-14.1421 62.4482,-34.1639 48.3061,-20.0217 l -33.5364,33.5363 c -14.1421,14.1422 22.4125,5.8718 36.5547,-8.2704 l 66.3564,-66.3564 m 115.45,-87.1657 -141.3519,141.3519 c -14.1422,14.1422 31.4755,-3.1912 45.6176,-17.3333 l 136.5558,-136.5559 c 14.1422,-14.14214 14.6756,13.6087 0.5334,27.7509 l -127.8769,127.8769 m -72.3518,100.6361 194.7529,-194.7529 c 14.1421,-14.1421 -2.6841,30.9684 -16.8263,45.1105 l -214.8493,214.8494 m 89.5108,-61.2266 93.4163,-93.4163 m -352.9292,26.7042 -1.9541,-1.9541 c -2.6054,-2.6054 21.1577,-7.1266 23.7632,-4.5211 l 2.5836,2.5837 c 6.0504,6.0503 34.1837,5.8994 28.1334,-0.151 l -2.4725,-2.4724 c -9.347,-9.347 13.4784,-14.806 22.8253,-5.459 l 2.0806,2.0806 c 12.1211,12.1211 37.1641,8.8799 25.0431,-3.2412 l -1.4109,-1.4109 c -14.0022,-14.0022 7.6715,-20.6128 21.6737,-6.6106 l 2.6412,2.6413 c 14.1422,14.1421 37.5706,9.2862 23.4284,-4.8559 l -4.7259,-4.7259 c -14.1421,-14.1421 6.4057,-21.8786 20.5479,-7.7364 l 6.6566,6.6566 c 14.1422,14.1422 36.5347,8.2504 22.3925,-5.8917 l -8.7193,-8.7194 c -14.1422,-14.1421 5.3055,-22.9787 19.4477,-8.8366 l 9.9254,9.9255 c 14.1421,14.1421 34.9782,6.6939 20.8361,-7.4482 l -11.3138,-11.3138 c -14.1421,-14.1422 4.2748,-24.0095 18.4169,-9.8674 l 23.3834,23.3835 m -119.9238,191.203 -2.2593,-2.2593 c -3.0124,-3.0124 10.8566,-17.4276 13.869,-14.4152 l 2.0989,2.0989 c 5.811,5.8111 23.6212,-4.6631 17.8102,-10.4741 l -2.0965,-2.0965 c -8.6063,-8.6063 4.846,-23.4383 13.4523,-14.832 l 2.0254,2.0254 c 11.3068,11.3069 28.2415,-0.043 16.9347,-11.3495 l -1.7413,-1.7412 c -13.6284,-13.6285 -0.2392,-28.5236 13.3893,-14.8951 l 3.1572,3.1573 c 14.1422,14.1421 30.1108,1.8265 15.9687,-12.3156 l -5.9866,-5.9867 c -14.1422,-14.1421 -1.6153,-29.8995 12.5269,-15.7573 l 9.4284,9.4284 c 14.1421,14.1421 29.4559,1.1716 15.3137,-12.9706 l -12.6641,-12.6641 c -14.1421,-14.1421 -2.5579,-30.8422 11.5842,-16.7 l 15.9959,15.9959 c 14.1421,14.1421 28.9189,0.6345 14.7767,-13.5076 l -19.5335,-19.5335 c -14.1421,-14.1421 -3.7579,-32.0422 10.3842,-17.9001 l 23.1528,23.1528 c 14.1421,14.1421 27.4982,-0.7861 13.356,-14.9282 l -66.0296,-66.0297 c -14.1422,-14.1421 3.5296,-24.7546 17.6718,-10.6125 l 61.1205,61.1205 c 14.1421,14.1422 26.2654,-2.0188 12.1233,-16.1609 l -55.9198,-55.9198 c -14.1421,-14.1421 2.8491,-25.4352 16.9912,-11.293 l 50.3636,50.3635 c 14.1421,14.1421 24.8367,-3.4476 10.6945,-17.5897 l -44.758,-44.758 c -14.1421,-14.1422 2.158,-26.1264 16.3001,-11.9842 l 38.268,38.2679 c 14.1421,14.1422 22.9265,-5.3577 8.7844,-19.4998 l -31.6794,-31.6794 c -14.1421,-14.1421 1.1589,-27.1253 15.3011,-12.9832 l 24.0321,24.0321 c 14.1421,14.1422 20.1897,-8.0945 6.0476,-22.2366 l -14.9132,-14.9132 c -14.1421,-14.1422 0.8794,-27.40493 15.0215,-13.2628 l 9.838,9.838 c 5.7214,5.7214 5.2547,-23.02954 -0.4667,-28.75098 l -4.2911,-4.29108" /></g><g
       id="g5714"><path
         style="fill:none;stroke:#000000;stroke-width:8;stroke-miterlimit:4;stroke-dasharray:none;stroke-opacity:1"
         inkscape:connector-curvature="0"
         id="path4078"
         d="m 1430.7003,392.5295 c 63.111,41.001 99.3011,102.6281 131.8617,167.1183 -0.7289,0.7118 -1.4579,1.4242 -2.1868,2.136 -1.5227,-2.096 -2.8352,-4.3909 -4.5988,-6.2599 -52.6757,-55.819 -109.5414,-106.7063 -174.8914,-147.4671 -40.7164,-25.3957 -83.2915,-46.6839 -130.6123,-57.036 -1.1261,-0.2466 -2.1608,-0.9107 -5.0607,-2.1748 60.2053,-24.5205 120.4266,-32.7112 182.6969,-19.6759 75.9327,15.8958 132.0619,60.8441 176.2418,123.0724 -53.4222,-32.9744 -109.9307,-56.6498 -173.4504,-59.713 z" /><path
         inkscape:connector-curvature="0"
         id="path5717"
         style="fill:none;stroke:#000000;stroke-width:8"
         d="m 1291.1238,337.53192 -8.1165,8.11646 c -10.8219,10.82194 10.3672,17.9171 21.1891,7.09516 l 11.7508,-11.75082 c 14.1422,-14.14213 45.6131,-17.32874 31.4709,-3.18661 l -20.491,20.49097 c -14.1421,14.14214 4.9316,23.35271 19.0738,9.21057 l 29.2248,-29.22486 c 14.1421,-14.14213 39.6558,-11.37151 25.5137,2.77063 l -36.0268,36.02674 c -14.1421,14.14214 3.6755,24.60882 17.8176,10.46669 l 41.777,-41.77698 c 14.1421,-14.14214 36.2441,-7.95985 22.102,6.18229 l -46.4389,46.4389 c -14.1422,14.14213 2.6735,25.61071 16.8157,11.46858 l 2.4225,-2.4226 c 14.1422,-14.14213 30.5257,-2.24137 16.3836,11.90077 l -1.9905,1.99041 c -14.1421,14.14213 2.0871,26.19719 16.2293,12.05506 l 1.1967,-1.19674 c 14.0061,-14.00613 28.4344,-0.15012 14.4283,13.856 l -1.0862,1.08617 c -12.5579,12.5579 3.1691,25.11516 15.727,12.55725 l 1.301,-1.30103 c 10.8232,-10.82319 23.322,4.96233 12.4988,15.78553 l -1.5338,1.5338 c -8.7781,8.77812 6.0306,22.25362 14.8088,13.47551 l 1.8373,-1.83738 c 6.3283,-6.32829 17.4623,10.82196 11.134,17.15025 l -1.822,1.82204 c -3.8989,3.8989 10.2984,17.98589 14.1973,14.08699 l 2.9242,-2.92417 m -97.9181,-128.3561 29.3334,-29.33342 c 14.1422,-14.14214 33.0424,-4.75807 18.9002,9.38407 l -12.2638,12.26385 c -14.1422,14.14214 9.4519,18.83229 23.5941,4.69016 l 6.4055,-6.40552 c 14.1421,-14.14213 30.8206,-2.53631 16.6784,11.60583 l -3.0881,3.08818 c -11.2722,11.27216 9.6821,18.60208 20.9543,7.32992 l 2.7602,-2.76016 c 7.5919,-7.59194 22.0318,6.25242 14.4399,13.84437 l -2.6993,2.69929 c -3.9929,3.99289 15.0725,13.21174 19.0654,9.21884 l 2.9947,-2.99467 m -298.0915,-67.5343 -4.6516,-4.65161 c -6.2022,-6.20215 15.4168,-12.86744 21.6189,-6.6653 l 28.4735,28.47349 m 62.6737,34.38943 -62.3317,-62.3317 c -14.1421,-14.14214 10.2444,-18.03992 24.3865,-3.89779 l 201.2419,201.24192 m -43.5261,-71.81041 -131.1406,-131.14061 c -14.1422,-14.14214 15.1178,-13.1664 29.26,0.97573 l 41.173,41.173 c 14.1421,14.14213 49.3236,21.03935 35.1815,6.89722 l -43.5805,-43.58047 c -14.1421,-14.14214 25.6672,-2.61703 39.8094,11.5251 l 55.9747,55.97475 m 55.0441,26.75977 -61.8062,-61.80616" /></g><g
       id="g5719"><path
         style="fill:none;stroke:#000000;stroke-width:8;stroke-miterlimit:4;stroke-dasharray:none;stroke-opacity:1"
         inkscape:connector-curvature="0"
         id="path4130"
         d="m 633.8789,553.2531 c -19.8818,34.4468 -30.769,71.6494 -33.866,111.092 -3.0715,39.1205 2.1169,77.4384 13.1859,115.045 C 568.6891,711.54 573.528,620.338 633.8789,553.2531 Z" /><path
         inkscape:connector-curvature="0"
         id="path5722"
         style="fill:none;stroke:#000000;stroke-width:8"
         d="m 600.40648,632.26941 -4.08568,4.08568 c -5.29217,5.29218 -9.69848,37.98275 -4.4063,32.69058 l 0.80923,-0.80923 c 4.2132,-4.21321 3.5353,24.74897 -0.67791,28.96217 l -1.17965,1.17965 c -2.64034,2.64035 1.65819,26.62608 4.29854,23.98574 l 1.98025,-1.98026 m -0.0861,0.90343 -4.1547,-4.1547 c -5.24036,-5.24035 -6.80006,-35.08433 -1.5597,-29.84397 l 0.58903,0.58904 c 4.45498,4.45497 5.20947,-23.0748 0.7545,-27.52978 l -0.73105,-0.73105 c -3.48024,-3.48024 1.27638,-27.00789 4.75661,-23.52765 l 2.61018,2.61017" /></g><g
       id="g5724"><path
         style="fill:none;stroke:#000000;stroke-width:8;stroke-miterlimit:4;stroke-dasharray:none;stroke-opacity:1"
         inkscape:connector-curvature="0"
         id="path4132"
         d="m 774.9666,1020.4996 c -64.6108,-24.1647 -140.848,-128.5113 -138.6167,-190.416 28.8421,77.0087 78.8568,136.327 138.6167,190.416 z" /><path
         inkscape:connector-curvature="0"
         id="path5727"
         style="fill:none;stroke:#000000;stroke-width:8"
         d="m 664.75496,907.33219 1.89981,-1.89981 c 2.53309,-2.53309 13.75489,14.52938 11.2218,17.06246 l -0.12242,0.12243 c -2.69632,2.69631 8.87094,19.41334 11.56725,16.71702 l 0.13508,-0.13508 c 2.76845,-2.76846 15.36463,12.91964 12.59618,15.68809 l -0.27939,0.2794 c -2.39593,2.39592 11.2102,17.07407 13.60612,14.67814 l 1.79694,-1.79694 m -45.36335,-58.86953 -12.2014,-12.2014" /></g><g
       id="g5729"><path
         style="fill:none;stroke:#000000;stroke-width:8;stroke-miterlimit:4;stroke-dasharray:none;stroke-opacity:1"
         inkscape:connector-curvature="0"
         id="path4092"
         d="m 1754.474,940.38 c 40.8911,-40.0783 72.5575,-87.277 107.1772,-134.8271 16.7786,61.5159 15.3683,120.8818 -0.8738,179.9394 -18.7405,68.1418 -56.014,125.1632 -107.0323,173.6769 44.9871,-66.4025 69.0551,-139.6686 73.0481,-219.569 0.5388,-10.783 0.074,-21.6155 0.074,-33.7402 -24.2498,13.8012 -46.3997,28.1946 -72.3935,34.52 z" /><path
         inkscape:connector-curvature="0"
         id="path5732"
         style="fill:none;stroke:#000000;stroke-width:8"
         d="m 1773.4353,930.02273 80.6923,-80.69228 c 14.1421,-14.14214 17.4459,10.83836 3.3037,24.9805 l -17.5543,17.55429 c -14.1421,14.14214 -12.5965,40.88084 1.5456,26.7387 l 17.4189,-17.41891 c 14.1422,-14.14214 13.2657,15.01861 -0.8765,29.16074 l -18.1571,18.15717 c -14.1422,14.14214 -18.2695,46.55379 -4.1274,32.41165 l 17.7325,-17.73251 c 14.1421,-14.14214 7.1814,21.10292 -6.9608,35.24505 l -17.9918,17.99187 c -14.1422,14.1421 -27.2829,55.5671 -13.1407,41.425 l 23.9661,-23.9662 m -57.2961,85.5804 17.8013,-17.8013 m -6.7961,-4.6776 2.8288,2.8288 c 3.7717,3.7718 15.4117,-12.8725 11.64,-16.6443 l -1.5794,-1.5794 c -5.8777,-5.8776 1.8263,-26.4579 7.7039,-20.5803 l 1.584,1.584 c 7.9897,7.9897 18.0327,-10.2516 10.043,-18.2413 l -1.814,-1.814 c -10.4084,-10.4084 -4.8902,-33.1745 5.5182,-22.7661 l 1.8133,1.8134 c 12.8262,12.8262 20.8824,-7.4019 8.0562,-20.2281 l -2.604,-2.60402 c -14.1421,-14.14213 -10.8515,-39.13574 3.2907,-24.99361 l 5.215,5.21503 c 14.1421,14.14214 19.9723,-8.31198 5.8301,-22.45411 l -16.5225,-16.5225 c -4.2651,-4.26518 -52.8691,-24.58492 -48.604,-20.31974 l 0,0 c 4.2652,4.26518 22.3442,-5.94015 18.079,-10.20533 l -2.5674,-2.56734 c -7.6883,-7.68831 4.9224,-23.36193 12.6107,-15.67363 l 41.537,41.53705 c 14.1422,14.14214 17.154,-11.13033 3.0118,-25.27246 l -27.4621,-27.4621 c -14.1421,-14.14214 -2.2099,-30.49418 11.9323,-16.35205 l 16.3063,16.30635 c 14.1421,14.14213 12.4363,-15.848 -1.7059,-29.99014 l -9.7405,-9.74059 c -4.7124,-4.71235 7.2198,-21.0644 11.9322,-16.35205 l 3.5342,3.53427" /></g><g
       id="g5734"><path
         style="fill:none;stroke:#000000;stroke-width:8;stroke-miterlimit:4;stroke-dasharray:none;stroke-opacity:1"
         inkscape:connector-curvature="0"
         id="path4098"
         d="m 1603.8884,835.265 c 31.8616,31.3772 53.7999,89.549 11.6995,137.7677 -19.7986,22.6763 -44.7329,38.0903 -71.5287,50.8104 -36.8713,17.5024 -75.7135,29.2527 -115.2871,38.7742 -1.4521,0.3495 -2.9368,0.5643 -4.9825,-0.3121 6.5625,-3.8951 13.1434,-7.7598 19.6848,-11.6898 44.0535,-26.4672 84.6631,-57.0964 116.583,-97.945 21.7388,-27.8195 37.8539,-58.3528 42.37,-93.9684 0.9526,-7.5202 0.9704,-15.1586 1.461,-23.437 z" /><path
         inkscape:connector-curvature="0"
         id="path5737"
         style="fill:none;stroke:#000000;stroke-width:8"
         d="m 1603.2973,873.88655 7.2451,-7.24509 c 9.6601,-9.66013 19.304,8.98026 9.6438,18.64039 l -33.5572,33.55726 m -124.6763,124.67629 -4.3214,4.3214 c -5.7619,5.7619 35.1438,-6.8595 40.9057,-12.6214 l 124.735,-124.73507 c 14.1422,-14.14214 13.1647,15.11965 -0.9775,29.26178 l -80.8913,80.89129 m -78.7255,28.8715 -1.9661,-1.9662 c -2.6216,-2.6215 14.6101,-13.6741 17.2317,-11.0525 l 2.3685,2.3685 c 5.7796,5.7796 26.4324,-1.8519 20.6528,-7.6315 l -2.1746,-2.1746 c -8.679,-8.679 7.4964,-20.7879 16.1754,-12.1089 l 2.024,2.0241 c 11.3777,11.3777 30.9694,2.685 19.5916,-8.6927 l -2.6324,-2.6324 c -14.1421,-14.14215 0.6282,-27.65611 14.7703,-13.51398 l 4.3452,4.34521 c 14.1422,14.14217 31.5357,3.25137 17.3935,-10.89076 l -8.4632,-8.46322 c -14.1421,-14.14214 -1.0381,-29.32235 13.1041,-15.18022 l 11.3363,11.33632 c 14.1421,14.14213 28.304,0.0197 14.1618,-14.12245 l -13.7748,-13.77479 c -14.1421,-14.14214 -3.7492,-32.03347 10.393,-17.89133 l 15.3927,15.39271 c 14.1421,14.14213 22.67,-5.61426 8.5279,-19.7564 l -15.0365,-15.03645 c -14.1421,-14.14213 -7.2311,-35.51539 6.911,-21.37326 l 10.7045,10.70451 c 14.1422,14.14214 9.5724,-18.71191 -4.5698,-32.85405 l -12.4248,-12.42483" /></g><g
       id="g5739"><path
         style="fill:none;stroke:#000000;stroke-width:8;stroke-miterlimit:4;stroke-dasharray:none;stroke-opacity:1"
         inkscape:connector-curvature="0"
         id="path4118"
         d="m 1681.016,475.239 c -6.821,-57.6131 -41.5494,-92.8346 -92.2537,-117.3679 6.1183,-2.1335 10.9304,-4.0731 15.8906,-5.4998 32.5085,-9.3499 64.8601,-12.2536 96.6238,2.9546 16.8414,8.063 33.58,24.9533 41.4949,42.9718 -24.6337,-17.1713 -48.8384,-29.6689 -79.5616,-19.0627 17.7153,16.0699 29.9974,33.5781 30.1005,57.2273 0.06,13.721 -4.3803,28.2021 -12.2945,38.7767 z" /><path
         inkscape:connector-curvature="0"
         id="path5742"
         style="fill:none;stroke:#000000;stroke-width:8"
         d="m 1613.6733,354.39369 -3.9867,3.98662 c -5.3155,5.3155 12.0277,16.25663 17.3432,10.94113 l 9.5315,-9.53149 c 14.1421,-14.14214 41.5279,-13.24363 27.3857,0.89851 l -18.7613,18.76133 c -8.434,8.43401 5.6239,22.6604 14.0579,14.22639 l 0,0 c 8.434,-8.43401 21.2631,7.02114 12.8291,15.45515 l -0.647,0.64704 c -8.62,8.61995 1.0833,27.20097 9.7032,18.58102 l 2.9243,-2.92427 c 4.7209,-4.72093 5.745,22.53927 1.0241,27.2602 l -3.5407,3.54069 m -0.2801,-84.57272 10.9894,-10.98946 c 4.4645,-4.46449 22.2108,6.07355 17.7463,10.53804 l -3.3484,3.34837 m -28.6792,69.98765 4.4563,4.45627 c 5.9417,5.9417 6.9465,-21.33772 1.0048,-27.27942 l -57.1787,-57.17869 c -14.1421,-14.14213 10.0266,-18.25769 24.1687,-4.11556 l 3.6757,3.67565 c 14.1421,14.14214 39.3799,11.09563 25.2378,-3.04651 l -3.8768,-3.87677 c -10.4821,-10.48213 36.6204,8.33613 47.1025,18.81825 l 7.8616,7.8616" /></g><g
       id="g5744"><path
         style="fill:none;stroke:#000000;stroke-width:8;stroke-miterlimit:4;stroke-dasharray:none;stroke-opacity:1"
         inkscape:connector-curvature="0"
         id="path4068"
         d="m 1729.9319,648.6126 c 19.6626,-18.8879 38.9674,-36.1965 56.8683,-54.8517 63.5482,-66.2245 108.9674,-142.7985 129.4423,-232.9467 16.6432,-73.2763 15.8024,-146.3905 -6.3184,-218.4701 -5.8335,-19.0086 -14.7645,-37.2457 -23.8883,-55.0081 -7.2069,-14.0312 -14.4797,-16.8809 -29.6943,-12.408 -12.7963,3.7617 -25.4611,8.9673 -37.1084,15.463 -44.8435,25.0099 -84.7902,56.9992 -123.1481,90.7501 -46.9248,41.2896 -92.7024,83.8864 -138.7889,126.1223 -16.2936,14.9323 -34.973,24.0795 -56.9889,26.5428 -11.4446,1.2806 -20.2975,-3.7414 -27.9574,-11.2101 -4.879,-4.7563 -3.8354,-10.5224 0.626,-14.9457 4.4728,-4.4347 9.2748,-9.006 14.7943,-11.8392 31.4764,-16.1577 56.4076,-40.253 81.4506,-64.5772 55.3068,-53.7198 113.1428,-104.5283 177.5516,-147.305 29.2794,-19.4459 59.6995,-36.879 93.4193,-47.6016 9.1586,-2.9126 18.8408,-4.1398 28.1239,-6.7118 7.1064,-1.9689 12.0553,0.7398 17.0035,5.348 21.4307,19.9575 34.6031,44.9763 44.0974,72.1241 20.2777,57.9849 23.4064,117.9329 18.3667,178.4376 -6.8097,81.7606 -29.8933,158.5831 -73.4332,228.6162 -34.4889,55.4745 -79.5935,99.9957 -137.4099,131.1028 -1.9544,1.0518 -4.002,1.9301 -7.0081,3.3683 z" /><path
         inkscape:connector-curvature="0"
         id="path5747"
         style="fill:none;stroke:#000000;stroke-width:8"
         d="m 1528.5008,269.8605 -40.8587,40.85876 c -14.1422,14.14214 5.73,22.55426 19.8721,8.41212 l 208.257,-208.257 m -182.476,210.76032 251.405,-251.405011 c 14.1421,-14.142136 62.4193,-34.135091 48.2772,-19.992956 l -77.0417,77.041717 m 75.5196,-47.235387 35.1077,-35.107708 c 14.1422,-14.142136 28.8026,-0.518284 14.6605,13.623851 l -2.3735,2.373449 c -11.4843,11.484335 5.1096,23.174699 16.5939,11.690364 l 0,0 c 11.4844,-11.484335 21.7952,6.489124 10.3108,17.973459 l -0.3977,0.397775 c -11.7325,11.732457 -2.9198,31.204017 8.8127,19.471557 l 0.3681,-0.36808 c 11.2416,-11.241683 18.4019,9.8823 7.1602,21.12399 l -0.077,0.0774 c -11.1384,11.13848 -5.0703,33.35459 6.0682,22.21612 l 0.224,-0.22403 c 10.8398,-10.83977 15.4525,12.83181 4.6127,23.67158 l -0.3108,0.31078 c -10.4254,10.42539 -6.5675,34.8518 3.8579,24.4264 l 0.6165,-0.61653 c 9.6034,-9.60335 10.826,17.45832 1.2226,27.06167 l -0.2199,0.2199 c -9.3101,9.31015 -8.4976,36.78192 0.8125,27.47177 l 0.1286,-0.12855 c 9.1387,-9.13874 7.7568,20.5274 -1.3819,29.66614 l 0,0 c -9.1387,9.13874 -12.5633,40.84762 -3.4246,31.70888 l 0.213,-0.21295 c 9.4226,-9.42268 4.2532,24.03102 -5.1695,33.4537 l -0.6881,0.68807 c -10.3401,10.34011 -20.106,48.39033 -9.7659,38.05022 l 1.7332,-1.73325 c 12.6511,-12.6511 -2.2616,30.54588 -14.9127,43.19698 l -11.5211,11.52111 m 0.2101,28.07418 -30.0856,30.08567 m -86.5849,114.86913 79.1752,-79.1752 m -350.87,-207.18904 -13.1797,-13.17964 c -14.1421,-14.14214 3.0042,-25.28008 17.1463,-11.13795 l 7.2658,7.26577 c 14.1421,14.14213 31.9431,3.65881 17.801,-10.48332 l -7.7644,-7.76432 c -14.1421,-14.14214 1.9094,-26.37487 16.0516,-12.23274 l 7.0613,7.06137 c 14.1422,14.14213 28.8889,0.60456 14.7467,-13.53758 l -6.7491,-6.74916 c -14.1422,-14.14213 0.5064,-27.77781 14.6486,-13.63567 l 6.8472,6.84726 c 14.1422,14.14214 28.8889,0.60456 14.7467,-13.53757 l -7.1182,-7.11826 c -14.1422,-14.14213 0.4075,-27.87678 14.5496,-13.73465 l 7.3153,7.31533 c 14.1422,14.14214 28.9918,0.70754 14.8497,-13.43459 l -7.6154,-7.61539 c -14.1421,-14.14213 0.6217,-27.66262 14.7638,-13.52048 l 7.7416,7.74161 c 14.1422,14.14214 29.0322,0.74788 14.89,-13.39425 l -7.5773,-7.5773 c -14.1421,-14.14214 0.9122,-27.37208 15.0544,-13.22994 l 7.413,7.41298 c 14.1421,14.14214 29.044,0.75979 14.9019,-13.38235 l -6.8958,-6.89578 c -14.1421,-14.14214 1.5715,-26.71274 15.7137,-12.5706 l 6.4281,6.42816 c 14.1422,14.14214 29.4522,1.1679 15.3101,-12.97424 l -6.0246,-6.02452 c -14.1421,-14.14213 2.1416,-26.14271 16.2837,-12.00058 l 5.5325,5.5325 c 14.1422,14.14213 30.0931,1.80883 15.951,-12.33331 l -4.9514,-4.95135 c -14.1421,-14.142133 2.39,-25.894291 16.5322,-11.752155 l 4.9807,4.980745 c 14.1421,14.14214 31.0145,2.73026 16.8724,-11.411873 l -4.6775,-4.677542 c -14.1422,-14.142136 3.5899,-24.694345 17.732,-10.552209 l 4.5143,4.514291 c 14.1421,14.142136 32.3527,4.068434 18.2106,-10.073702 l -4.313,-4.313006 c -14.1422,-14.142136 5.1551,-23.129181 19.2972,-8.987045 l 4.9235,4.9235 c 14.1421,14.142136 37.1286,8.844349 22.9865,-5.297787 l -7.3168,-7.316832 c -14.1422,-14.142136 8.5264,-19.757863 22.6685,-5.615728 L 1908.378,80.9912 c 14.1422,14.142136 28.5818,56.86602 14.4396,42.72388 l -23.1243,-23.12434 c -14.1421,-14.142132 11.4879,39.77213 25.63,53.91426 l 5.8823,5.88233 c 13.8309,13.83089 16.6014,44.88561 2.7705,31.05471 l -2.0611,-2.0611 c -11.0828,-11.08277 -5.7816,22.50271 5.3012,33.58548 l 1.4505,1.45055 c 9.1487,9.14871 8.633,36.91728 -0.5157,27.76856 l -0.7241,-0.72407 c -8.1833,-8.18328 -8.0425,20.24178 0.1408,28.42507 l 0.5781,0.57803 c 7.4125,7.41258 4.6263,32.9106 -2.7863,25.49803 l -0.3692,-0.3692 c -6.9203,-6.92031 -9.9777,18.30652 -3.0574,25.22683 l 0.2344,0.23441 c 6.6078,6.60777 1.9097,30.194 -4.6981,23.58623 l -0.123,-0.123 c -6.4437,-6.44376 -11.7342,16.55003 -5.2904,22.9938 l 0.1833,0.18336 c 6.1993,6.19928 -0.1152,28.16905 -6.3145,21.96976 l -0.024,-0.0235 c -6.1679,-6.16795 -13.4499,14.83434 -7.282,21.00229 l 0.1116,0.11155 c 6.0192,6.01922 -2.0623,26.22196 -8.0815,20.20274 l -0.093,-0.0931 c -5.895,-5.89506 -14.4233,13.86094 -8.5282,19.75599 l 0,0 c 5.895,5.89506 -3.4923,24.79199 -9.3874,18.89693 l -0.2302,-0.23026 c -5.7968,-5.79672 -15.7696,12.51468 -9.9729,18.31141 l 0.017,0.0172 c 5.7738,5.77377 -4.9874,23.29689 -10.7612,17.52311 l -0.064,-0.064 c -5.6884,-5.68841 -17.0526,11.2317 -11.3641,16.92011 l 0.2513,0.25131 c 5.3533,5.35334 -6.8538,21.43047 -12.2072,16.07713 l -0.2152,-0.21523 c -5.0664,-5.06637 -17.6661,10.61815 -12.5997,15.68453 l 0.4985,0.49859 c 4.4016,4.40158 -9.4548,18.82939 -13.8564,14.42781 l -0.5899,-0.58993 c -3.6151,-3.61501 -17.0666,11.21768 -13.4516,14.8327 l 0.7554,0.75542 c 2.6078,2.60779 -12.8171,15.46716 -15.4249,12.85938 l -1.9558,-1.95584" /></g><g
       id="g5749"><path
         style="fill:none;stroke:#000000;stroke-width:8;stroke-miterlimit:4;stroke-dasharray:none;stroke-opacity:1"
         inkscape:connector-curvature="0"
         id="path4094"
         d="m 1588.7445,1367.0703 c 62.48,-31.4097 121.1753,-67.6671 166.175,-124.0873 -12.9838,-0.6991 -24.5637,-0.8452 -36.0281,-2.0763 -11.212,-1.2037 -22.3052,-3.5139 -33.4503,-6.2905 76.8695,-24.504 142.1578,-67.2732 201.105,-121.0623 -23.969,65.2528 -63.1511,119.6195 -116.6688,163.6661 -53.3607,43.917 -113.9182,73.5732 -181.1328,89.8503 z" /><path
         inkscape:connector-curvature="0"
         id="path5752"
         style="fill:none;stroke:#000000;stroke-width:8"
         d="m 1740.2222,1217.7942 -9.683,9.683 c -12.9106,12.9106 13.9713,14.313 26.882,1.4023 l 35.4612,-35.4612 c 14.1421,-14.1421 29.4682,27.1003 15.3261,41.2425 l -37.4844,37.4844 m -116.4097,59.8411 -8.0038,8.0038 c -10.6718,10.6718 37.3583,-9.074 48.0301,-19.7458 l 173.6745,-173.6745 m -202.7486,190.3768 -2.6494,-2.6494 c -3.5325,-3.5326 13.3618,-14.9225 16.8944,-11.3899 l 1.1986,1.1986 c 5.1307,5.1307 23.608,-4.6762 18.4773,-9.807 l -1.1013,-1.1013 c -6.5991,-6.5991 9.0619,-19.2223 15.661,-12.6232 l 1.0129,1.0128 c 7.9496,7.9496 24.9696,-3.3147 17.02,-11.2642 l -0.9981,-0.9981 c -9.2803,-9.2803 4.9127,-23.3716 14.193,-14.0913 l 1.0965,1.0965 c 10.7423,10.7423 26.5175,-1.7668 15.7752,-12.509 l -1.2421,-1.2421 c -12.3983,-12.3984 -20.891,-49.1753 -8.4926,-36.7769 l 22.2568,22.2568 c 14.1421,14.1421 28.4036,0.1192 14.2614,-14.0229 l -16.3833,-16.3833 c -14.1421,-14.1421 4.1541,-24.1302 18.2962,-9.9881 l 11.6631,11.6631 c 14.1421,14.1422 27.0065,-1.2778 12.8643,-15.4199 l -6.7321,-6.7322 c -14.1422,-14.1421 2.9726,-25.3116 17.1147,-11.1695 l 3.511,3.511 c 11.7841,11.7841 23.0772,-5.2071 11.2931,-16.9912 l -2.9242,-2.9241 c -7.8853,-7.8854 8.3037,-19.9807 16.189,-12.0953 l 3.0887,3.0887 c 3.7671,3.7671 13.2778,-15.0066 9.5107,-18.7736 l -2.8253,-2.8254 m -127.3898,98.8844 -12.9065,-12.9064" /></g><g
       id="g5754"><path
         style="fill:none;stroke:#000000;stroke-width:8;stroke-miterlimit:4;stroke-dasharray:none;stroke-opacity:1"
         inkscape:connector-curvature="0"
         id="path4120"
         d="m 1019.3935,309.3492 c 6.8122,27.9257 9.8176,53.5565 -1.5437,78.7431 -10.0286,22.2307 -29.592,32.7201 -51.4625,39.4764 -8.8586,2.7366 -18.293,4.4106 -27.5482,4.8593 -11.599,0.5618 -16.7144,-8.8465 -9.9784,-18.3699 3.81,-5.3867 9.3118,-10.4207 15.1789,-13.3702 36.8517,-18.5269 59.6036,-48.5956 72.9668,-86.7234 0.3229,-0.9235 0.8968,-1.7586 2.3871,-4.6153 z" /><path
         inkscape:connector-curvature="0"
         id="path5757"
         style="fill:none;stroke:#000000;stroke-width:8"
         d="m 1013.1901,332.62286 2.8659,-2.86591 c 3.8212,-3.82121 6.7091,21.57518 2.8879,25.39639 l -68.24734,68.24735 c -5.50604,5.50604 -18.65158,-9.63269 -13.14554,-15.13874 l 4.12953,-4.12953 m 42.79072,13.77783 28.65503,-28.65501 m -60.13112,37.43 -7.92997,-7.92996 c -10.57328,-10.57329 6.43383,-21.85044 17.00712,-11.27716 l 2.3878,2.3878 c 13.75702,13.75702 32.57045,4.28618 18.81343,-9.47084 l -1.59311,-1.59311 c -14.14214,-14.14214 0.52094,-27.76333 14.66307,-13.6212 l 2.18171,2.18171 c 12.62887,12.62891 22.05537,-6.22893 9.42647,-18.85784 l -3.5486,-3.54855 c -7.8975,-7.89751 2.899,-25.38527 10.7965,-17.48777 l 5.9231,5.92313" /></g><g
       id="g5759"><path
         style="fill:none;stroke:#000000;stroke-width:8;stroke-miterlimit:4;stroke-dasharray:none;stroke-opacity:1"
         inkscape:connector-curvature="0"
         id="path4100"
         d="m 1773.0969,315.7229 c -69.7301,-3.1096 -138.046,2.6025 -206.1918,27.3696 16.3922,-40.0407 39.8235,-72.1012 72.6135,-97.045 41.9282,-31.8946 89.746,-44.4189 142.0175,-41.873 -47.6595,19.9772 -97.699,35.885 -130.6161,80.0669 21.8768,-6.5911 43.5559,-7.8551 65.4364,-1.8634 21.7668,5.9607 40.3884,17.4065 56.7405,33.3449 z" /><path
         inkscape:connector-curvature="0"
         id="path5762"
         style="fill:none;stroke:#000000;stroke-width:8"
         d="m 1575.4194,336.07903 103.2375,-103.23757 c 14.0594,-14.05937 53.2506,-24.96626 39.1912,-10.90689 l -10.5445,10.54453 m -92.0578,92.05777 25.7359,-25.73594 c 14.1422,-14.14214 47.9593,-19.67493 33.8171,-5.5328 l -13.8341,13.83409 c -14.1421,14.14213 18.187,10.0973 32.3291,-4.04483 l 8.0574,-8.0574 c 12.7911,-12.7911 34.0724,-5.78806 21.2813,7.00304 l -5.1857,5.18563 c -5.8769,5.87694 22.5955,5.68881 28.4724,-0.18813 l 4.4077,-4.40771 m -158.037,27.99609 -5.0646,-5.06456 c -6.7527,-6.75275 3.9266,-24.35769 10.6794,-17.60495 l 6.1618,6.16185 c 14.1421,14.14214 37.5308,9.24657 23.3887,-4.89557 l -12.2762,-12.27622 c -14.1421,-14.14213 -1.0755,-29.35976 13.0666,-15.21762 l 23.6297,23.62969 c 14.1422,14.14213 39.6542,11.36986 25.512,-2.77228 l -5.956,-5.95599 c -14.1421,-14.14214 10.5676,-17.71673 24.7097,-3.57459 l 7.8918,7.89181 c 14.1422,14.14214 42.3307,14.04639 28.1886,-0.0957 l -14.0033,-14.00324 m -85.7931,-29.22458 10.7609,10.76094 c 11.5486,11.54853 25.1236,-3.16071 13.5751,-14.70925 l -0.979,-0.97898 c -10.2433,-10.24323 7.0726,-21.21165 17.3158,-10.96842 l 0.9689,0.9689 c 8.9514,8.95136 25.9065,-2.37776 16.9552,-11.32912 l -1.1139,-1.11389 c -7.4662,-7.46617 13.1863,-15.09796 20.6525,-7.63178 l 1.5607,1.5607 c 5.3852,5.38524 24.6996,-3.58464 19.3144,-8.96988 l -4.039,-4.03893" /></g><g
       id="g5764"><path
         style="fill:none;stroke:#000000;stroke-width:8;stroke-miterlimit:4;stroke-dasharray:none;stroke-opacity:1"
         inkscape:connector-curvature="0"
         id="path4082"
         d="m 1022.927,1176.2279 c 9.3873,37.77 22.3718,72.67 39.7853,105.8617 25.1548,47.9468 57.1238,90.2239 103.5426,119.5675 15.5431,9.8252 32.6356,17.1986 48.3319,25.3359 -21.2311,11.2755 -93.0387,-6.0101 -128.536,-31.5494 -38.2366,-27.5095 -64.2785,-64.3751 -82.8645,-107.5319 -65.146,53.6461 -140.7935,64.8269 -221.1126,57.9727 104.018,-22.0497 181.1455,-82.1799 240.8533,-169.6565 z" /><path
         inkscape:connector-curvature="0"
         id="path5767"
         style="fill:none;stroke:#000000;stroke-width:8"
         d="m 829.67337,1336.3835 -3.53467,3.5346 c -4.7129,4.7129 24.73037,3.5539 29.44327,-1.159 l 30.06785,-30.0678 m -1.03208,29.3163 129.55806,-129.558 c 14.1422,-14.1422 20.9885,7.2958 6.8463,21.4379 l -98.53739,98.5374 m 54.46599,-26.1817 51.6621,-51.662 c 14.1421,-14.1422 22.4482,5.836 8.3061,19.9781 l -14.7176,14.7176 c -14.1421,14.1421 -4.7783,33.0625 9.3639,18.9204 l 14.5939,-14.5939 c 14.1421,-14.1421 24.2477,4.0365 10.1056,18.1787 l -13.7276,13.7275 c -14.1421,14.1422 -2.6039,30.8883 11.5382,16.7461 l 12.601,-12.601 c 14.1422,-14.1422 25.4424,2.8418 11.3003,16.984 l -10.8068,10.8068 c -14.1421,14.1421 0.1829,28.1014 14.325,13.9592 l 8.721,-8.721 c 14.1422,-14.1421 27.3213,0.9631 13.1791,15.1052 l -6.309,6.309 c -14.1421,14.1421 3.0994,25.1849 17.2416,11.0427 l 3.8049,-3.8049 c 13.4168,-13.4168 28.6963,-0.412 15.2795,13.0048 l -2.3023,2.3022 c -10.3471,10.3472 10.6917,17.5927 21.0388,7.2455 l 2.4252,-2.4252 c 7.1136,-7.1135 24.957,3.3273 17.8435,10.4408 l -3.2371,3.2371 c -2.7975,2.7975 22.1785,6.1058 24.9759,3.3083 l 2.0981,-2.098 m -345.74697,-79.9203 -5.06411,-5.0641 c -6.75214,-6.7522 13.38599,-14.8983 20.13813,-8.1462 l 2.64884,2.6489 c 10.28393,10.2839 34.01513,5.7308 23.7312,-4.5531 l -2.48811,-2.4881 c -13.60141,-13.6014 4.49513,-23.7892 18.09653,-10.1878 l 3.4317,3.4317 c 14.14214,14.1422 34.38229,6.0981 20.24016,-8.0441 l -6.09874,-6.0987 c -14.14213,-14.1422 2.15374,-26.1306 16.29587,-11.9884 l 8.75203,8.752 c 14.14214,14.1421 31.99119,3.7069 17.84905,-10.4352 l -10.8944,-10.8944 c -14.14213,-14.1421 0.56521,-27.7191 14.70734,-13.5769 l 23.14687,23.1468 m 26.04601,26.046 83.9076,83.9076 c 14.1421,14.1421 53.7824,25.4981 39.6402,11.356 L 986.2165,1251.8662 c -14.14214,-14.1422 -0.83605,-29.1204 13.30609,-14.9782 l 78.73321,78.7332 m 89.9344,89.9344 20.9045,20.9045 m -143.027,-171.3113 -37.0391,-37.039 c -9.30764,-9.3077 2.763,-25.5214 12.0707,-16.2137 l 6.9807,6.9808" /></g><g
       id="g5769"><path
         style="fill:none;stroke:#000000;stroke-width:8;stroke-miterlimit:4;stroke-dasharray:none;stroke-opacity:1"
         inkscape:connector-curvature="0"
         id="path4124"
         d="m 689.8244,1307.4724 c 12.5262,-1.1154 25.0849,-1.9503 37.5723,-3.3988 35.2253,-4.0858 69.0227,-14.3566 102.9567,-24.0521 6.2974,-1.7992 12.8719,-3.1371 19.3881,-3.5254 6.7975,-0.4054 9.4579,4.6642 5.1033,9.9022 -3.9841,4.7919 -8.8434,9.3282 -14.2136,12.4202 -40.0801,23.0771 -82.5524,32.0896 -128.0886,19.7947 -8.0184,-2.1652 -15.5761,-6.0361 -23.3467,-9.1198 0.2097,-0.6742 0.4194,-1.3479 0.6285,-2.021 z" /><path
         inkscape:connector-curvature="0"
         id="path5772"
         style="fill:none;stroke:#000000;stroke-width:8"
         d="m 715.46633,1309.1692 -2.29799,2.2979 c -3.06398,3.064 20.27998,8.0043 23.34397,4.9404 l 4.61776,-4.6178 c 9.22101,-9.221 45.43524,-17.151 36.21424,-7.93 l -5.37951,5.3795 c -14.14213,14.1422 19.79791,8.4864 33.94005,-5.6557 l 12.32709,-12.3271 c 6.87121,-6.8713 36.54064,-8.2564 29.66943,-1.3852 l -5.1534,5.1534 m -132.67808,20.1062 -2.50972,-2.5097 c -3.34628,-3.3463 21.80186,-6.4824 25.14814,-3.1361 l 4.19412,4.1941 c 8.93845,8.9384 35.74135,7.4571 26.80291,-1.4814 l -0.87659,-0.8766 c -10.10722,-10.1072 12.9294,-15.3548 23.03662,-5.2476 l 1.04827,1.0482 c 9.66111,9.6611 30.50918,2.225 20.84808,-7.4361 l -1.52774,-1.5278 c -7.62411,-7.6241 14.52342,-13.7608 22.14753,-6.1367 l 3.59425,3.5942 c 2.83177,2.8318 18.88399,-9.4003 16.05222,-12.232 l -2.12382,-2.1239" /></g><g
       id="g5774"><path
         style="fill:none;stroke:#000000;stroke-width:8;stroke-miterlimit:4;stroke-dasharray:none;stroke-opacity:1"
         inkscape:connector-curvature="0"
         id="path4070"
         d="m 1607.7015,676.3273 c -70.6388,-56.1723 -147.3247,-93.2941 -241.752,-83.4987 1.219,2.0572 1.4286,2.8447 1.9397,3.2114 41.2914,29.6467 59.7427,71.2858 62.7755,120.7 2.2446,36.5746 -5.3441,71.7606 -16.7272,106.2684 -0.2961,0.8967 -0.999,1.6594 -2.6234,4.2714 0,-4.1208 -0.1366,-6.4271 0.02,-8.7137 7.6587,-112.0034 -54.4939,-195.1971 -148.0574,-237.8638 -27.6893,-12.6267 -56.6414,-20.9597 -86.8467,-24.8631 -0.9667,-0.1246 -1.9066,-0.4525 -3.4186,-2.204 2.816,-1.0658 5.6003,-2.2237 8.4519,-3.1827 26.9673,-9.0734 54.8802,-12.7671 83.1365,-14.1024 52.2422,-2.469 104.0923,1.6867 155.6807,9.8209 1.7114,0.2701 3.4585,0.3133 7.1262,0.6292 -29.9531,-38.5155 -69.2197,-62.5461 -108.5715,-87.3183 13.4738,2.9577 26.9419,5.9422 40.4227,8.8688 83.5585,18.1399 145.9412,67.664 196.7897,133.7263 16.8688,21.9162 32.0477,45.1339 47.9504,67.7904 1.4204,2.0233 2.4779,4.3011 3.7038,6.4599 z" /><path
         inkscape:connector-curvature="0"
         id="path5777"
         style="fill:none;stroke:#000000;stroke-width:8"
         d="m 1225.9814,544.09562 -7.2462,7.24624 c -9.6617,9.66167 12.2794,16.00483 21.9411,6.34316 l 6.2171,-6.21715 c 14.1422,-14.14213 43.3043,-15.01996 29.1621,-0.87783 l -11.3807,11.38078 c -14.1422,14.14213 5.1664,23.11779 19.3086,8.97566 l 20.1873,-20.1873 c 14.1421,-14.14214 41.3428,-13.05854 27.2007,1.0836 l -28.938,28.9379 c -14.1421,14.14214 3.4051,24.87924 17.5472,10.73711 l 37.2928,-37.29279 c 14.1421,-14.14213 39.5397,-11.25541 25.3976,2.88672 l -46.3795,46.37945 c -14.1421,14.14213 1.0959,27.18838 15.238,13.04624 l 5.1963,-5.19629 c 14.1422,-14.14214 29.4127,-1.1284 15.2706,13.01374 l -6.3337,6.33363 c -14.1421,14.14213 -1.1641,29.44839 12.978,15.30625 l 6.6713,-6.67126 c 14.1421,-14.14214 25.373,2.91124 11.2309,17.05337 l -6.2498,6.24983 c -14.1422,14.14214 -3.8164,32.1006 10.3258,17.95847 l 4.9428,-4.94286 c 14.1422,-14.14214 20.4246,7.85968 6.2825,22.00182 l -2.9836,2.98355 c -13.2871,13.2871 -5.9946,34.27895 7.2925,20.99185 l 2.5113,-2.51131 c 9.9387,-9.9387 10.4299,17.85436 0.4912,27.79307 l -3.3216,3.32162 c -5.5099,5.50987 -2.1349,30.41915 3.3749,24.90928 l 4.1324,-4.1324 m -68.2315,-299.46402 -1.9364,1.9364 c -2.5818,2.58186 14.0878,14.19656 16.6696,11.61469 l 2.8527,-2.85264 c 6.3854,-6.3854 27.687,0.59726 21.3016,6.98265 l -2.529,2.529 c -9.7574,9.75738 5.6204,22.66383 15.3778,12.90644 l 2.4004,-2.40039 c 12.9579,-12.95791 31.7007,-3.4164 18.7428,9.54151 l -3.2524,3.25238 c -14.1422,14.14214 -0.8387,29.12296 13.3034,14.98082 l 6.7254,-6.72532 c 14.1421,-14.14213 31.0122,-2.72798 16.8701,11.41416 l -42.5741,42.5741 c -14.1422,14.14214 12.1224,16.16187 26.2645,2.01973 l 32.2356,-32.23561 c 14.1422,-14.14213 29.0809,-0.79663 14.9388,13.34551 l -23.6298,23.62978 c -14.1421,14.14214 8.0373,20.24697 22.1794,6.10483 l 15.8217,-15.82165 c 14.1421,-14.14214 27.8171,0.46718 13.6749,14.60932 l -8.4396,8.43965 c -14.1421,14.14213 5.5466,22.73771 19.6887,8.59558 l 3.9178,-3.91784 c 11.1051,-11.10506 23.5768,4.70754 12.4717,15.8126 l -3.1054,3.10535 c -6.9646,6.9646 11.1238,17.16056 18.0884,10.19596 l 2.6501,-2.65015 c 3.4311,-3.43106 15.2239,13.06043 11.7928,16.49148 l -2.5733,2.5733 m -195.1814,-59.37701 38.2185,-38.21854 m -221.985,6.65127 -2.4176,-2.41766 c -3.2236,-3.22355 19.5271,-8.7571 22.7507,-5.53354 l 6.7237,6.72371 c 12.1885,12.18851 62.2535,33.96921 50.065,21.7807 l -24.0864,-24.08637 c -14.1421,-14.14214 11.9949,-16.28939 26.137,-2.14725 l 139.117,139.11697 c 14.1421,14.14214 15.7871,44.07133 1.6449,29.9292 l -20.4348,-20.43482 c -10.5557,-10.55569 10.919,39.20325 21.4747,49.75894 l 4.7891,4.78915 c 4.1702,4.17015 0.1402,28.42443 -4.03,24.25428 l -3.1276,-3.12761 m 1.0186,-112.11853 -112.6369,-112.63692 c -14.1422,-14.14214 14.6726,-13.61161 28.8148,0.53053 l 27.0358,27.03584 c 14.1421,14.14213 41.2299,12.94558 27.0877,-1.19656 l -24.1685,-24.16849 c -14.1421,-14.14214 17.007,-11.27734 31.1491,2.8648 l 23.1361,23.1361 c 14.1421,14.14214 50.0918,21.80752 35.9497,7.66538 l -36.8441,-36.84406 m 87.1367,58.85249 -122.567,-122.56708 c -14.1422,-14.14213 28.3724,0.0881 42.5145,14.23027 l 127.1622,127.16218 c 14.1421,14.14214 5.4368,-22.84747 -8.7053,-36.9896 l -68.9684,-68.96838" /></g><g
       id="g5779"><path
         style="fill:none;stroke:#000000;stroke-width:8;stroke-miterlimit:4;stroke-dasharray:none;stroke-opacity:1"
         inkscape:connector-curvature="0"
         id="path4084"
         d="m 1840.4773,602.5598 c 3.149,14.4144 6.7418,26.5873 8.3667,39.0182 8.2124,62.8193 -7.8036,120.4788 -38.8815,174.559 -32.6686,56.8485 -77.8673,102.562 -128.7654,143.0578 -9.8615,7.8463 -20.0248,15.3123 -30.5981,22.4348 60.881,-81.9353 118.2849,-165.5198 143.9545,-266.5566 -47.7319,28.8828 -98.2518,26.7989 -149.931,16.2899 77.5312,-22.8404 140.8043,-67.2759 195.8548,-128.8031 z" /><path
         inkscape:connector-curvature="0"
         id="path5782"
         style="fill:none;stroke:#000000;stroke-width:8"
         d="m 1711.9556,708.65972 -14.2729,14.27289 c -14.1422,14.14213 13.5414,14.74287 27.6835,0.60073 l 102.2916,-102.29161 c 14.1422,-14.14214 19.1691,9.11523 5.0269,23.25737 l -74.6441,74.64413 c -14.1421,14.14214 28.6792,27.8893 42.8214,13.74716 l 35.1403,-35.14032 c 14.1421,-14.14214 13.8422,-42.12652 -0.2999,-27.98438 l -40.4047,40.40474 m -21.0979,77.66638 57.6644,-57.6644 c 14.1422,-14.14213 6.0031,22.28125 -8.1391,36.42339 l -76.9073,76.90732 m -46.7595,75.04377 108.7657,-108.76568 m -120.3931,126.06556 3.2303,3.23031 c 4.3071,4.30707 19.5972,-8.6871 15.2901,-12.99417 l -1.7743,-1.77428 c -6.6728,-6.67279 4.5875,-23.69673 11.2603,-17.02395 l 1.6582,1.65814 c 8.8836,8.88363 23.081,-5.20321 14.1974,-14.08684 l -1.5512,-1.55118 c -10.9518,-10.95186 -0.2766,-28.56091 10.6752,-17.60904 l 1.6349,1.63486 c 13.1317,13.13168 26.2969,-1.98741 13.1652,-15.11909 l -2.0584,-2.05835 c -14.1421,-14.14213 -4.2197,-32.50404 9.9224,-18.3619 l 3.8522,3.85221 c 14.1422,14.14213 25.9018,-2.38251 11.7596,-16.52465 l -6.2588,-6.25879 c -14.1421,-14.14214 -5.1544,-33.43875 8.9877,-19.29661 l 8.3199,8.31988 c 14.1421,14.14214 24.4391,-3.84515 10.297,-17.98729 l -10.5542,-10.55419 c -14.1421,-14.14213 -6.3665,-34.65075 7.7756,-20.50862 l 12.1864,12.18638 c 14.1421,14.14213 22.5042,-5.78012 8.362,-19.92226 l -24.6604,-24.66039 m -110.2216,2.91545 -4.1157,-4.1157 c -5.4876,-5.48759 14.2842,-14.0001 19.7718,-8.5125 l 4.6706,4.67064 c 11.7151,11.71512 37.5978,9.31352 25.8827,-2.40159 l -5.0405,-5.04047 c -14.1421,-14.14213 4.1794,-24.10493 18.3215,-9.96279 l 7.2846,7.28461 c 14.1422,14.14214 34.0676,5.78334 19.9255,-8.35879 l -9.7201,-9.72015 c -14.1422,-14.14213 2.4694,-25.81483 16.6115,-11.67269 l 48.3854,48.38539 c 14.1422,14.14214 19.6808,-8.6035 5.5387,-22.74564 l -37.851,-37.85094 c -14.1421,-14.14213 1.3213,-26.96303 15.4634,-12.82089 l 25.9816,25.98158 c 14.1421,14.14213 15.2605,-13.02379 1.1183,-27.16593 l -14.398,-14.39798 c -11.5202,-11.52025 2.74,-25.54432 14.2602,-14.02407 l 8.6402,8.64018" /></g><g
       id="g5784"><path
         style="fill:none;stroke:#000000;stroke-width:8;stroke-miterlimit:4;stroke-dasharray:none;stroke-opacity:1"
         inkscape:connector-curvature="0"
         id="path4088"
         d="m 1172.7615,1064.323 c 103.0685,-5.3937 198.0925,-28.7836 275.1725,-102.4362 -1.1453,3.8271 -2.0286,7.7572 -3.4763,11.4662 -14.7468,37.7948 -41.7155,64.8542 -76.9808,83.1517 -19.2316,9.9784 -40.3331,16.3558 -60.6,24.335 -1.6315,0.6425 -3.3328,1.109 -7.2819,2.4061 60.2473,31.9104 120.5321,51.1764 187.6876,32.7659 0.3031,0.7925 0.6063,1.5844 0.9094,2.3768 -15.6588,8.1442 -30.8479,17.4 -47.0588,24.2345 -60.3744,25.4535 -119.6138,19.8519 -177.4202,-8.7976 -32.1716,-15.9447 -60.382,-37.4103 -85.4091,-63.1002 -1.6791,-1.7228 -3.1599,-3.6377 -5.5424,-6.4022 z" /><path
         inkscape:connector-curvature="0"
         id="path5787"
         style="fill:none;stroke:#000000;stroke-width:8"
         d="m 1214.1885,1065.0054 -8.8022,8.8023 c -11.7364,11.7363 3.5879,24.6963 15.3243,12.9599 l 15.3186,-15.3186 c 14.1421,-14.1421 50.2202,-21.9359 36.0781,-7.7938 l -33.4392,33.4392 c -14.1421,14.1421 2.9062,25.378 17.0484,11.2359 l 55.3415,-55.3416 c 14.1422,-14.1421 -4.5852,32.8696 -18.7274,47.0117 l -18.4186,18.4187 c -14.1422,14.1421 5.2813,23.0029 19.4234,8.8608 l 17.8993,-17.8993 c 14.1421,-14.1421 33.8674,-5.5831 19.7252,8.559 l -16.8152,16.8153 c -14.1422,14.1421 8.4349,19.8493 22.577,5.7072 l 15.0279,-15.0279 c 14.1421,-14.1421 36.2758,-7.9915 22.1336,6.1507 l -12.2435,12.2435 c -14.1422,14.1422 14.7355,13.5488 28.8776,-0.5934 l 7.4113,-7.4112 c 14.0427,-14.0428 41.1016,-12.8174 27.0589,1.2254 l -10.5321,10.532 m -42.7562,-126.9494 -40.0706,40.0706 c -14.1421,14.1422 33.7798,-5.4955 47.9219,-19.6376 l 54.7497,-54.74971 m -173.2355,144.41941 -53.6357,-53.6356 c -14.1421,-14.1421 11.5438,-16.7405 25.6859,-2.5984 l 61.5472,61.5472 c 14.1422,14.1422 48.9143,20.63 34.7722,6.4879 l -71.3685,-71.3685 c -14.1422,-14.1421 9.4373,-18.8469 23.5795,-4.7048 l 78.6406,78.6406 c 14.1421,14.1421 38.7557,10.4715 24.6136,-3.6707 l -18.2165,-18.2164 c -14.1421,-14.1422 23.2405,-5.0438 37.3827,9.0984 l 8.0184,8.0184 c 8.3058,8.3058 29.1599,0.8756 20.8541,-7.4302 l -4.2479,-4.2479 c -2.642,-2.642 24.839,-3.4452 27.481,-0.8032 l 1.9815,1.9815 m -164.2153,-79.3625 11.9373,11.9372 c 14.1268,14.1269 34.6991,6.4149 20.5723,-7.7119 l -0.4682,-0.4682 c -13.5026,-13.5026 7.1874,-21.0968 20.6901,-7.5942 l 0.896,0.896 c 12.3079,12.3079 30.792,2.5077 18.4841,-9.8002 l -0.6744,-0.6744 c -11.4087,-11.4087 7.1143,-21.1699 18.523,-9.7612 l 1.5489,1.5488 c 9.3435,9.3436 24.4006,-3.8835 15.0571,-13.2271 l -1.8448,-1.8448 c -6.8838,-6.8838 10.0443,-18.23992 16.9282,-11.3561 l 2.5833,2.5833 c 3.4394,3.4395 14.5431,-13.74114 11.1037,-17.18056 l -2.5796,-2.57957" /></g><g
       id="g5789"><path
         style="fill:none;stroke:#000000;stroke-width:8;stroke-miterlimit:4;stroke-dasharray:none;stroke-opacity:1"
         inkscape:connector-curvature="0"
         id="path4106"
         d="m 1239.0889,1554.2058 c -20.1411,-3.3708 -40.4526,-5.9524 -60.3859,-10.2797 -39.5591,-8.5872 -76.8658,-22.9209 -109.6373,-47.3639 -19.1484,-14.2828 -36.0751,-30.8593 -45.7103,-53.0951 -3.709,-8.5598 -5.7255,-18.4874 -5.8036,-27.8145 -0.084,-10.1094 7.3785,-14.5072 16.9812,-11.0321 6.5645,2.3755 13.1484,5.8729 18.4456,10.373 25.5387,21.6963 50.5397,44.0236 75.9283,65.8984 33.0189,28.4474 67.4556,54.7627 108.9237,70.1272 0.6304,0.2339 1.0962,0.9114 1.6389,1.3817 -0.1265,0.6019 -0.2536,1.2037 -0.3806,1.805 z" /><path
         inkscape:connector-curvature="0"
         id="path5792"
         style="fill:none;stroke:#000000;stroke-width:8"
         d="m 1022.7177,1426.1818 7.751,-7.7509 c 10.3346,-10.3346 27.1896,1.0946 16.8551,11.4292 l -6.7641,6.7641 c -14.1422,14.1421 -3.05,31.3342 11.0921,17.1921 l 7.9586,-7.9586 c 14.1421,-14.1421 29.2843,-1.0001 15.1422,13.1421 l -9.5505,9.5504 c -14.1421,14.1422 1.1855,27.0988 15.3276,12.9567 l 9.3652,-9.3651 c 14.1421,-14.1422 29.2844,-1.0002 15.1422,13.142 l -7.5077,7.5077 c -14.1421,14.1422 3.8297,24.4546 17.9718,10.3125 l 4.7756,-4.7756 c 14.1422,-14.1422 29.6148,-1.3305 15.4726,12.8116 l -3.0433,3.0433 c -11.7412,11.7412 9.1418,19.1425 20.883,7.4013 l 2.7976,-2.7976 c 8.0111,-8.0111 24.3976,3.8867 16.3865,11.8978 l -2.715,2.715 c -4.3911,4.3911 18.6915,9.5928 23.0827,5.2016 l 3.2933,-3.2934 m -88.1301,-19.9328 -74.5408,-74.5408 c -14.1421,-14.1422 -8.6922,-36.9765 5.4499,-22.8344 l 104.9791,104.979 c 14.1421,14.1422 51.0806,22.7964 36.9385,8.6542 l -25.6298,-25.6297" /></g><g
       id="g5794"><path
         style="fill:none;stroke:#000000;stroke-width:8;stroke-miterlimit:4;stroke-dasharray:none;stroke-opacity:1"
         inkscape:connector-curvature="0"
         id="path4112"
         d="m 682.5463,619.0289 c 1.8443,8.0737 3.8633,16.1125 5.503,24.2282 7.3544,36.3928 26.1678,64.349 57.5546,85.1015 41.2241,27.2565 83.9531,51.6938 128.8074,72.1298 43.8698,19.9879 88.6554,37.9651 133.033,56.8396 1.7801,0.7576 3.4954,1.6682 4.7067,4.2548 -19.4542,-4.5606 -39.0131,-8.7188 -58.3427,-13.7566 -56.0662,-14.6127 -109.9189,-34.9686 -159.251,-65.6926 -26.2727,-16.3622 -51.2889,-34.7335 -77.003,-52.0039 -13.0423,-8.7595 -26.5835,-15.6746 -43.3621,-12.7181 -20.6693,3.6415 -33.7166,16.1138 -37.1002,36.8669 -0.5275,3.2368 -0.7156,6.5281 -1.2895,11.9594 -6.0724,-16.2263 -5.9402,-30.0293 3.1046,-42.6757 4.3858,-6.1322 9.9282,-11.5723 15.5507,-16.6578 12.0426,-10.8917 17.3664,-24.5307 18.6966,-40.384 1.0378,-12.3724 2.7823,-24.6946 4.5294,-36.994 0.5091,-3.5812 2.1074,-7.0073 3.2062,-10.5046 0.5518,0.003 1.104,0.005 1.6563,0.007 z" /><path
         inkscape:connector-curvature="0"
         id="path5797"
         style="fill:none;stroke:#000000;stroke-width:8"
         d="m 676.81646,668.99652 5.41096,-5.41096 c 7.2146,-7.2146 15.28919,12.99508 8.07459,20.20968 l -44.52439,44.52439 c -11.59441,11.59441 40.13551,-11.85124 51.72992,-23.44565 l 4.1392,-4.1392 c 6.07548,-6.07548 18.95617,9.32811 12.88069,15.40358 l -1.0872,1.0872 c -4.62587,4.62587 12.50842,15.77586 17.13428,11.14999 l 0,0 c 4.62587,-4.62587 21.39404,6.89024 16.76817,11.5161 l -0.006,0.006 c -4.63351,4.63351 12.16134,16.12293 16.79485,11.48942 l 0.23917,-0.23916 c 4.9524,-4.9524 22.55472,5.72954 17.60233,10.68194 l -0.29665,0.29664 c -5.34792,5.34793 11.66111,16.62316 17.00904,11.27524 l 0.39938,-0.39938 c 5.88043,-5.88043 24.17955,4.10472 18.29912,9.98515 l -0.14861,0.14861 c -6.07858,6.07858 12.05319,16.23107 18.13177,10.1525 l 0.23695,-0.23695 c 6.17017,-6.17017 25.24324,3.04103 19.07307,9.2112 l -0.11585,0.11585 c -6.0157,6.0157 13.47821,14.80606 19.49391,8.79036 l 0.40609,-0.40609 c 5.47425,-5.47425 25.18755,3.09672 19.7133,8.57097 l -0.52369,0.5237 c -4.77598,4.77597 15.98471,12.29955 20.76069,7.52357 l 0.92259,-0.92259 c 3.54586,-3.54586 23.46329,4.82098 19.91743,8.36685 l -2.6594,2.6594 m -278.86746,-116.09987 -2.0936,-2.0936 c -2.79146,-2.79146 11.15522,-17.12904 13.94669,-14.33758 l 3.18368,3.18368 c 7.03637,7.03637 29.52262,-27.04592 22.48625,-34.0823 l -4.03712,-4.03712 c -12.4192,-12.4192 -16.91044,11.37383 -4.49124,23.79303 l 32.6803,32.68031 m 33.00832,4.72405 46.56942,46.56942 m 31.69385,3.40958 16.9929,16.9929 c 14.14214,14.14213 61.12556,32.84129 46.98343,18.69915 l -13.47513,-13.47512 m 65.20652,36.92224 -10.49521,-10.4952" /></g><g
       id="g5799"><path
         style="fill:none;stroke:#000000;stroke-width:8;stroke-miterlimit:4;stroke-dasharray:none;stroke-opacity:1"
         inkscape:connector-curvature="0"
         id="path4074"
         d="m 1437.4534,916.4041 c -13.3518,6.3909 -26.4741,13.5049 -40.2162,19.095 -43.7585,17.7992 -89.7561,25.8551 -136.6135,28.9628 -76.9058,5.1007 -152.7439,-3.4617 -227.9141,-19.355 -0.9609,-0.2034 -1.8914,-0.5504 -2.8726,-1.6911 54.0497,-1.6949 107.6735,-7.1293 160.8843,-16.213 53.1008,-9.0645 105.4982,-21.1422 158.6003,-38.5117 -5.3295,-9.2317 -9.5742,-18.08 -15.1528,-25.988 -23.1332,-32.7932 -54.6852,-55.5101 -89.8712,-73.7014 -29.4941,-15.2488 -60.7207,-25.8228 -92.7177,-34.3179 -2.3807,-0.6324 -4.708,-1.4642 -6.9159,-2.8796 51.5242,-7.7852 100.9675,-0.8262 148.2583,20.9228 72.9111,33.532 125.18,101.3503 144.5311,143.6771 z" /><path
         inkscape:connector-curvature="0"
         id="path5802"
         style="fill:none;stroke:#000000;stroke-width:8"
         d="m 1186.9357,752.84701 -3.278,3.27799 c -4.3707,4.37065 16.9315,11.35276 21.3021,6.98211 l 2.6606,-2.6606 c 7.9181,-7.91811 32.3069,-4.02262 24.3888,3.89549 l -1.964,1.96401 c -10.5368,10.53677 8.7392,19.54506 19.276,9.00828 l 1.4755,-1.47546 c 12.504,-12.50405 33.2203,-4.93609 20.7163,7.56797 l -1.1985,1.19841 c -14.1019,14.10194 3.473,24.81131 17.575,10.70937 l 1.6115,-1.61153 c 14.1421,-14.14213 32.4632,-4.17891 18.321,9.96322 l -3.3141,3.31411 c -14.1421,14.14214 0.9462,27.33804 15.0884,13.1959 l 5.0309,-5.03093 c 14.1422,-14.14214 30.0485,-1.7642 15.9064,12.37794 l -6.8675,6.86747 c -14.1422,14.14213 -1.3375,29.62176 12.8046,15.47962 l 9.1949,-9.19492 c 14.1422,-14.14213 28.348,-0.0637 14.2059,14.07843 l -23.0977,23.0977 m -266.7879,68.79804 -2.1645,2.16445 c -2.8859,2.88594 21.5007,6.78353 24.3867,3.89759 l 3.2342,-3.23423 c 7.1983,-7.19826 39.2788,-10.9945 32.0805,-3.79625 l -3.4702,3.47028 c -11.8253,11.8253 13.5751,14.70916 25.4004,2.88387 l 5.9204,-5.92039 c 14.1421,-14.14214 48.2759,-19.99163 34.1337,-5.84949 l -11.5182,11.51819 c -14.1421,14.14213 12.6562,15.62807 26.7984,1.48594 l 20.0848,-20.08486 c 14.1421,-14.14213 51.0196,-22.73535 36.8775,-8.59321 l -28.5464,28.54636 c -14.1421,14.14214 15.5008,12.78347 29.643,-1.35866 l 48.3638,-48.36388 m -27.5987,55.88303 89.5012,-89.50117 c 14.1421,-14.14213 26.6242,1.66003 12.4821,15.80217 l -57.687,57.68692 c -14.1421,14.14214 23.2176,5.06672 37.3597,-9.07542 l 33.8294,-33.82939 c 11.6108,-11.61081 22.1191,6.1652 10.5083,17.77601 l -8.7081,8.70811 m -330.7601,24.9411 -2.3856,-2.38565 c -3.1809,-3.18087 22.9238,-5.36048 26.1046,-2.17961 l 3.4427,3.4427 c 7.7712,7.77112 40.1666,11.88228 32.3955,4.11116 l -3.4037,-3.40364 c -12.3093,-12.30932 12.9821,-15.30217 25.2915,-2.99286 l 3.2786,3.27864 c 14.1421,14.14214 43.961,15.67678 29.8189,1.53464 l -7.2294,-7.22942 c -14.1422,-14.14214 10.1058,-18.17847 24.2479,-4.03633 l 11.1187,11.11872 c 14.1422,14.14213 41.2111,12.92679 27.069,-1.21534 l -14.3452,-14.34518 c -14.1421,-14.14214 9.2037,-19.08053 23.3459,-4.9384 l 16.8214,16.82142 c 14.1421,14.14214 38.9661,10.68184 24.824,-3.46029 l -18.4779,-18.47791 c -14.1422,-14.14213 8.2868,-19.99741 22.429,-5.85527 l 19.9458,19.94582 c 14.1421,14.14214 36.8169,8.53266 22.6748,-5.60947 l -20.3651,-20.36507 c -14.1421,-14.14213 7.5496,-20.73463 21.6918,-6.5925 l 20.0277,20.02774 c 14.1422,14.14213 34.7908,6.50654 20.6487,-7.63559 l -42.7045,-42.70447 m -134.9726,-106.68834 -8.4542,-8.45426 c -11.2724,-11.27234 20.2108,-8.07343 31.4831,3.19891 l 34.1942,34.19418 m -4.9913,-33.27559 144.7813,144.7813 c 14.1421,14.14213 19.2593,-9.02501 5.1171,-23.16715 l -97.7969,-97.79695" /></g><g
       id="g5804"><path
         style="fill:none;stroke:#000000;stroke-width:8;stroke-miterlimit:4;stroke-dasharray:none;stroke-opacity:1"
         inkscape:connector-curvature="0"
         id="path4138"
         d="m 664.613,568.671 c 2.9189,3.3143 5.8023,6.6603 8.7645,9.9352 4.3038,4.7576 8.9139,5.4382 13.7757,0.8058 6.5917,-6.2809 13.2513,-12.4957 19.6677,-18.9514 1.5151,-1.5246 2.1741,-3.899 4.6375,-4.666 -5.3721,15.4306 -11.9537,29.7852 -22.7919,41.6473 -3.8398,4.2028 -8.6082,4.082 -11.5494,-0.6863 -5.3391,-8.6547 -9.8729,-17.8055 -14.743,-26.75 0.7461,-0.4449 1.4922,-0.8898 2.2389,-1.3346 z" /><path
         inkscape:connector-curvature="0"
         id="path5807"
         style="fill:none;stroke:#000000;stroke-width:8"
         d="m 686.66543,584.61957 3.9284,3.92839" /></g><g
       id="g5809"><path
         style="fill:none;stroke:#000000;stroke-width:8;stroke-miterlimit:4;stroke-dasharray:none;stroke-opacity:1"
         inkscape:connector-curvature="0"
         id="path4134"
         d="m 1094.7709,266.2064 c -20.2467,13.5259 -25.0284,34.2028 -26.7849,56.3516 -0.3611,4.551 -0.6985,9.1745 -1.8214,13.5666 -0.6184,2.4175 -2.5732,5.9002 -4.4233,6.2473 -2.429,0.4557 -6.1677,-0.959 -7.9148,-2.8726 -7.0366,-7.709 -8.1831,-17.3181 -6.5332,-27.1542 4.1549,-24.7748 21.5258,-41.8349 47.4776,-46.1387 z" /><path
         inkscape:connector-curvature="0"
         id="path5812"
         style="fill:none;stroke:#000000;stroke-width:8"
         d="m 1060.4179,285.3951 3.1423,-3.14229 c 4.1897,-4.18971 3.2909,24.99338 -0.8989,29.18309 l -12.4695,12.46956 m 1.1605,3.14704 5.09,5.09 c 6.7867,6.78666 10.4771,-17.80725 3.6904,-24.59392 l -3.1169,-3.11691 c -3.4389,-3.43885 7.6363,-20.64791 11.0752,-17.20905 l 2.5791,2.57914" /></g><g
       id="g5814"><path
         style="fill:none;stroke:#000000;stroke-width:8;stroke-miterlimit:4;stroke-dasharray:none;stroke-opacity:1"
         inkscape:connector-curvature="0"
         id="path4110"
         d="m 792.1818,1475.5929 c 10.7855,-4.9108 21.6111,-9.7369 32.3508,-14.7467 55.0844,-25.6951 103.8813,-59.6595 142.1401,-107.6375 5.1929,-6.5122 11.1478,-12.5828 17.517,-17.9479 7.5062,-6.3235 13.9117,-4.1963 17.7357,5.2488 5.5691,13.7561 3.7808,27.5787 -0.9965,41.0061 -9.7109,27.2979 -29.5971,45.7325 -54.0014,59.7848 -34.8364,20.0585 -73.1898,28.424 -112.6078,32.842 -13.8557,1.5532 -27.7884,2.4226 -41.6855,3.6047 -0.1512,-0.718 -0.3019,-1.436 -0.4524,-2.1543 z" /><path
         inkscape:connector-curvature="0"
         id="path5817"
         style="fill:none;stroke:#000000;stroke-width:8"
         d="m 863.07313,1444.4051 -15.63105,15.631 c -14.14213,14.1422 20.70111,7.5832 34.84325,-6.559 l 103.64774,-103.6477 c 14.14213,-14.1421 18.98123,9.303 4.8391,23.4452 l -79.89145,79.8914 m 55.41954,-27.1352 8.45859,-8.4586 m -138.30559,52.2262 -3.50275,-3.5027 c -4.67032,-4.6703 13.91449,-14.3698 18.58482,-9.6995 l 3.14352,3.1436 c 8.8617,8.8617 32.00064,3.7163 23.13895,-5.1454 l -2.27707,-2.277 c -11.89778,-11.8978 5.56446,-22.7198 17.46224,-10.8221 l 2.62018,2.6202 c 14.14214,14.1422 34.44858,6.1643 20.30644,-7.9778 l -4.5054,-4.5054 c -14.14213,-14.1421 1.84379,-26.4405 15.98593,-12.2983 l 7.49991,7.4999 c 14.14213,14.1421 31.11069,2.8264 16.96856,-11.3158 l -9.25666,-9.2566 c -14.14214,-14.1421 0.27668,-28.0076 14.41881,-13.8655 l 9.63065,9.6307 c 14.14214,14.1421 26.18217,-2.1021 12.04003,-16.2443 l -8.06063,-8.0606 c -14.14214,-14.1421 -1.04286,-29.3271 13.09928,-15.185 l 7.6887,7.6887 c 8.89353,8.8935 11.59463,-16.6896 2.70113,-25.5831 l -6.67013,-6.6702" /></g><g
       id="g5819"><path
         style="fill:none;stroke:#000000;stroke-width:8;stroke-miterlimit:4;stroke-dasharray:none;stroke-opacity:1"
         inkscape:connector-curvature="0"
         id="path4102"
         d="m 1030.2114,692.1901 c -14.1182,-19.4745 -26.1964,-37.9003 -40.0591,-54.8682 -24.8975,-30.4742 -53.8412,-56.6382 -88.0981,-76.4984 -10.0019,-5.7986 -20.5307,-9.3404 -32.3083,-10.2225 -8.694,-0.6514 -17.5958,-2.788 -25.6943,-6.0356 -9.7757,-3.9199 -10.8847,-12.6635 -3.2711,-20.0782 10.9374,-10.6527 24.968,-14.5358 39.5704,-15.6664 44.0458,-3.4102 77.5305,15.7852 103.4142,50.016 17.7433,23.4643 28.478,50.3141 35.4218,78.6224 4.3102,17.571 7.2025,35.4897 11.0245,54.7309 z" /><path
         inkscape:connector-curvature="0"
         id="path5822"
         style="fill:none;stroke:#000000;stroke-width:8"
         d="m 857.03274,517.06451 -8.6849,8.68489 c -11.57986,11.57987 6.45414,21.83014 18.034,10.25028 l 12.70828,-12.70828 c 14.14214,-14.14214 39.60972,-11.32545 25.46758,2.81669 l -12.15288,12.15288 c -14.14214,14.14214 6.42932,21.85495 20.57146,7.71281 l 12.59735,-12.59735 c 14.14214,-14.14214 31.3881,-3.10383 17.24597,11.0383 l -12.4984,12.49841 c -14.14214,14.14213 2.36746,25.9168 16.5096,11.77467 l 10.95925,-10.95925 c 14.14213,-14.14214 27.10232,1.18195 12.96018,15.32408 l -8.1864,8.18641 c -14.14214,14.14213 0.32347,27.96079 14.46561,13.81866 l 4.98309,-4.98309 c 14.14214,-14.14214 23.57257,4.71169 9.43044,18.85383 l -3.01988,3.01987 c -10.86694,10.86695 2.37627,25.90801 13.24321,15.04106 l 3.0602,-3.0602 c 6.7867,-6.78668 12.8101,15.47417 6.0234,22.26086 l -5.09,5.09001 M 876.07597,547.75594 861.0107,532.69066 c -14.14214,-14.14213 6.14049,-22.14377 20.28263,-8.00164 l 128.51457,128.51453 c 14.1421,14.14213 5.834,-22.45024 -8.3081,-36.59238 l -93.43315,-93.4331 c -14.14213,-14.14214 24.42873,-3.85555 38.57086,10.28659 l 45.82653,45.82652" /></g></g><WCB
     layer="0"
     node="0"
     lastpath="0"
     lastpathnc="0"
     lastknownposx="0"
     lastknownposy="0"
     pausedposx="0"
     pausedposy="0" /></svg>